<mxfile host="Electron" agent="Mozilla/5.0 (Windows NT 10.0; Win64; x64) AppleWebKit/537.36 (KHTML, like Gecko) draw.io/27.0.2 Chrome/134.0.6998.205 Electron/35.3.0 Safari/537.36" version="27.0.2">
  <diagram name="Page-1" id="VuhALiOL5ufcE0AhluSt">
    <mxGraphModel dx="1358" dy="809" grid="1" gridSize="10" guides="1" tooltips="1" connect="1" arrows="1" fold="1" page="1" pageScale="1" pageWidth="1100" pageHeight="850" math="0" shadow="0">
      <root>
        <mxCell id="0" />
        <mxCell id="1" parent="0" />
        <mxCell id="X7lgUItijejAONc3UzzH-1" value="" style="shape=image;verticalLabelPosition=bottom;labelBackgroundColor=default;verticalAlign=top;aspect=fixed;imageAspect=0;image=data:image/png,iVBORw0KGgoAAAANSUhEUgAABPoAAAMACAYAAAC91AldAAAAAXNSR0IArs4c6QAAAARnQU1BAACxjwv8YQUAAAAJcEhZcwAADsMAAA7DAcdvqGQAAP+lSURBVHhe7N0HYBRV/gfw72bTE1JooQihVxFELKA0ERVsoGI7T1EUPCuo51lOz8M79f6eJ3ZFOdGzAooFKSJVpQjSa2gJIBBaKunJ/t/v7Uwy2UyS3WQDIfl+8JnZmbczu1PevPntmzcOlwIiIiIiIiKCY9CzxtDp6cBn44whovqpefPmxhBR/cRAHxERERERERERUR0QYPwlIiIiIiIiIiKi01ipFn3LFn6D7T9OQkD6TvWqsoZ+DhRFdUDnS8aj38XXGOOIiIiIiIiIiIjoVCgO9EmQz7FkNPq2TNUTvLX89xi4Bk5lsI+IiIiIiIiIiOgUKr51d9v8V7wP8oU0BIb/ADQfiAtapGLzD68aE4iIiIiIiIiIiOhUKA70BWTsRr4rEEWRbYGhXwEDPwCCooypFqFNgCsXAc0ugssZirTCaBRl7DMmEhERERERERER0alQfOvuO/d2wLXdMxA19G04M3YgKOoM4PhGYP2/dEYttClw5QIgqj1cP4xEWuIK5LlC8NXmBrjnLenX7/SxZ8FkzN/lHm547ihcf3asHk5ZOwPTVx3Xw0B7DB07BG2NV6XsWYDJ81Hu9PLmT0REREREREREVBNKWvTBhdCAbDhyj6Ewprt+0AZiuxpTlbA44KqF7iDfwluQmXZMB/lOSylrkdpuLMaOlTQUsasWYG2Ke1Lq8eNoP9ScZhfES8HaGZMxebeEActRwfyJiIiIiIiIiIhqQnGgLyQgF1HODDhWPob8A8tReHA50P5GoMvdQJi05FsINGing3zodh/Cr54FBIbJs3cR5Mg35nKaiD0bZxdH8GLQsKExqDVEwxhj0FYszr5+LMYOaWe8tlHh/ImIiIiIiIiIiPyvONBX6HKqFICcvEJkb3gfecufAuZeDaRuB65YADRoWxzkQ/MByFjyGBwFJxATmIpAR6ExFxspazFj8mRMVmnG2rVYMHmG0bptj2VYeL42Ws4Z712wp7xxdrzNJ1Jx/HgsYvSdtSlITTmOVdPd75vhl2Z41vkTERERERERERHVjOJAX54rCMcKGiPHFaZfZxeFoejoWuDC14pv1zWDfGk/jIMzvAkaBOUgo7CBDhLa24MF01ch1rgVdgh2qX/ekEDddOxqP8q4/VW9V1rI7VmDVbFDS4+z420+Zc+C+Ug5t7dxi67RWk+/zz+33JaePxERERERERERUc0oDvRJq7xQR7ZOcjuuKzgWhcMXANGdywT5QloPRuTAl5Db6joUuIJ0kNBWSipSGp6L3kaUK/bsc8rv184qJRG7jrfHOZ4PsIhpiIa75pduaWdpMTh58gLoxnt2+cpwt/r7rWF5D8poi3btj2NXYlUjfZXNn4iIiIiIiIiIyH+KA33Sz15UYIZOcjtuRM+7gPxsFP5wHfJj+yA/oAHS5o2FMzgCwQ07IPOXZ5C7e45+r0P//ySIPRvXSws9LCi5JdcY526FZzw8wy5fKRKEWwAMGVtpEC62Svfcej9/IiIiIiIiIiIifygO9BVzBCKoyx8RnLYehd8OREbiL0j99TWkzrwa+Xu+R9CO95Hy1dXIXj9ZZ9etAANy9HAZsTGIPb4Ka4xAW8ra3yy37spDKo7jeKrxcs/ukmmxbdC+4S78Vk6LvNizr8eocxsiJbXi1nbl5tO39p6DCmNwKWvx2y7zwRye/QfaseTxZv5ERERERERERER+5HApMvDh/a1w+1n7ge4PqFdqVGQ8MvatgqNxLxSm7kTRsc2I6DoKeZmHkZe8HmFnjoZry7sIO7oYH208A7e/sU9mU9aeBZg83x3Ca3juuYhdtQsNR13vDoJZpqF9e7TflVIyTQfO5hcH/9oPNVromfnRHkPNFnyerPO1yZeydgamrzpuvHJreK7cYptadpn6jfJZfrN8NiHjdqNd8bxL8rRJLG/+jPwREREREREREVHNKA70/feJQbiz7RLgrEfhys+Aq/0tyFj/IUI6XI2CY1sQcugHFHT5EzIWjoczKh5R5z0E1965yEz4FjP3noUxLy7WM6yYXcCMiIiIiIiIiIiIqqv41t0uQydg+e8xcG15GzlhHZCb9jvy9i1Cwf7FCAsG0lOPI//AcoSddTdCAnLhOnEQmUf3YtXvDdD10gnGXIiIiIiIiIiIiOhUKG7RJ5Yt/AZb57+GgvS9MEfLQzqK4EShyx0TlAdvhATkINcVBkeDtjjz0vvQ7+Jr9LTKsUUfERERERERERFRTSgV6CMiIiIiIiIiIqLTU9mn7hIREREREREREdFph4E+IiIiIiIiIiKiOoCBPiIiIiIiIiIiojqAgT4iIiIiIiIiIqI6gIE+IiIiIiIiIiKiOoCBPiIiIiIiIiIiojqAgT4iIiIiIiIiIqI6gIE+IiIiIiIiIiKiOqB6gb609fjmm/VIM16eMrXlcxDVZqfjccJj++TjOiciIiIiIjptOVyKMVyWXPB9vQ6pxku3thg0IhrrFgODBgGL5e81PRFtTPUr2+XHoNeIa9DTukDJ5/l5zHH++GxlPodaB7cPQLzxyivWz1PesJHVK/78fr4otS6qsB685c/vV+ozi2puP2OUV/z2PdKw/puvsa70waDF9BqBa0odEOXw5zq147Ge9edqk1i9ZXrzma15avo7lqfMcmV7qRHntEHib6fg85js1kdl6+hUrUMiIiIiIiKqtsoDfafygtDb+dvl8+dn85xX0lJ8uC4aI6o675pebzXtZHz+2rz9fFET66qq86zR7ZaEpR+uQ3RxEF69XgoMGFDNMLA3n7lGv5e3jMDeIOP714rPpNh9jso+W2357EREREREROQz57OKMVxWbjK2JwJtujRDqDFKkwvBeclo3gZINKfLuC/mYeX69Vi/PgmOtl3QrNSbqqC85Qvr8rYdQk5oM3Rpnox58rm6hGH7vMVITD2EbWp6kqMtulTnw3h+jhggfWUyQnvFI6bU905HrIxTWdLWf4Mv5q1U49T4JAfalvfZcvOw/bejarznOjTmZazr3MPzMG+xjF+P9NheiHe4xzc35ltmuvtDWOZnfA67dekr6/oo7/Op5ZdZB2W+o7Gf5FrnId87BkknY/u1TcWSUsstZ3tKYPCbxRV/Bz1jCXZ9g8V6vKyHtkhd4cfvYfJc/56fV/LYjbe8L9du2+iZV1Uaktbnotn5xvLV/+PdO4FlP03A4e2LsXilsW6WfIF5etiyP5ufw3yfpYwp9ZmL13sa1vvjeHJ/6GoIRVjudqxLbe7exskJ2B7aBT3Dtpd8r1Kfp/S+XzI9AWF6G0rg8FfkdjHXZxV57vui3P3H+EwwpntsM/+tKyIiIiIiIqoplQf61q3DOn0RaCZ1wdwlFIfkQrD4IjwXv36RjC63X4OBvXqhV9tcrFxsuWivKrvl66CELG8FwgbdjmsGyvIcSCr1eeIR31yNO9QMl994GXpWN7jicbGctn4JVuQ0Qy+Pz9HWsQ5zE8LQKyYJ8xY7cIGxPmIPJyBHfQa9zjw/W4OjxrzLmVezHL0OHL2M7xqbjsXrUtHW/K7y1256eeuouttEWNeHsY3KLL95MhZ7roN4YIPdflLqO0hgIxTNTsb2K7PcJCy12wY9e1rWX3n7ehi2fzMXuRcY60FNi4/x8/cwFX+fcvaZ+DT77yH7krzPdttUM6Ak705frOarjtH0WPUZjLmZn1Wv60NodvmNuKyZ2kcWbysZtu7P5v5pfZ8xPrpZF71edYo9jHnboZYTV3odV/V48sNxEZp7GCuTQ/V3T9qwGLnNzkd8qHVb2ew3PWOQZvxo4Ni+EmlhYUiDKiNikpGgvl+1j1fj+CxVhpo/jJT3mcx1bt1m5xvranFSSTCZiIiIiIiIap3KH8YR0wsjbr8dtxcnm77N0lKRgj1Y/OGH+FCS9NOVmubRt14VeS5fbieT5anxPWukc7hypK7D18b3+zqxjfu2T4/PEa2ujGP2JCEpOgaxen0sRZIaHz/Ai/7gypuXvLB+15joshfZdtNP5jqyW77dOqhoP6npz2q3/WS8dbkVbQNTed8hLRGJOEnr21Te563se1Rl//RC/ADjGI1Pcq+bpaXWnFrXbdBGVrrsI9ZhPdEL0vrMXO+L9wApqSj3gREVrQPrNvdl+ZWJj0dbvQy1P6S0lZclyttvJKjXNkXtP2oXTYtFfM9opCSpTyn5Y2P8c+us+r6lytARvUrKiPKOR5O5nYR8P/UO+axERERERERUO1XvqbtWnheTNfWQhlPF+v0q7bsqHgN03ngk6Ytod0DlpPK8YD/pylkHp2o/8Wn7VeK039dreP+MH6DmPcgIevmJBPm+TkSbEcY6N4NVtYoRtEtKRGKsGjbGFitnv4lRO2NaqlpXKdFquA3apKhhdfzGlooU1pDTfl8mIiIiIiIiK/8E+qSFUOo6rD9Z0Sy9PHUxbbQsSUtMtA9q1XSwy+N768/RVl3gp63H0vXy4SSgMgK9YtTFf4Y7TzHPz1bevNwvfSetbyzr6KSzWwfwcT852cFKb7ZBefu6BGhQznerqe9R3uet7HvYbZvq7icSiLO24NMt6nxsLWdZT/ozG8PFLK3Lykyv6ePJS/HxsVi3eF3ZIF15+40irQ2xbh1S1N9o9U9eSqM+9ZaaVcFnsqU+1B5rCz8iIiIiIiKqdar2MI4y/Wd1Rue2Dqyba3bqrpI/Ovi3619KXZU62p6P85sdxry5i/W4Q2HNEZoTWqo/r9DQZggz+gzz+8McisUg3vK9tx1qrp9UGROai6R5c42HMmxDTpfLMTAutWQe1s+GWCAzsMw6LJ6X57I91731O1uny/ykHzNjHZX0y+X5HXykW1atQ2qOPPzA0l+j5/J7xiDZcx3Ex5VaX8X7ied3ECdj+5UZX872LJW3vH09Xve9aB2vH1wQ58fvYSrns5R83nK+R4XbppqfKzQMuevm6odruPe3HHS5fCDizQc7WLexdb0Xf6aeaCP96BkP2yhzTKvpMYfnYa70AWidLvPwx/FUvA9Uk9pZ0tc7EK/7fFSK51/efiOfX5UXKw+h2QU99UNdQnOTsDgxGhf09MNnsvt+lX0ma9liLX8TYzHoxvMRZ8yGiIiIiIiIah+HSzGGqS6TJ8cmxeP2ATXdpqmOkvW3Lrqkbz+iuk6C+ouhA6Tc54mIiIiIiE4PDPTVYUlLP4Q8s8CtLQax/60qSMLSDxdjD2LQa8Q16MmIB9UXDPQRERERERGddhjoIyIiIiIiIiIiqgP899RdIiIiIiIiIiIiOmUc6enpbNFHRERERERERER0muOtu0Sk/fDDD7j00kuNV0QkeFxQbcV9k4iofmL5T0SVcaSmpjLQR0RYuXKlrjSkpaUZY4iIxwXVVtw3iYjqJ5b/RFQZBvqISGOlgagsHhdUW/myb07dFmwMnXyju+QZQ0RE5A++lP8LFiwwhsjTkCFDjCGiuqdUoC88PFz/zcrK0n+JqP7wrDSwPCDicUG1ly/7pgT6ejUuNF6dPOuOOhnoIyLyM1/Kfwn09enTx3hFptWrVzPQR3VamafuHjx4ECtWrDBeEVF9xvKAqCweF1Rbcd8kIqqfWP4TkVWZW3fNAuKCCy7Qf/2hyFWEN396E1PWTUF6aDpimsQgNycX6fvS0TKsJR4f+DhGnDXCyO1fdXXZBQUFqOpzVBwOBwIDA41Xp4fly5dj7W9r9HBkVAx6ndsXDpdvrROK4MD8WTP1r14BzgBcfc01aNGihTHVP5a89hrWT5mCsIwMNI5R2zsvD/vS0xHWsiUG/OUvOGtE1fe1wsJCZGdnG6+8ExYWBqfTabyqmN1tAFUtDwICAvT+6cs+Kp9TvmNdEBISoo8zq5ycHGOITpaioiK9L1aHP48LIn/yZd883Vr0OY4dQ1T79no4c+FCFPburYf9obCwCC+/PAkDB/ZHr15n6fK6NpDyqqjIpepnTtz+aQE+vOX0qqedzvJUXU3O2UFBQcYYqoqEIwFIPGa88LMzmxehRbTxgnwq/9miz15VW/QtW7aseL3HqGu9vn376mGqmj3HHPh8jRPOABfGDypCsLP0teN3m5zYdNCBLk1dGNmzdD0mTV0Wv7okEGP7FaBZlDGSilW7j77NmzfbX0ipE6Zc5uYV5uGV317BvBPzMPTSobi+5fUIVf/khJqcn4wPNn2ApBVJuK/zfRg/bLz7vV6qr8uWgEFiYiKioqP1sjRjucU8X1ukpKSgTZs2CA0NNcZU7sDvv2PVqtXqOzsQrCrFTZu3QpEEG43pelmyTDUg31H/lbHu//RwQGAA9u9NQl5urs7Tt18/NGrUSN5ZqenTpuHTTz9Ft67dcFbvczD8mht9uoCXz1BQVIBnH3tIB7/EzbfcjDN79NDDlalsexeqSuJvL7+ME/IUrMsvR8vrroUzIhyuIrUvHDqEgx98gJ2qEu+45hpc/tBD7vf6aO3atfqze1sRzc/Px9GjR3HRRRcZYypmV2moqm+++Qbt2rVDDy/X7/r167Fr1y5ce+21xhjvSdD6t99+M14pxjbxhlxYHVMXlNVpup+ZmVm8zszAptw6ERERoT+bBC/T09P1a9nvhfyV11JBqLNcuSplAgHeHeM14ZA69qScq8569tdxIe/PLyhU+0Y2XI4AhAQFIjg4EA1jY40cNYfLPvnLPnbsuD5XZ+XkqnKhCKHqvBmm9sVGjRr6dO6qiC/7Zm0K9AVNn47wu++GK6p0rbxQXSyd+OILPRz83nsImjkTRWedBYc6j2W9/74eH/LSSwh5/XU9bHKo8jVvzBhkq3OwN6RM/uyzaejSpTO2bNmGVq1aqovgc9CgQaSR49RYsWI18vLyMWBAX0xbV4QbegVg6qL9GNy9IeKbum/Lq0uSU/Mwb80xFKhjtDR1HlX/yenyivPi0DSmZvuXlB/OFy1apH9sHDhwoNc/jtY059atiLjiChSqYyD7nXdQ1KyZMaX2GvdFkCrvjBc1YPJN+cZQ1Ul5En7rrXDu2YPMOXNQpOqqpyNfyn8G+uxVJdCXlJSk/zZv3lzX+aUVpZzTW7durcdX1SefzcCadevhCHDqaxipuwYHB+s6S3BQMAJV/UXKJrmuCJDrHFWnkTKySA44leRHIjm3FblUKizCPnXdnpubr4YLcd65vfHHW25wL6gcqampxdco/iLrJzk5GZ07dzbG2Nua7MAri9w/bN18TiEGd1QXz4YTqvrw2DeByC90oHerItxzoft8kZ6jtsVxBxbtcAcBn768AK1iqlf4nMo6Y02pdh99sn/l5ObonUN2dPlrTRPnTcQH+/6LfkP7oV9MP13xvSb2GuzL3IeNjo36PZ/t/QwH5h/AZ9d+hn5t+xlzrlx9XfaJEyfwuzqAO3fp4l6+ZblC/5XX+pXx2mLjxo26gJJAg7d+mDcPixYuwu8HfseAgYNxw213IzLU8iu4LNLy1/2Z3MsOUH8lQJiRlYvJb0zC/n17JSeGXzEc/QcM0MPlWfbLL1izZg12JOxAq/h2GHDJZQhQF02BTgl2eXlAOwPw/ddfqUp8BPYnJSJcfW8JgvkS6Ktse8/729/w+9SpuKT/RWh08UXqkxXCVaDepwoo+ZSyTpI/+QSzDh3CdZ99hjZV+PXnF7Uuhg8fbrzyznfffacuGipexybPSkN1+iI7cuSIXse5ublo27atMdaenCQleCnBMAkO+krem5F5Qu9jZbaNZPAYtpLxC1UFSCr3VTF58mRs2rRJn4wlCDts2DA0bdoU27ZtU/tbAz1eTryyPiToKetyxowZumWmrBtpUfr4448bc6tDilIQcOLfKAq5Wl2xn2+MPPm2b9+uKxpNmjTx+kcFT9U9LiSYnJiYhOMnCpBTGAiXM0xX5FwF2Qh25CEmFIhvfYZPP7x4i8s++cuWcm/X7j3IynPhRGEoXEHh+nxYmJ+NUFcWIoJdaH1GS0RFNTDeUXW+7JveBPpkvRUVFsCpislCVWIGqHUmZWp12AX6An/8ERE33ID8UaOQe//9xlh1rlTnZvOiOyAhARFDL9XHb+7L/9Z5hUOdQwNUeWoKnD8fIW+/jbzbb0fOX/9qjK2YfM9p075U5fWl+vX+/QewefMWVSeKxHnnnaPKi8Z6/Mkkn2n69G/QrVtnda7ohkJ10eZU57TPfj6ImIhADDu7iZGz7pgyZxfSc08gvrnnRZS7brc/ORUNwxvg1ksqrkNU19KlS/WP30J+HDrvvPP08Cmj9vnQJ55AyDvvGCPUKFW/yH71VeSr46ZG5OUh6Pvv3UnVUVzqwjb34Yf1cedLgHHs5+4foq/v5b8fFTJzHZi7VdXt1PC71Qz0OVesQMQtt8Bx/Lh7hKo/yg8Eebfd5n59GvGl/Gegz543gb5169ahV69exit3o4su6vrbrFNKY4EEdb7q2bOnfi083+ONoVdch0x9LROgU6DTCWeg+xwc6AzUw041LME+97BKOvDnzqPHqyTnzMSkvQgLLMCevQfQrHEM0nMcWL5krrGksuT98iOTv++qks/z++/7ER8fb4yxZwb6erRwITkDmDi8QMcOxDx17C9PDECOOvTbNHIVB/pWJjnw7UYn8godulVfdQJ9p7LOWNPK1OB8vb/fYVxc66Qqs8V/Vdqbshefb/wMRWcWISYoBltObMGGIxvQukFrhAWEYXPaZmw9sRWdYjshvXs6HvziQWOu3qlvy85X+/auI0XYebgQ6dlFxcuzBjbkc+i/Hq89k6+k4JACQAoClzogAtWVwOHUDCSrJH8Pp6hhScfdfw+mpOOgGj54PB2/H0vH/qNpEm9T8ynS83H/6lD5ASkBzR/VCSoyMhLNW7ZEx05d0aFzd7Tp0EmlzpWmth1Vat8RR48cRPLBAwgKDtYFj68q2t4pe/di87RpOFOt1qheZ6DJH25FRPfWyNq2BdmpmxExZCBC+/dHeKdO6K5OyNMe9G1fs5KLSG9J3qp8V6uq9vchgZWtW7ciVlUWK7rdWO8Han+SgExlAcGKONXOZd33i5O5zTySPlkaw9UhFwhyy48EzuU7b9iwQX9vOV4kcCktKqUFrfwCJ+MlyC75zFvGJb+/5B44gFX9+iFBVc7lGC2PTJM8klfe43cFiQjI+peqiEiF/9S2jJAgsOyDx1WlXsoSf/HluFi7fgMOpruQF9kGDZq2Q1yLlmjZsjkaNW8DZ2w7HM2PxKat2/UPOP7GZbuX3ewkLVvKs3XrN+J4ThByItshqmkbNFMXyS1bNEOT5vFwNuqItKIGSNixS/96XhOqWmZLOZyXm4OmYS5c1D4aIYVZyMnO0q0BakJR+/YoOOccBH33HQp79NDJ2rKmSJ0vZ325EZMnLS8O8gmXWp9m/gB1TEtAMP/yy42p3pNzo5TL8jc+vhWGD79MB9mWLVuBr7/+Dvv27Tdynhx79iShceOGxfWzOz93r/fgQAeC1IXc0XTfb3/2lJ9foM7HOZDWCrLvZ2RkqvNUBtLS0ouTvJYkF5xyHqtJBXk5cKAAwWFBRgo0kvs1XIU4kZlp5K4ZO3bsKO7ixEx7VZ3uVAr+4gsd5CtS9QppzVfYpw8c6vgMv/9+BOzaZeTynwBV/4ocMgThd9yhg3zCoeotoU8/jUi17ODPP5fKux7vjRhVhlzapciPyX0sNIuq5v6ovoOsQwnyueLiUHTGGeqC3omwxx7TPyDUBVUt/8ne999/j/bqXDV37lxdn5eWv/IjfXR0tL7GkhQVFaXK0gwsXLhQ55k1a5b+4UDe6xNj9zbLXZf8M4fVX2uSvHbj5Lpji6rbSBmefPwEwsOjkZ7jnkdF5P1S5sv5Jzo6SrdylvNEZcma325Yro/0Z/PS4I6FOJrpwIYD7muzQnUps3BHAIZ2LlLz1KOKnR/vwj+vLMAf+xQYY6ruVNZXa1qpq1z5FUAuRn0hG9O8eHZIUq/1X5WW7lyC1MhU5IfnY8WBFVh3YB027dukb6HMyMrA+t/X63FrDq+Bo6kDxwKP4UCa9xee9W3ZS7bnYcbqHMzbkqfyy05fErizJv2ZbMabSZh/vSUHqlwInNGype57MDDAgbbNY9BOJfOvTi1i1d9YtNcpRv/toMa1bRaj3icXE+75SFIzNeZese5duxlDuhxDTl6BJeVXmHIlOuoHsr7K2967lixBg7Q0RAbnISVpEY7t3oiGl92GgsHd0WDkH9Gkb3/sWb4AmZvXo6l6n1OdCNKqGGDJycnTwdbKSB7JWx1VKQ+s5NcuOQHKbeblkUq2+Uu6r/tkMdkWHtvHHLZLZoDPHD58+LAOuFnTt99+a8y8YnKSv/DCCzFhwgTcryqQrVq10kG88tIZqmL54IMP4uGHH8Z1112n3+8PErD77corEduzJzLWrsXWBx6wDfbJuC3qc6aqimDc4MH6Pf4M9rny1iAwd7L6u0Fdo9VMIMMXUm5JpUMu3qRV9e7du40pVefLcbFmzVrkOiJR0EBVFgICZVdFfkERsnILUVCoSjMZEd4EecFNsW7deuNd/sFlu5etTlVIOJSFFbvS3D8u1fCy8wNjkB8ZX/73jmiG3NBm2Lhxk08VYG9Up8yWH+F0YC8/G59++gk6NgpCsAT7crLd5+sakDd2LFyhoQh57TVjTGn5DWKQ1rSV8aq0wJ9/RtDHH+tbGqtCyv8j2SHFwT5JLVo0x1VXDcellw7BoUOHMX36TCQk7Kyx72+S/UCWI7cQS3klruhmXOio/adb61isS6x+eXrsWIoR0EtDamq6Smk4fjxV/5ULMvmecsEqAUAJdMrfmlRUkIOsE1nq80iwUZJ0g+FO6SrJ/ix5aop8V6mDSF1FLt4lyQ9D0jpHln2qBE2bpv9mffYZMpcuReaPPyLn6afdre6++05P85dAVReIlNuVN25EwWWXIUsdTye++QZZn36K3PHj4VDLDLvnHoT+/e/GO7wjVe/3ljnx/eYA3eJG+t+Si3YrKf6+WBOAzFxjRA0LkNbAO3ei8Nxzkb59OzI2bULeHXdIxRqBq1YZuU5f1a2zU2nSBZG0mJQy4fLLL9dls9whJUnKbPO6WMb3799fXwtIPfMydRzJtY/cKSR3VXlLzkGXXnwRbrz2Ctx03ZW4Qf29caRK16ph9XfUNcNw3YjLMfKqy3DNFZfg6mFDcMVlgzBkUD80jApDQW4mnK58xLdojPbxzdChTUu0b9tCDbfUPzZWRL6LXI9IoFiugVJSUosDmRUla/7yhn2p5zQMB85pXYQftqq6krLu9wBVbjhwXnzNnYNPZX31ZCjTnEU68PSlg3Ed8DBSqZY0Ku04tgM5MTnIOZSDF5q+gLc7vY0P+n2AxmGNMbDtQEzuMVmP+0P+H1CUV4Tc8Fxs+N37Fi71bdn5BS7ExTgR3zgQkaFqWZaAhSTz8wjrsDBfS9p+qABvLDiB1+ZnYeN+7yLhZoEmSYIFTqcDwYEBxSlIpUBJao+SCyv1Dn1RlV9YCAnI5ebJASO3Bbnnoefjw8EvZLayfqMjQi0pzON16dQgzD99u1jXn+f2PqpOrNG52XCG5SA8bwfyZ45A0s8zcOYfn0LLC4fjxxcnIHLpP+AMTHL/Kqsqk7+rAtBXv/76qz6Ryy/yOTm5+uQigVOTDMs4meb+1T5Lv6c6fC0PrLp376773uvWrZu+HcaTtHSTW3W3bNlSqsm7r/R+Yez/epvIsOW40MkY75nkPXFxceh19tmlkretC+X9cnI2yes9e/bo4KaZpD8PSdJKQC6wJI/+rMZnqK6cAwew8sor0fyCHnpdn3PH7cjbtwOb7r+/VLBPhjfedx/ykrahz223olN8PNpeO0y/V+ZRbbk/IrjwWxRkL4Or4KisDGPCqWGWWbKO5biQ17Kt5Lbq6vLmuNi7dx9y1MVOZlALSOf/DocLWaocPJErFYgiZKvhvHx5RJDafyOaIiSqkT5e/IHLLll2trriPJrlwsF0h15uTS37gDqG8lRxnBnUrNLv7YxogvDoJtigLq79raplthwr0qIvT12oSJ86zz77N5zVKhrO/BPIrcFgn9we6EhNRfCUKcYYYFuyQwcA1u0Hfk9zD/+0q6SsdK5di5CXX0bWxx8bY3wj5e8JZ1NM3xiJuTujdLDP3ReSu8W/dLtw7rm91QXbEP1D0BdffKn2k426HKkJe/fu160fZNnmer7uLNlTgEJXIWIbhCA9q1Cl6v4w5ELDhjFo3LiROu9Jy/JmiI8/Ax06tENwzBnYltEMJ8I6oE27DrovSclfk4oKcnULCbMVoTWlqZSTnY3C/JoJ9Mn5QG5nlH615OLcmqQVrtSdfK2j+otDHX9CWr2azNaufm15JkG8hx6CQ773P/6BE59/jvybbkLBwIHIHz4cOc8+i0y1jlxNmuhgvBx33lqzz6Fb4A3sUIQ5WwJwYTv3fi232AnpX0tdS2NwRxdmbT45Lf9d0dHSqTMCVJ1T+ulzqDpy4PLlelqR+o51QVXLfypN7r4599xzi8sAOTdIWWHeHi0/CkjZJUl+JJFzg5Tfcj0h75FyRP7K7bsS8PJGfOtWePSRCbj7rjH4461/wBXDL8cdd47G6Ntvw+23/xG3qXr7bbf+UU8bNHAArrtuJEZcczX69e2npt2Gh8Y/hEf//AgeeeRh3HHHaPz50Ufx1JNP4s03X1fXY12NpdiTzyqBO6dTHR862OUoE9SzS9b85Q37Wo5e0qkIO48G6Ad0LNjuUGVIIYJqqIg4lfXVk6XUVabswOZO7C3ZiJLkQtps4WQmV4TauNINjbu+Uqmi8CIUBXtfmayPy85VO1x2XpH+Zcz8DHZJlPc6JAhoGuNESIgD+46rPdwLZiefkgpUyisoxM7fU0qlXfL3gPprpN0HU7DnYCoSD6UhMTkV0sFlQZF7Hu5bNn07+IW8Q5btbcqXFeUH5rqz295hqmIeJYuRBnTqb2qmS43Xb9MCg10Ia+FCcHP361CVP6QKF00SuJOm1WY6cSJb3xYrQT13kttxskvlqc6v0lUpD6zktklpxi4XUVLQWy+S5LUE+uSWbAmMyd/q0NvG2B46qGfZTmZATScZb5Nkmnk7r6SqkPlIH33XX3+9bZIWfCNHjiy1XH9YqeYtn79Fs3bIPHYMebsT0XX4NchJ3IZFY8boAJ+kJWo4Z9dmdB4yHAWHDiP9wAE0CWuIdtdfiZWWW+OqwpH9OYIK5yM/Y446Box9Th2sAflzEZD1bzX9U1Wrd3dgXJOkXJGAqrTS2Llzp+5PQ9aNkP1PjhEZJxUvXysfJm+Pi2PHjqLQEawqEaqyo1ZGZm6hu+Kg/krlIVdd5ciPInJrXmiQQ5UTkfoBDv7AZQfqimGeKv/lYjIjz4ljue5KZ4haZkSo0+/Lll+wXQGRpZddKOdNleQYVHmsyw4IjcaRwyV9zflDtcpsdTzID3FyDAm51X3i359F7zaxcORm6iBgTQX7cp55Bs6EBAQZD+JYuisACxKcaBXrQo/mRVi114n/rXLX9OVW3bC//AUnZs7Ur6tC9oN96KzKBiA+xn2BJslaVkiSdXn++edixIgr9XefMeNrrFy5Wpcj/rRp0xa0b99Wl0lmuWTeuis/kMqPvN3bNsaaXdVv1afPg5akg4suB9b9DvSMy0LD4Cws3l6IQ7nR+i6MmpSamY8TWXm69V7ZlKHqL7lIrXZw0548NbNx48b6YtVszWcmGSdPYpb+d0+F3PPcgZqQf/1LTmr6YTPBxgNoCs/3vs9b2ZWy1eorLxVO/QQ5ew8ibeQNSB13P7ILHHp8jiWeLbfIZ//733IRoPsN9Fbi8QAcPRGAI5kOHDsB3XdWeq4D3xlBvXlbnWq6uhZp4FLnBXfdXvrckqdrmkk62vcnlzqe826+GY4TJ9Cgd2806NwZznXrUNirl7492l9Ssh2Yvz1A91co6ct1Tuw4UrV6pS+qVf5TKdKntgT73NddmbqslGsZKR8e+vv76HbZw+hw8Xh0HDIBPYb9GX9+4SMd9DOvbyX4Jz/sS0OGs846y5hr5eQ8I9fJh48chvTzJ8GnQvVaxku/rTKcl5+HlatW6i6Pfj9wSDeqkT73I1WKCI9Q565C7NuXhLimTdC+XVuEqbLMJS3TKiDnnXw1X3fwzqk/vzfJmt9uWObpa127bSMX2jd24ePVqgxICdA/FtSUU1lfPVnKlDxSWfWpjz6Vii+q1V/zIltS33Z9EaT+IRq4aedNGPTrIAyaNwiHThzC3J1zMehn9VqNezHnRT2vkIgQnNHoDD3sjfq4bHegTxUkar+X5ZpJWP96DpuvhbxXgoW5qvLoLTlQpaCRpAsEVZA0igpVKcxIoWhovJYmxA0bhCFWp1B3igzV7zHnYc7HZ+o92bn5HkldwJcZ507SmtAfKtreHS+8EEXqBJCpjv0jRwPR8KbP0Lrf9Uj46s84vG4GBj08CTHDH1CVDLX91HwahKp1dYb3+5pJLi7kthvz1hr56/kruHWa5K3uBYmv5YEn+TVLAi7Sx4X8NcktlNL6TFqOdOjQwRhbdXrbGNujOLhnvNbJ2G52SVhv55WkJujx3jLnY52nOSyfJ0dVDiRlyy/nuXKCzMf5F1yADz/6SFdwVcZSSSoU3opR80lVF+XHjhxUF0dpOmVs34kOQy7Dgb0J+OoPf8D0W27BsaTtaD9oKLL2/V6cLyciDPt++gUxPlw8lKY+fdYbcBb8jPzMRe7XQn2HguxfUZS9EEVZ38F14l0EZr+oKtj/VBUOd2sFf5MOkaUFpfk0Y7l1QralHAPmdpVyRwLMZrBPKm1V4c1xIbfDFTojkJVfoCpuRcjMVhfsqgKYrSoOUmGTYJC0hg4JClAViAAER0QhV1WQ/KG+LztXnWuWJaTg/Z+O44Nfs7DqQAD2ZgbjvZU5eP+XNHy87CAigv27bClvcwPC3cvefgTvL0nGh6sy8eG6IvxvQwA+Wp2F938+io9/2qeXHRbZQP9o5m/VKbNdxj+TtER+/p//QJ/2jdSxnF6jwb7sf/0LgUuWIGj2bKjdAledWYQbe7vTmL4FaBLpQoD6buG3347MH34w3lV1yfmNkJHtwpnNC3XZYJbbcpEmdROzzJAkrTnOOutMXH/9CMTGRmP27HlYsuRnvc2rKzn5sJp/kCqT5OFm7nqWKL51V1XYpAuSZrHh2HUoU9Wjqrf+zfOS+d3kXLM52YkzIuQHGhcig4tw7hk5iFJ1tlXJjXEowx2YEVsPB2J/mtOyh1RPyglVLqjzYbrUZcxUXJ/JVOVzIdJroEskCWLLA7LkQtSzNZ+ZhNyJIPlOJgm0TTr/L8iKiEXIG28gKj4eUR076pZnEozKv/pqI2flpDXsQ18GlZv+FDUWd7xyEGMv+6DU+L/PKV3/kGUWtWihb/OVlnDeiG9YhDObFaFljLrGqaQ6o3ZtpGc70L2Z9A9aVJyalX4ot1/kqHIm95571IV9AArUtYN8tyzpg9CHOldFVu8NwLOzAzF9bclxM29bAF5a4P6xQm5jrknVrbNTCWnRt2vXLl1PlD51Nyfsxcff/ILrr+iPKf+6Hx+/MgEfvPQA/vP0nRjUtxfen/4Ttu/arwNdEiCURgznnHOOMbfKSdkvdQLprkH/OOhS18qq/Jdk9q8q13dyztiRsBNLf/pJPxhEHtoh5bg0rpAUqCpZ8kNFTEysPpfJvCR4WBE5J0j/4U2bVp4iYxrZjrdLMk9frmdMl3Quwr4UB86PL0JUDT7/4lTWV0+WUoE+2TF9vr9fKg2qsqArDkYFQic1bmibS3Unt5D6gyxJtrV6qaMmMix3VcpfqTWo86o0lz8z9kz1wkv1cNkSnMvRLfpcxcsUdn89h80k79WBvnzvK4zWQJ+0xJPKZnaeKnjy8o3k7jNPgm4l/eeVTtK6rmQeVQv0ybqOsblFt7xbeP11665aceVu79aXXaa3d6Y69h2xMWjc4UxsmzIB+XP/jUOTbsaxNTNQ0OxCpOzRm1tv79gzK9/e8muSdAD7kyrMf/vtN73O5MJCCiZJMmwN8knynC7vkffKPGReMk9vVak88GA+lENOlBLQkyCLzFd+SZcLKvlsVXnSrifZDnq7WP8a20uSzmMMeybzgsea3O/wjszD/Os5LEn2c/N2a/mVq6BApcKSW0nNXwCtSSoI3jrr3/9G3MiR2Lx4PjLTjyIrLU2njM3bMfCigUjal4AD+3fi/H4X4cTOPcXT80McWDfjUwS166Ln4bsiBGROhLNgnQ7qFZN14FLfI28nCnPWqLRep9y0z1QBthQBGY/Alb/dyOwfckEmAb2GDRvqSpYks2WGHAMm+cVV9j+5eJMK0ebNm/X69oW3x4U8IMYpTXzV8o9mFugAkB6vVk+Q+l+Qmh4olQg1LE/XDHG6St1qXR31fdkyP2lVHRsegMYRcsuu+7bHuEggroEDcVFyi6Z/ly3lhnw/vWx1DMSGO9EoIgCN1EVsw9AiNFXDcZFOxEW7lx0a6FCryLd9rzL+KLM9yQ80//fiCzivQ2N1nNdwsO+tt3SrvgDj1sVS1DIjLr0Umcvdt9pVh9w+mJkXpMtgqcSb5ba89jwXWJOU1x07dsC1116jW+BJsG/OnPk4XI2WmatXr0Hnzh31cGBgUPG6Lb51Vy7yVJ1LWoh2jW+MVTuq15rA+n3kAiy7wImEg/lq/5QAp7taKuuhpdx22b4ABzMCsHBniH5qoxwvv+xxYu62YFWPdM/PG9Kq9Y9/+xpXTJiByyd8hcsfnolLJ3yNFTtykJ2Vh4y0TGRmZOFEpnlXQhYy0jORlZOHZTuyMXT8TFz+0JcqTcPw8V/gpQ+XGHP2nZwTpEN9OVfIOaKiJBfLUkeR95wMOsi3OBDr0RJv/3spcq66BupD6Kfe5t57L058/bUUckbuk0gdH0Xd3H1lB+z37SE10kpG9ishl0N2RYfErgPVvrUyKQDfbSxJSTXQcEZa9eW8+CLue3U//vTmIWR99JFPTxWuiHQ5MHmZU53zgCu6F+GJoQX4+7B83NW3UJ0LXLr7gU9Xy1oonzxgqEGvXoiOiUHos8/q26u9VRPlf30mt+/LrbhSR5TGE3OXrkPDmAY4mpKp6hN5SM3MQdqJPJ2Op2fpH2u+mLNaXXtl6B8L5PpHnurrLXnwlb4GUPUCl/or19rSQCDzhCob1bbNy8vF0iVL8NL//QuLVRk2+/vvsXbNan09ERQsAb5AneR6NFjVb/XDL9UBp88pargicj5o3ryZ7qe2vCQPHVy2rwjXv73ddrpdknlKOeqrXi2LMKBDEYYaD+KpKaeyvnqylClxfL2/v1TQQ5JZiVDDIYXBuLnlzQiKClJnMJVZAl9q/aw4uALbUra5mzfJOHVyk+bGj3R8RH2gigtBq/q4bOutuyZZvvnXLgmpuJlJAn05aj6+BfrUMo1CyLx19/djGaXT0QwcMIYPHMvEQUnHM3FIkioY89TZXAoccz4yT1/J55eLNm+TtCL0h4q2t3Qm3uLGGxGpCta9M49i/sDeOPjRJGQcBTZ9WIB559+MVQNvRaA6/8r2bq0KyxNetEjYrypU0mRcAhhS0ZRm2nK7yS+//IKfflqKxYsXqwrrQv2kJ0kyLONkmuRZri6I5D3yXpmHzEvm6Qt/9PchzdbN23Ml0Ce3VkqwU4Iz8nCK6rJuF72djO1iHS/JM29FyVuyPwrr+zyHhewr8gh8uVC0TWq69bUv5Pv2eeMNNLjoUmxd8TPyslKQm5amU86m7Rh+7vkYds65yN66S4/LVxWG4JZNsHH+PAR1OgvnvP66nofvAuBydoHDaenbRr6vBPny96m/ZVvLFWStRGH2cjizX1XTM4yx1SP7lFyUyXozW2LYMQOAJmmlI8E+cxv5wpvjQjpwDnUWIDxEWhK6VEVBfQZV5gaqCoNUHALVKpfKg/xiKA+YDCjMQXiEf267qe/LDg12oHWjcFzSJQKD2wUhNiRPl3839wrBzefG4Lo+jfXn8uuyG8YiLCDHvewmDXBJt2gMbBuMyzoAV3V24bqe4bj5/Ea47rxm7mWr40NalvqbP8psT3LxOOk/L+OCDk1QkJ1Ro8G+rA8/RIBansPab6gqZyXAkOGnPg0LiuQWRRfST+Tg22+/V2kWvvnmO5VmYebMb3X66qtv8OWXX+s0Y8ZMTJ/+le6r7/PPp6u/M9R59hd9Xk1K2qvHy7CvpJWIlEnSP59cDEm/eIXqok2U3LrrQq78MKtSfLNorNlV/UCflJVmC5AF2x3oGZetz2VSJzPPaUJd46gLLhf6ti3Cin0hOJQRgBHd81X90YV529XB6yU5vWzfsRstY7LQrrFKjU6gQ+NMnN0yTZUTqiqsvrJU1QoKHZAePiTlq2U41TFydvN0nbdtkyyVchHfqABf/eh7H8cm+cFTfmi0tt4zzw1mMsdL4ETWk9SnapoZ5JN+qTo0KcIfR7VG7v8+RPquXchYvx45zz8PVzW7OKkOR4b7fC31XV9IOS/fTfaqyBAXDqUD09cGYNPBkvPucXU9FBEMDOlUhNvOKyxOnZqW7Iv+5lLn/cIAaXHhH3JN9slq9WWVcRcW4poehfoWxObR0A8S+OtlBTrYt2xPgO5/zE7Atm2I7NcPAYnuB9iFTJqEyOHD5WDQr73hdfmfOAUj4+MxcorlYXkybuQUlP/4PB/4c14nmTyMR1rKSVkoZaSc6z6d9SsiI8JwPC0LUQ0icPXgXhh8fifENY5R1+TACVXdzcxR17hql31/+hJdjsj5Xf6uWbNGX4t5Iy9XlT/Sx7pK8t58lcwyOVdNW758GXaqMkHKJanDSh9zQYFBOrAnKUwtU/4KqX+Z5bpc91fHwdQcXPeflRj1yq/YfzwbxzJqtlWbnHtu7VOI5jXQqtfqVNZXT5ZSpY0EIST5Si6UzAtr6wW2RJUn9ZqEfhH9ENYuTK0xlVmVVzctvgkvbnnRHQRTKy68SzhudNyIG5rdoOfni/q27BOqIEnPLkS+qvyZyxPmX2EdlgLK7G9GAj6SJMAnHTvLvLzlUgeAzMsM1EmLvvDgoNIpRBUyIYFqOFD/DVV/zRQSFKiDbvLLrjkfa4XSW/KWLKMVofwtnQrKJGlp6C+yXsvb3r1ffx1R6uTaXhWy2TuzsWspsGmmO56bpdb9WSpFq2PLceONaD1zJiIuv9w90wpIJVPmLcekFOjyy9IPP8hFyVfq4mMapk37DJ999gk+/fR/OsmwjJNpkmfevFn6PfJemYfMy5eLkaqWB57kabNym6SctOR2XfkM5smvc+fORq7q0dtCXU1Yt4053vxbXrKb7ivP+ViH5Z/+1cgSyNMXW8YFl2eQT5Kv5Luf/+abiOp/GbZtWIeigkzkS1BPpaKNCSjcvANBjRohsFUroHUcVs+cjsjzBuC8N96oYpDPzRV2IwqcFyIwUlVGHaqmrg7QogJ1ga4u0ByOUDgCm6j5l+6w1FV4DEV5W1Vh9l9jTPVIZ/lSoZIyzixbJMm6l3Up61pIaz4hr5s2barLQumHxZzuLW+PC9nvkZ+NhhEBaBEbrP9GhweigapQRIY4EaH+hge7+/2QSo087VQC4P7AZQcgLjoIUaEOvTwZl5uVgRBViwtTyw0J9P+y26iLpqKcdN2Kz7rscLW8cLXcUHXON5cdEOBCbkaqfoq9P/mrzLYjHVC/+fqrOL9DE+RlpasLkFx9nNWEgkGDELhwIZzGg3PC77wTRVJ2+Ul4sNzVoLZBUbB+yu5VV12BYVdciWuuuVJdnF6tk7Tau+66Ebj++pEYNepa3HDDdbjpputx8803qL+j9N8bb7wO99wzBg88cI8+v/pq5cpVupN0uZiULgfkgsxcp+atu/JaWhnkyd0c+YVo17IRfttxTE/z1S+Jwfhld4BenqTf05zIyDyBqBCjNZ9HMkWEODC8mwutGwVg+oZgXNi2AD/tUtupyLtzpZTFN1/cHpvUeehg8nEcPHQcx1KykKouFlVVQF2EBqh5OVHoClDJqYYDkK+GpWVUSmYOjqVm6fcdOnwcDlc+Luoi5xTfSZ97Uq8y68J2+685Tv5KHrMVuPS1VVM8g3wPDSxS5YRlA1SRXJhKy5jy0jlH1uDcdd+ht2N/qfFyC62VPLTCqY5/l9pHi9q0McZW7JxWLvQ6w70uOzZxYdMBd5n70CBppePCU5cVomkksOuoAy2jq/9dT7VD6Q4kZzhwZnMXzja+t5UEMq89yz1+/rYArP+9bMp7+nk4pN521VW61WHhWWfBuXo1guXWYi/4XP73vgVdZk2ANdbnN23GYObMMfBub/Gfih584c1DMVYZT1+WHwPOPPNMfb0rZcHh45mqHMpESnoOWsQ1UmWaOr7Ueb1356Zo1ygfeRkHkVPo1A9x2HMgRV93STBOui+S1sNSP5XgYUVkOXmqzJG8+kcXNU5a5Lk/Q6EqswPxyKOP4a9/fRq9z+mNPn36qGuqrmqbh+lgX1CQ/HgdrMtbub4uMs4nReq6u7I++ioi3Y10ffhHzFzl/vFNgnyN7/4ere6di+e+2qa+c822uiuP/GgggfOtye7z0Lr9Dv3afOCPN05lffVkcdckLHzuo08uZM2kLphKvVYp0BmI73p/h5ERIxFzUQwi+0UioLe6sO2hKtwXh6F5z+b4h/p3T9Q9xhy9V2pZdXzZj33+Oz755RBW7zyCVbsz8MV6B8a+twN3T07AWJXufne7Tne9sw1j3tmqkvr79lb9WqZLGqfyS/pinSrMdqfreX3y80E978pIZ5+6wFDp6OEj2LxxHVb88lOZtFLSsp/wq5FWLfsZvy7/GatU2rJhLY4cTS6eT1UCfQFO9627kmKNv6VTSKkUJT8X+0Gp7WuzvQNUgX72rFmIGDEC/WNi0FdViHqp8d2dTgxWFwC5qmBwPPccou7xbnvLr/qXDB2CoUMvwXnnnatOON1x99134dm/P+tTkvfIe2UeMq8hl1ysTxre8ld/H/IEXuk/Tba7PNFQgnzSrF3WnT9YA68mc9gcb/e6onG+sr7XOhwQoE4QRsDJTLpPQAnqybBMswzL36qQ/bLfW28hesBl2LZ9G/KLclCgKg0u+XVPrfMDP/2Evd98gQ0zv0T0RZei75tv6vdUW+iVyHdeDGd4P1WhOAaX8TCOwPCLENhgNIKixyIo6lo4Q0uerFyYuwWBLnUR76peB0zSKlRaikqLPl2xUfuXVLAk8CeVLNkGcgEurTOk8iTjZL+TvF27VvwUsop4c1w0atQI4WHBiHMeRXzjYDSJDlEVCCciQwP0hXOEqjzIr4bCmZ+Ow4cOooufAt9cdsmyG6jlntM6EJd0UvtFoNova2jZ0dHRCAkOQlxgSqXfO0gdIwcP/o5OnTrp1/5Uk300yW1IUya/jQs6NkHuiXRVvvje0ba38m+9FWFjxujb2LJffVUKVWNK9Xy5vgj3TC/QF965BQ7c8lEhjmQA7ywPwUNfOXXLB8lz+6cFPg/7QgJIR48e07c2SRklZZd0oi636oriW3fVePlhV/rpk1Z9rZpG4ectvvVzKpvojcXAX+bE4B9zitR5JlCnz3/Nw/lnmK353NtRL1X9T54+KOtcXpvT2zUOUBefsi+7EBHkQrIPXRQ+dOdViIsswrEjx3TQUm7XlEBhkboMKXKoA9MRBJcjGK4AtWEkqddFrkBVloehXatmaNcyDnFR4UjcvhHPPXqLMVfvScf4cpeDnAPMH4XM7yzDVuY09zaRvrGydYscaYHpbzUV5BPSguze/oXlpvt6peLRd27Cn/9xCe7rmVI8/tZzS9cRQ59+Guokivwbb1QvvGvRJy1gJAm5BW9fqnQbJP31uRATJi1nXKreBiQcceDSLqXX/+lon7FrSCu+8rQxpq3d78CbPznLpKI16/UxlzVlirsfwSef1PnlgSHe8q3874BxD3bBxHelf2UPRou/eDMZrfMSp4wsPU633HsCT4wsyfuEzK5Ui75FeMJ8j3V68biRfgk2Sqv9//3vf/jB5o4pGSfTJE9F5On55q37cuy7g2xFyMrOxfGULKRk5ury2Fo+9D2vNx4eOwrt4lsiKjoGR49n6Bbakkfeb85H+rytTJAqn+RHGCmnpO896b9VAnwyTuq28lp+oO5xVg/coI7HBx58SNeB5dZdmSbdgsj1kElKcAn4ye3AVXVBx4Y4u0208Urvour6Oki37Htm2lZc/NxPyLQ+wacKQlRZcUaMS7egK4+07pOuUEy/pwXgx+0B2H44QL937X7369Tsku9fmVNZXz1ZSq3Sqt7fb17UeiZzWnhAOP7X7X9YHrwcjxU+htuKbsMYxxi8cfQNbGq8CePPHK/zVoXnMs1kTqsry87Mc2LM0DZ4ZEQnPDqyK+4e1hXXXNBKp6s90/mSztB/r7mgtU4j+sYXp7uGd8Of1TweuaYT7rikLZrEVn47gP6lWQo8lY4ePoTp/30bs6f/zyZ9XJzmzHCnuSrN+/ITfPXRZGSqipI5H2kl6IvtWzdj7ndfYvrn/ytOM8qkj8ukOd/OVAVf9QMantvZTOa0gIgIdPvkEwSrymTD/v2BP/4RgXfcgeOvvYY26mLlzAkTdF5vyJoJUxXcsDBpiedOS5f+hLffetunJO+xzkPm6Z575apaHtiRvh2kObzMTwJd0grLrxe5HtvEul2sw3LilZOu+Yu+DJt5PFNVWd/vHi4J7ukAnyQjoCd/PYN88rc6y5fTuTq64Mg8grz165Gt9sesRYsQrCqAsU2j1YWUuph1Z/UbR8gAFATdjMCIS+FwNjJGqgpG0GUojHgaRZH/VmfywQiKNFqyunJ1UBD5a9yvq0j2UVmfUuGSJAE+uZVXSOVHLtBkG0v/KlJJkgd0yPqtzr7ny3HRvVtX/WthSP5xNIsORKNI9y+E0rGvrB/p8yMcWdixbRN69jxLBy7Nz19dXLZ72Q3Vsi/r3hDjLm4B+VG7JpfdU1W+U48eRHDuUdvvHaiWHVKUgYRN69HLz8sW/iyzyyO3MX489b84v2MT5GS6W/aZARO/Uxc76gBWG833Vs52VuxRF8KpgXhiSKAOPsgtqF2aBuOd5cFo20SNa+/eP67rGYAPbwn0edgXq1b9ph/wYbYElPIrPV0iZ+51ad66K4E+tYJRoOpLEiiRukzjmChsSvT+Ft5nvndg8U4HGkc6dHBu9qYi/LyjADGBGXBCLkLd5af+QVdakqhl6du+pK6mxsnZSMrZjQfUZyvM1/0XScuVPB9OJPL+N5+fgJRDe9VxKK1agxEYFKrK7AhVLkejUWwsmjZqiGaNGyKucSM0b9IYLZo2Vt83CL+sScTCFdvx44/z8Z+/P4jQkGBjrt6R/fPbb7/V5wQ5H8h3tZLPZtLnZ5XkHCwX13JOMaf/+OOP+oLdX2oyyOeNAlVPzbvtNgTs24cIeXr/rl3GFENOjg7yBU+ZgqKWLZEjfcZVgTpEMLxbkTpWjBEGtYoxrGuRDgh+td4/x7hIz5EAYkCFSc4FkuymWZPMyxvS4kdkVXBHo2xvIQ8WGtKpsEzKbdNOH+vBH3yg++oL+a/7rociLx9YV6Xyf/ALmIrR7uBbsUV4YuBEdJmapINTSUueQW8ZnTgFEyZ2wVQZp9LULjuhe5Nesw0dXjHyTr0Fn45+Qs3BlIgpI0dDvck9XaUXBsv8d+JB43XSkisxa0L1b/OV4/tvf/sb5s+fXyrYJ8MyTqZJnspIGSFJjnVJUn4cPp6Go2mZyMjK1d0pmMxriozsAuw7Voj9R3Ow7+BRHagz32/OT+qeFZI6ggT4jCTljvu23ODiW3N1kuCfGi9lk9yqq1toy3vU/ANU/d4sv3S5pXZLvVz37lklHZpFYMHTF2Hy3WcjKiwQTaNCkDLlSmRMvQpfPny+buH3wtcJRu6qadfYhWcuL9BP4S7PgwMLMOrskvL3nFZF+j2eKb6hb2XoqayvngwexW4V+ndRK0H2H31Ba/5VyT2p9N/OjTrjr2f+Ff/t81+8e967uPO8O3WTVnO6z2RZ+k89WLbDiRW7i7BkewEWb8vHT9vzsXJXUblp+c4CnZbplI9lO/Lxi5GWbsvDIjWPRWoey3YWIvFw5ffaS2FmXkz7K/l6cSAXFOtW/4ot6iLJl7T+t5W6QKwW2b76T+Xbu1Hnzmg2ezbOmToV5773Hs696y4EzZlTPN0b0tlnSEio8QuOO0nQwv1UXXeS+cmvRtYk46x55D3WeUgeqcB7y+fywIZs63/961+46KKL9K+N8kTUYcOG4fnnn9e/mvmD3ibuwWKyLsx1Ln/lhCsVoePHj+un/Uo6rgprucgx81rf4w1zH7Z7rwy7T7juiwdpPSd/iwN+6uRbPOyRqkL2mUX33osjS+aia6ATQQnJiFDjpU2r7P0yHLT9ELoGB+LI4rlYdN99+j3+4gg+G4VhDyMw4jIEBLYwxhoCYoEGz6IoeCicYe4n/OqWf4UH9XBVmbdfSZJ9Wx6yIQ93kVZ70nJUKjjSkkP2fangybi2bdsa7646X46Ljh07ojDnBDKP7ke4KwNRQXmICMzXFYeAnGM4evgg2rdrq1tLSR+aUlGXX5X9gct2L7uBWna4s+aXLcd877PPRmZaCg4nJajlZSIqWC03IBfhjizkpOzHvqTdiI9vhXXr1vn9ewt/lNmVkYcZTP/0f+jdNhY52Vnq+PP3TweqrPrkE2S//TYyNm1CmCrXVGFrTKm6+dsc+PhXF2770IFPV7lw7IQLqTnuX+837itAhOsQflx3GD+uP4wF649gwYYjWLTxCBZvPIrFm45iyeaj+GnLsVLp5y1H8f3qw8YSvCPl1v79v6NDh/Z6n5Hyy2xFYp5DSp6668KhlBwcS89TF1S5SDmRh6aNorB4g/dl5wODoC6+XYgOBz64MxzTV+fj85XZ6HvGCbVsFwrlh1yjjier2SU/FKnPYZ6zJLnU5cLX64oQ7CzCw186sFkt/nCGCzPWeX++bNGsMZ5/YgyS9+5CepY8pA3IzgtAaqbaFmpeR9JdSE5T3zdVLphzkZichcOp+fpHSqe6CHvigT+gS4d4Y27ek4eRmevX/IFPknnu8CTjJJ/UFeQJvXKcykNpJBC7cuVKI1f1nOogn0n6/itU5YXz11/R4MIL9V0poU88gfDRo3Vr2pDXX4ercWNkT5kCV5TvHWYdO+HeP7LU97UGwZbvccDaCEhuGfaXzYcC8O8FzgqT3BYuyW6aNcm8vNG+sfvzbzjgQH45T9aVFkdiUMeSJ4pbU+zER+UkgrC//AUNundH4A8/6ABr3q236vd5oyrl/+Bxz2Dba5ZAW+JubOv9DMYNNl6b2rRDF3yK0fHuQN7gF16AztL7Sgwx79EdfCluwTbsNrsDT1yAWfCYl8xfz8do0TdwItasMYKG1eQZ7PM1yCe3ZZr9dpplhS4LUjOQfDRdpUykZbqjv1L/lx8t5MnkX688hlxXIPKKAnX5Ie833yvDkry55VP68pYgn9RdpdzVr4PkIRvysI0gd8u9IHmgl6rjS0s//VrGyw8n0vIvUAei9uzeg0ULF+CQuubSgb5qnD+l1bq0ErxbbeQtL1+Cq/s01+MjQwNx7XktsO5fFyNVDvBq2nnEgaW7AvDz7gB9C+6KxACsTHRgVVKAfpr1mn0BWGfc5i7HmfTzueWQQz8EZ/thB3YcCdDzkO4A5InjvjiV9dWaVqoEq0r/LroyYEkmc7i8v3IgmNFuuxOtN2Re1iTkFzdz2PpXDnTzdU0tW5jD5f2t6rKjw6Tfu2CEqxQRFqIqPmo41D6FhQapv2aeIHcfedJHUIg0B3bqgz4iLBQRkkfllwh9ZWpDoE/WoVnp9DVVlyzbmkzmcHl/5XtWaV9zBOinvS1ZsqQ4SSuk6667rjidf/75+km21iTjrHnkPdZ5/PbbGvlwxkIqVpXywI7cRiAnPDnJSj9EEuyTdSHB7jlz5hi5qkfWtzVZyWtZ/xL4lECQVNzlV0S5lXjNuvXo0qVzhe+viFwcefKclyS7fdIM8JnTrfl9JQG7Bffdh6NL5qGPOr4b7E9BAzVeqjVZrRvjRKvGeljGNdh3DH1U5eDI4nlYcP/9/g32BXVEUcRf4Qy/GA5nQ2OsRdgfERDYDgHORur4z1O7efV/xZd9SdafBLVbtWqlK0lWEuST/Vj2N388/KUqx0Xr1q0QGx2FwrwcpB9LRuqRA8jJSte/GHZo31ZXAOUJwHIRKd9H9s/du3cb764eLvvkLltu1e/SuSNatGiGjNTjOLB3Fw4k7ULKkWREhIei11k99H5YE8v2V5ntDWmJlpeXj9wc962f/hSozlUFAwei0HjSp9zKJq2Oquupy124uY87yHLsBHA43d2qTwIQUUHZaN4oSneu3rJpLFo3i0Xblg3R/ozG6BTfCN3aNMFZ7eLQq0Mc+nRuhp4dmqoLq2BsSMzQfS/6YuPGTbpvPimbhOwDco40zwPCvHVXyuegwABVj3OnEDXcOCpUFbZO7Drg3b2zTSNdyMxzoHm0A/07BqJ/p0D0PSNDlZXq3OMsOReV/us+L0lrBvn7zfoi9G+bj2t7uZBw2IVdh90BP3mStS+uuvQiDOjdBgGubASHRiA4LELVDRogskEkolRq0CACDVRdIbKBGhcZhXA17HTkomubKNx5y9XGXHwj/W7Jd5B1LGRYkqx3qRvIeBk2t4OME/LDkHTWbiZ5jy9PxC9PbQnyCZdav5mzZyP7pZfgCglB4OLFCHn7bQR9/TUCDh9G/vXXI0OVUwVV/PHgY+MBFZsPuC/STXtTHPoBLKavN1a/LmBqEuFCv7ZFfkkyL280CAH6tC7CkUwHPlrlLBPsk+8+Z4v09wWcq/LZKbjwQmSqOnH+8OG6f768O+9E5sKFcKn90BtVLv/bjMErV87CuwuM13t2wv5ei8F4QZ2rkpIuxQ86SGdtueej3s9giZ6XmYygoR9Yg32+BPmEXENJYwQpByS4bwbqenVphd8PHcOhIyn4dPZaJCafwM7kfHz1awZmr01HTlEIYlR9Qx6eMWxAj+IfFXbs2KEDh7Jdzj33XGMp5ZMWedKnt5Q1DlX2Wlv4mbf1SnBP8pit/dwt+pz6Gufdd97B66+/hu+//x4zZszA6t9W6/K8OqXL3PXJOtgnWjYM0y37rK0aJeA37pI21b59V1rz/bAtAB/96sTUlU78d4UTU1YE4r3lTv0063d+ceIt4zb3N5YG4rUlgboc/c+iQLy8MBAvLXDi/xa4h1PcPQj5pGWrFgiLDj4l9dWaVCYC4mv/LlKUmRUTz4tU63jzr5xA5aCR/knkXnmdsnzoOdHCc9my0qdPn44vv/xSP4VUliUbQQIc06ZNw+eff+63ZaempOCrr77StwNIf2PSUkjIbS0S8ZXly3Tp12Pq1Kn6l8HqLLthZBAahDsRHRGAqDAHYsIDEB1pn2Ii3PncSYadaCx9FYVJ/xhFiFVnpKhwh04NwgL0vCsjt3LI+rSmByeMx7PPTSxOf5v491Lpmb8/q1OnLp2xX34VVWnDxo3F75dbRKoi40SmqiCGICgkGIGqwDOTMygQAaqwc8j9AWp/+Onnn7FInkyrUnUrZ577mjksrOPNv/L9qrO989UFVO/evdG3b9/iNGrUKNx0003FaezYsXjkkUdKJRlnzSPvMd8fGRmBs88+W8/bW9Xt70nWwXfffadPetKqT5Yv/fW99dZbOugmTxGWFlf+Zt1GchEqy5df4+XELZ3jnn/+eXJGRaf27XQLMNleclKWJCd4b69bK7rANT+D2aej7kdQDZsXGcXTbZJdALE8ciE4//77deCuvzrpx+4/poN6OsjXtgWeyi3CU6rSmdOmRfH42L1HMCAkXL3nR/z4wAN+Dfa5ApqjMGKiWjeR6mTobnEn60knBMEVrNa9M0odq03V33bGu6rGWqmV5cjr4mWpJNtTKlnyUBp5AIe/eHtcXLX3KsRsi9Hp7pS70aRJY8yK/A49s3qgS0ontD7Q2sgJ3HHHHfpYkPOY/CIrSSoV/iAB9qTIRHwa9ola/rfIjE3XtzGbamLZM9NnIs+Vp5ct37tVqzMQ37oVmsU11cuelzkPqYWpNf697ZZtqsllR6plyzK7du6Mbt26oG3beDRqGGtMLb1s2Z/8tezqltneGDFiBAYOuRSzf16ryzR/Ch8zBkVqnbmsQXl1gVOkXjdQ54/qUNdNeGiwC3+9TMp5F1JOuJB0rAiJRwswslegDqA1iQ5V9SWVYkLRNDoMTeVvjPwNQxM1HBkehD2H0vH9ij2ICCrEvcPb4uKeliePV0LKqa1bt+u+c81zgZRV+mJN1WHUmUMHgp6cHYylOwP0uSDEKZ2By4NknAgJDlAXdwHo1jYOi9Z7/xT90ECXvh3pSIYLP23NRK8WeXrZZiDP86972P03IwdYsTsffdupz+kE/tTfpS/KPhntQv8O3p+rTM8/+SfkHt+NEHl4myqzIyLC0CAiHA1UHSVKXZA3iFTj1Piw8DCEhgYh7feNeOP5x/S50VeybuUcr7+P0/1kdrntSi7A5eJZAtbyGcykb4dT4yS/1N8lr5xHZJwk6R/LV/IU1QbnnYewRx9FbkpGrQnyFVPfNe/uu5Gu6keZc+fqwPoJdc2UnpCArPffh6uR0R2HH0jA6wN1Ab8l2YnPfnPqYR9uMvFKhyYujD6/sDj9oY+0mCv0Kkle63tlXt665ZxC3f+gtEL6+1wnPl/jxHebnHp7S4BCvucfdB7jDTakdWXWp58ic+lSZP/nP3Cpuosvqlr+txnzIDBxojvAJ63y1szCAs97aROn4AndmZ4E/Jbgmd6WlnumRT/gU2nhZxbfbYbgSkxEqW4ApWXgGo9xfmYG+3wJ8pmk/2a5/pLyxuz+5a7rLkJOVgaOqmv5HYkH8Nir8zH5u634/egJfX0oD8TIyyvA/p3r8aebBun3yHtlHuepY/+ss85yz7wS+gcWR4C+XklWdYItW7ciIz1NB/ak/JLbc+UZAHJHkNl3n5Rj0ufqls1bdOtlubaS7yxll5R33pSbUk6WJzYiGC9+k6DyGCOU1+bu0rfrmgHAs1pH64CfnYrmbSW/X40fVAh12q0yufy/56JC/VAcX3yb8S3id8Sjx/4eWBG6/JTUGWtKqRpadfp3se5IdsPyV3Z8WcaxY8ewd+9eJCTswK7de7B+0+ZqXYSZy5Cnp0hfYJdccomu4EvHmxLckyi6RGL79+/vt2V/8skner7yFFE5kCSYKMEkSRLkk18EZGeQoJ+0qpo5c2a1lh0VJveMuxAV4dRJB/BsgnySosxhndeBGDUcFlKEoIAiRDcIUdMCi4OA8qwKmXdlpCNPMxBiJjl4pbL04/z5Ou3etav49ghJEuSRdSOVowhViZMUHBJc/H6p8PpKtvW9996LG2+8UQeybr755uJ0yy234A9/+ANuvfVW/PG2P+ogV59zzsE5qsA+luJ9fzYVsdu3hTksfz338+3bE1RhvQ2//rbG6+0tlUzp+FkKe0kSsP7ggw8wRVXA3lcVr/feew+TJ0/Gu+++i3feeUcnGZYk42W65JMgs7xX5iHbKy0tXc/bG9UpD6TgkxaJX3/9tV6uPLHxmmuuMaZK94V/1AFyCbD997//1fnltbcnhFLUOrduCysZL/uZ7IfyfWR5BQX5WPnrr7pPILltwKz4y8lRbuc9evQoctT+6w3d16T6zLIcMwnraxlTHOQz/pab10iFah/y1iJ18ZCkKobDQsPRZG9ycTAvr31rPJBbiKt79MbQjt1wv7qwzW/bqnh6k8T96j1hSFv+k55HVcn6lX3ePN7l2M/JC0NGwOPIKWihx5lJphW5VHkjT+R1xqIooLsxl6qRW3SlkiO37UqFx/wskqSMkQs38zZec5z8lf2gSvua4stxIf203hN7Dza034BXm72qx90afat+/ckZn8DpKCl75QLzUbUd5LiXzysXmbIvyjmkqp/VtCp7FR489CB6hPZAw8CGmJE+w5ji5u9l33PwHtx98G7ku+x/VHg8+XHc8fsdOF54vEa/d2Vqy7KlIumPZVenzBaq9DGGyif1q/6Dh2DGD8sQERWrzu8R6pzin9Y4YQ8+iHx1nihS9bUyVLl54rvvEHnRRcaIqru0cyFGdd2HSFWn2vJ7IXo1z0F6dj5y9UMi3H3hSfVErmEkuVwOHE/PxoK1+/DFgm1wIh83D2iNs9rEGHP03o4dO9GxYwddXklZL9vaDELJxZpc6B3NdKDXGcE4khOGYyE9sSclBGFGiz4J+IUGBaBdixh9++tBaZroBWlJ1DqmCMu2Hkd2vgM7jwUVB/I8/+oHSFn+vrqwELf2KSzeO0b2cmD2fQ60qWL8R1q2vvTkWOzcuEjtP3L3ibuOqFvzqSTD4WGhCFXTdm9ahOcevQMx0d61avIk63jkyJEYPXq0vki766679A+i8sR/mSatKmVbmN2fSJJxsj26dOmi88r7pG4p9U5vL9g1tROFPvWUvgU2ICEBwapOFtGrNyJ/XlyjQT6ZY36h+6+QB5+Yw7JvSxJmPpMrMAg5516A/OuuQ/aQS5EX21hPN/NXhRxHVnKL7h0XFKJbXCFuPqdQD6vdrEZ9sjoAD30Z5FWSvFUVqa6nnr68AOfHu3A4w4GFCQH4blOAvr1Q+uV7dEghzo2vxsqsRPXK/8F4Yar5kBsZ7oKJAy231spo6UNw4kD3uPiBmHXlKxgjAb01EzFQj1NJuuMr9bTdNhjzyjPYNtqYrtITi9T8l5QeZz7sw58k2OVrkM/qHHX9KOdnqTdmZWXi338eqSrWGTh+RF0nHD6II4eTkXxYXeftP4iVq9ZjzsyP8dmk+1X54Q54yXslyOcLqSd/+eV0vK+u4b6c8RXeevMN/Pzzz8XXBup/ulyWQ8Y9To/SaeDAAeoa8b+6vJMGDfJU3ji55lQTK6tTVDT9vPaxeH9hIoa/uAyz1x7CwVR1PaWuLZ78fDMGPLsUu5IrPgf5Up9pHOHSffGVEzOskJQjY/sV4qwWvh1j23K3YcyBMegZ2hPdQrth7IGxOFRwyJha2qmsM1ZVmRKtKvf3mzuflR5nkGG5sJId+MiRo9i0ZTP27tunDoYQtbPkopE6gUuz+KqwLts8YUuQTb6DNNfv16+f3jBSecnNzfPbsqWyK8G+OXPn6gNZliW3DQ8fPlxPlwCgBB6lPygJPkrQpzrLjgqXp48FoEGEA9GRktyBOmm9Z006AFjckk/+BiAiFAh0FKqLCQnyuYN/UWq8/A0NlZZ9lR9R1gtoM8lOvXnTJnz91Uydtm7dVpxXLvrlpCMt2WS7F8rT5FSSloHm+yWfr2R7y/s2rN+AOd/P1unA7wf0OM9k7oHyHmniXF3Wfc2kxxlk2Lqfb9y0GTt27lKfRW4NytUdS3u7vWU+R48e18FiSfJY+M8++wxPPPGETk8++SSeUhXIv/71r3j66ad1kmFJMl6mS/r000/1e93zSdcFki/9KflaHsg+MXHiRHz88ce6Fa0UgnKLrNyqJrcWmyQQL332SQs72UckIDl9+nQ8/vjjet/xRektYk/Wp5yspVXjgkWL0VBtB6noy7aSY1P6WpCgrATqd+7ag+xs79p9y37mWbib+4T8tQ7rIJ8kPcbNzCNJ5iWfU5IvJ4wDK1agcWQYGh1Lg/wQJim3Qxvcn52H4d164AG1HR6bORMD23XEeHlyY7v44nyNjqWgocuBgyt973dIPqdsK0mybs1hWaeScvOcyMlroIfll03zBwAU/o7A0POQ6+qHvHx3eSDf3ReyfmT57l8yVZkWFaXLeSlzzM8if+VcIBU9GZYky5L3yfKsw77y9rhQl+6ID45H66DWaBLobvXTIKCBfi0pwiE9J5aQc9if/vQn3QeI3EIilXZpDS4VPfmsVbU6ZzUuibgEwyOH4+aom/F448eNKSX8ueyX415G1+Cuxiu3QYmDkFnkfuLdM02fQd/wvnpY1NT39kZdW7avZXYxXQ6pP+qfHFNSl5Ikx5iV9GWzfO02xDZphoZN4hASFqbLr+oKVecrac2Sf/XVyFeHpFwgSwf9ZpJb4qRVX7a6AIq43HioTxVJ6RoXkYPJf3Dhsq6F6NOqEIfTcrH3yAn1Nw9pWerCLk+Vlaq83H8kE9/+shMLfktEfKNg3KQufju39L2vMtOGDdKht7tVmFnOu4Nr7iRaxbrQPvYEdh0pRBNVb9t2LAIvLwpG4nFVD5Tbd6Vln0rndm2FReu8b9V3WVcXNh0JxxOX5GPV/mD8a2EY0rLdAT338t1/dZBPtyAJwNZkl/7hq7OlYZFcUIVVs0p1Ts+uGHp2G+zb85t+uIa0iJFbdqVVX7jap0LUuIP71uPs+GgMGVC120YrolvHqH1b9nE5d1iTud977vu+Clb1oJA334SrYUOditQ1QUT6UTwy5VZM6JZcYy358goceGBGEDYecO9P0mpOxunhlU5M/dX9vaTl6P0qn7QuFD8mBOCfP7g37F++DcJHqwJ1+nVv1YNf8g2/2ejEkl2l5yFBMT8UG15ppE6zrWJcXiXJWx1yC++YvgV46Zp83D+gAHdeUIi/Dy/Ac1cUoFMT3+savvK6/G8zBjNLBeSUwS8gyRwnw0nGbbUSAOzSTo03b911p5ljjHeXug3XuAXXOn8ZtrzvBcngMa54ubXI4sWLdd1S6opSVreMi8X0SX/Cxb1b4vDvu7B1w2qs+mUhlv7wNRrk7sDsyePRtGGkvs6Tc7v8yCz92fpi8aKF6tppum6gIeWPXJ/k5OTqa2e5C66oUNVdVd3AXYct1MPWhyk1aBCJkSOvxdm9z8ajf/4zhlxyiVfXExXlkafOfvCnc7B021Fc8a/laHHPHDw9bYuetizhOHo+tgDvLUhU89CjyvBm+VZyHN6njp2KnsDrScqSMX0LcfYZvh9jzxx5Rp3TAjClxRR82vJTuBwuTE6ZbEwt61TWGaui1Go0m65XhZTXnpU962v58nL/uFxMn9HiDFwyZAhO5GYjWl3wt1Qnv+qwLlt2KAksyH35V155pf4rrZnkIk8irv5atgQnxowZg0zjgQcSyJAIrzyq2fws8lcOPskrQZbqLDs6TCpfqnIV4lCVIrl1Qx5dX6QOwLIpyOlCkKpABKvkVDusdLQcGi599wXo91qTVOxk3pXRhYtcKFuSrGs9XhWCkvLzS4J71iQX+mYeaQFlvt+Xh0KYzALjcHJycQtK2a981cOXX2UtrPuaqbz9vHnzZrhi+DB10VKIprENfd7XpEmwFPKShOxj/fsPwNdff485c37Ajz8uVieRn7BkyS86ybCMk2mSR/KafZLJPOTXh4MHk9Wr0p+/PL6WB7JtJk2apIOKEsCTZZp/Jfjoafz48TogI8FAWWfyVF4JBD3zzDM+FZbe7EVy8RIYGIS9Bw6ie9eu6Nq1m16GlA2yXPmVXgL20sfbwUMH0N/LViPlBYms+4QMFyf1OUq9NpKsB1kHEojdvXsPmjb1/lawETNmIL1pc/zcvg2KVLmS1qEdnsnOxXlduuGhadPcy1Tpia+/Rqc27fB8Xj7S2rdFkbqo+rlta+xzOHHN9OnG3Lwj606SfH/5awbSJMl3MYN6ZtDPHOcoSkRgUFNkFXRANq7U75VywZyXN3S5I5UaI0lFTOYv+7d5m4W7PMovnr8Mm8sxx1nnIclbvhwX9zS8B4PD7XueOSPwDLzc7GXjVQnZV2+//XZdebjqqqv08SHHkFQY5XtWxVUNrsKszFm4ef/N+DD1w3Jb2vlr2REBEercU7qV13VR10FdOuvhcEc4Ah2lL6Jr4nt7q64s29cy20rKIWdQEA4cS8MfR9+Jdya/h7ffnYypH36kH55kJf2mRcc2Rli42s7OQP3e6gh9/nkUtWmDvFvcLUqkb6yL2hVh57EA/LbPoSv+cludKFTld85zzyFi1Cj9uircdZcCNI4E7h/kUvUm+TFQ+jwKQF5+ITKzC7B2xxF8+sNmbNp5AP26xGJU/3i08bVDOg/79u1Hs2ZxugWbbPecggB8uSkMe9Pct2JJ8EnWpbSgemVJEX4/no99KUU4lF6E7YdcuOt/RViSIK363En6CdxzKBOpRufwlel1hgv91XpdmBSNCzqG475BTrWcULy3LFBdJBpBPrUu3P32uV9P/C4PfxpQve1bnicfvhvJm5YiNeMg5DY0acUnQT4ZzjxxBEmr5+KliY8Zuf1LLqLl+8lFmyRraz4zyCcBv+qQQJ84MXs20tWFe8aWLch94AGEZaYiYv5sPa2mdGvmwuIdclu4MULJK5QHRQDp2dKSz71Nu6t8S/Qt4sCBNAfCg91vaBblwpgLCnTq28b3i2fTff0Ldd91EvQ6p1XJh7miexEiLA9PluXUlKvOLNQt7bxJktcf5PbDs1q4cIFad83VupTgeE2rTvnvadETltZ20kpPR+fqD2kgIT9qSaMEM8mPAIHqHPHAH4fg+3cewLx378X3b96N7966Fw/dNlRf/0odVOq8UsZLWdK+fXv94C1vXXb5cLz8n//g4osv1tcl0kAiPCLcHdCTBjNSf813118L1TlMumKSu5Qk6Oee7q7PustyVcdSh5yc76zlQFUM6tYYv/5zEK47vwUaePTrn51XhKSjWeq8Vc2FWHRuqsqfviWtyCsieUafV1Bu35cV2ZG3Az9k/oA7Yu5As8BmaBrYFNc3uB5TUqbgRFHplorS+ZBJ1u+pqjP6qkyEx+f7+z0qeJ4VPnktO51caKWmpunb4xo2aojVa9eqE0qQ7jC7ymyWddttt+kVLwE3aV0nUVe5eL7sssv1eH8tOzomBr/++qvuqyY6Olr3ASWt/MQVV1yhD/AzzzxTLaO1+v4utGzZslrLbhDqhDq23dS+lptfhJTM3DIpVdKJXKSpv+nqr/wqjQB1UOp1VXp9CZmnzLsy0gosXy6YLUkKnHxdwLgvrKVw8wzyScrNyS3OUyj7gvo7SBVi/uwXzFf79u41hrxks69Zee7nchw1atgIK39bjQbhoT5vb6lwSkfne/f+rtOJE+6WSh07dtJ9PbVt2wZt2shfdfHRprVO7mH3NBnu0KGjfo+815yPvJZfyr3lS3kgv25s3LhRB3Ref/11vSz5lUNumZc+cjxJYEZup5HjU4Lkr732mm59JYWldHbqLbnNVVrUyvEo75PPK8kclvGbtmzF1h07MWTgQB38lBOffE45MUs/irLt9u3bp/t1vNQ4jr0hJ1+vyP6iknWvkX1GkqwnuaCQgJUEd1PTUtR6aGDkqlxkixa4btYsJKSdwKJ2rfFfVdFo1rkrHpkxQwf4TDL8zLffIqxdB/xPffdfe52JhPQs/V6Zh7fclYayyV3xKB38k3UsJz0ZdhUeR3jQPmRkt8AJ103F77PO0xt275PjRUhlTJZlBvN0maOGzXzy2cz3WpnTveXtcTEgfAC6hHQxXpUW64zFqCj7YIXsF/IwnU2bNulzjATM5dwprcZlf/WVBBVXtV2FRxo9gt9yfsO4g+OMKWX5e9mmBxo+gNCAip9+XlPL9kZdWbbPdTiD/KIdGhqOzAInPv7+Z7zz+Ry89tFM/Ovt/+HSYVcW360ggoJDEKyOOWdg9YN8Ia++Cpe6KMobO9YYA92/zm3nFaJ3yyKcEeMeHtKppL5QeO65yL3vPv1k0KqQI10uiCSYJUkCfcHqAi5QDe/YdwSzf9kKZ2E2br+kLa69MB7NG/rn4nn9+o2Q/mHN4NK6AyHYmxKA6euC8eycYLz5W0tMP3AB7p0ehPDAEBxKc2DT/kIs25GPxKOFOLdNAK7q6URosLTok5Z9ARh4dhssXe/90/96tijADb3yEBLoQLvGwBs3Aeeo+d7xsQNzt1ha9Kk047dCnNe6EE2qF98slwQ23/rPRCz+ejKys07oOk+uOl/IA15+nPE63nj5OXVh7Z/bwj3J+pfv6L4gdhZvExk2x8vr6nD8/rvuX7KwY0djjKpLGw+YCZBpNUh+6O+ujiPzSa9iw+8OPa578yL9xEoRoU6doUHAoh1OnG158q0E/aTTe0ly62lVSavFltEufSteRS0Yq9Mvly+k30tpLWxNMq6uqGr572nwC5bWdhU9KMOuZWAdIEE2udNH6oVSFshfswskIXVJqV+a9Vzz+lfq8HJdIa+FPPxPbqP1llxrN2vWHDfedDMuvfwy/Pmxv2DQoMHqfFXyA7Zcd8c1jdPlkx5n1HULJI9KwaHBaNa8ma77yueUpD64sYSq635GFGZMOB+p/70ST47orMe1axqBpc/2xz9u7KbPo/50Tit335qV+aOqH/RtW7Xvl+PK0Xe6jG843hjj/oE+rSgNH6R+YIwBduftRq9dvbAse5kx5tTWGX1RqnSTnVOCYf4mB4bscBLpjoqNxS5VcESqil3bttXriN2O/Pogvz7LvfWyESTAJkE4uYi+4MIL/bZsifRLFFceLCCkcDUPZgnwya+BcsuuNOGVg6x9p07VWnZcjFNdqLtwIqdAB++yCxz61+ByU2EAsgudOp9E2+V++qxc9V6PpOo0et6VkV8yrK35JEmhJoWLSX5lsAb4zCQFni6EVNIX4Oq9+9S68OUWUn8x+1eRVmfVvUDxZN3PpRPpnUmJiI6IrNL2lsrtxRcPxBVXXK6TBAplnxs8eBAaN26oUiP9t1Gj2FLJOk3yynvkveZ8ZJ5SkfWGr+WBBNZkG8vxJ63kZNvLCfDhhx82cpR1/fXX6+CMvG/WrFn6FxJ5z/Lly40clZP3yjFnTT179tSd6Uo5IH1pXtSvL0ZcOby4j0TZVuY+KSfxbdu34+dffsHV6pj2hQQZZR1t2bJF9zMoSQp9CXjKL4LSN6H0/yd7mnVvs+57sr/I51n601JdbnTu5D6B+sIM9m2NjUCT/gPwqEeQzyTjnvr6azS+aAC2HE/3Ocgn5LN7JvNiyUzyPaQS4r4VKkRdmB5HsHMf0nM6qhPr+SpPyUWWdZ7esOY1ly1/ZR3KsCzXbI0hyXrhZuY132+yG1ceX46Lfxz9B77J+MZ4VZpUHG7cf6Pxyt5ll12mK9qDBw/Grl27dCVy3rx5OoDui335+3Qgp09YHzzZ+Emsy6n8F2Z/Ldsk37fQ5V2Z7+9l++J0XnZ16nBSNoSo4zW2UVO0bNMebTt3R/suPdA8vgOmzfsZlw2/Cvfcc4+q55yN9Kw8BKpjy6H2qeoInjIFDnXxlDthgjGmtKg929B2rfkoyNIKBg1C/qhRCLvvPmOMD1RZIbc56ZZ8KuXnF2LDjgP4bslGtIgOwF9G9cAV57dCjNxf6Cfyg1tS0l788MOP+PLLrzFjxkwc2TATDTN+RWbacRxOz9dPIj2QHoiDqUVwogAXtivE8RNFuoVfTEgeekWsw7tfrcBbX67AGzNW4vUZK/Dr5r1Yv+uosRTvxIQW4fzW+Wr7uV8P6gh8dqcDyemF+MOUfGxPdiFX1R3fWZyNO/u589SUTm1b4abL+mPhok+QoS6OMjNPYOkv0zBy8AU4q3N7I5f/yflCmBfCZn1AXxQbqhvoK1T1DzVThLz3nn7tUHWi4KlT9XBBNR8s440B7Qvx8253az2xep8DO48EIOm4Qw+bBnUoxNKdDvRoUXKx3CLapVvjSZLWgXWFtF6UB2RYk4yrC2rqGr6+uvrqq/V5WMqEbdu26esHeS3naCFliFmOyDjps14aGUn9X37glvdIAMhbcs300y8rsOq3Ndixa4+adyA2bd6K39asxa+r1mD1mnU6/bZ2gypMgrFzz16s27AR69ZvwvoNm9Q1x2Zs2LgFe3YnqbpvuLou2YYtW7frecj5pyLm9/CGdEMkrfruurgN1v3rYlzYueLOWn2Zt6eLOxVheLeSMtnTLX0Kdev/quoR0gOfnvGpbs1nOjPkTFweeTleP/46corcAdv3Ut7DscJj6B5Stl/xU1ln9IYjNTW1WiV4WHi4bpnleQFlDkuSg0R24N17EnE8PRPNGsWiZcuq3TJrVZ+WfehYOjbtP4GcPP82bw8JdqLHGZHqs1Xc54wEsCY8+BA2blAFjOGBCeN1qywhFSQJ6EmQxqwwmZWmtarQ2mA0XU5NT0PTxu7bEu8Ycyduq+QX+SWLF+OHeT8Yr9z+8MdbsXXLFnUwyW2o0h9iV8TZdN698McFOuAkdu/Zg55nnaX77JLgVwu1Hbp07aoDwN7wZXvLg1Z+P3wU7c5o4Zd9TciTpKWlm5x42rfvoAOBFZFm3PLrwnfffatPPPKrQ2UkUHfppZfqIGhVTJ8+HbNnz0bDhg11gEeCXtJpqfTFVxFpSScdXksQVoIy0sKvTZs2uo/BqjIDPdbtYyYhJx7ZVvLwjS3bE/Rt8f0v9L2T9wEDBugH/Zi3TLib9rv7jZN9RchDYuRHAGvAyfpZ5FfCVatXoV3bdnpbnS5kf7f+YmgmWbfuv4VqRUtgp0h9V/mhIlh/Z3MdWJOsG3N9eKNkGe6KlplknDndk7nOzSTLtf4tT3WOi1v234L+Ef3xp9g/GWNKbMzdiCuSrsDeTpW3LpYH1Ug3BRJElh+upLNl+eutN4+/iZkZM3Wgb0XWCn2bwu0xtxtTK1aVZT+Z/CSmZUzDNQ2uwYRGE3SLQnnycFKnJEQHROOFoy/gs7TPcGHYhXig0QPoFuJu5eKput+7Ok6HZfuyb07dFoxejSsOtLqPIXVMq+NahuX4zsk6oTsfTz2WjK5tWiAp+TgiYpqicbMW6rwYUeGxI9YddWJ0l9K3sgT++CMibroJ+ep75Vp+CHKpMrQoPl4PB6jzV4M+ffRw1tSpyDcumByHDyNAnQtNgXPmIGTyZOTdeity/vpXY2zFDqdm46P5Cbisb2es3Lxf1a9SMaTnGejb3eYhIH5klk8msywSUmKlZKnySA3JgzPunlaAyzsH4eUf5Rd5F96+MRdtG0k5Zynf5I96e2hwICKr22me4fgJ4KX5qnw66MCjQ1wY1MmYUMMuG3ELWl1yC4KDw7Dtu8lY+N0XxpSaIf1vSWBEzttSV5DzgJBtJPu9XKhLfVE6tK8q59atiBw4EGpmun9Jh/zAnJGBgr59ceL779WGrZkAkwRpP1gZgHsuLMTinQGYud6JicPz8eGvgbj9PPc1xLu/ODHuwiLMUNPktlnpr092of9bEIjHhhQU//XV2M/d+6HcruovJ/IcSFfX2zJP6e+uOjYcCFDzM14Y5BZiXzvwrw18Kf8XLFhQrX25rpIuvYYMGWK8sid3BVkfqrFs2TLdB7+UG0Ja2cm1hPTXZpJtY33tjU8/n4GZ385WxXrpY8ddT5XzhPSfq+rM8gObGlcyLEWJuyW2jJdxMs097D7H9OndC7f9ofwflqXck+6N3CeVyqVnFyDK4xZeew7s2JGgb2GuKvlEH/3qxC+7S5eXN/YuwpBONdNgaHX2alySdAn+2fSfuCzyMgxOHIy7Yu/C35r8zchR1qmsM1akVKDPvLdfTn7ekpYscpFm5Vnxk0pJXn4BUjIy0bl9W/dTYPygPi1bAmjSQkiCPf4in1eCMhJgMW99q8gvv/yCp5/6q26ZJMGMPuefh7CQUH07rvviQH55LvsgAXlYRqLa+cXx1BQ0adRYF5BXj7gG991/vx5fke9nzcKyX0qay0qgzxt2gT75zsmHkzFs+HBce+21epo3fNnex9LS0bVje7/sa1L4yklEfi2QpzlLiwq5VdwbcjusPIVX+nqQlq7Wyqwdz0qDr+WBBHrvvPNO/aQ6+WVLTp5ya643pNItTw6W98p+/uabb+oWsVUl33Pt2rWltpnn9pLbbtMzsxAVEY6ePavWZ6NsH7lt2GRdhjksFwvy4A/5TOb6l2myv0gwXPp2kL4BJUh4OpLvIetBkjlsMssCc13IX0nmujDXR1XJ/K3JHFcec/nWVJnqHBdX7L0CG3M24t6G96JjcEfdT508AXfBiQXYkLMBszNnI7VLqpG7YvJL/Q8//ICB6sLRl1tBTIcLDmNv/l60CmqFuEDfKh++LvtAQcmthI2djRHsCNbj5FdTtdX1E83UHqOnN3Q2RKij/H2/ut+7Omr7sn3ZN70J9HmSY0luGcrKzERGWoq+pVJu242KiUVEgyjjwqBidoG+oGnTED52rA7sWRX264cTM9xPhA6ePBlB8+frVlEB6nySNWWKHh/yr3/p232tHOr75t1xB7JfecUYU7Gjadl4ZcZ6NIoKwcVnt0SvDv6pF/rTtHVFmLvJiS0HgZdGutC/5FlWdVJKajr6XDhE1S8dWL3sR8REV/2BJ96QY0b6zpJ93O68IEnqxtV5aqdwqos/efJu4G+/wRUVpYPbOc88A5fxI3lNkP73FiQ4cHnXIv3E3akrnRjU0aX75uvdyl3urkh0oHGkA4nHHLikc0m5IEHBkT0L9S27EisQciu9t61m/j4nEL+nVX5erQrp704ebkFuvpT/DPTZ8ybQ50mub6R8kH74hFyfS73X+sDB6pAfGuS6T64PzK5vzCTTJJn1XPkccp0jSa7xzGS9s8Xz2vV0JK3a3/4lUHc/IK7rVYjLunhXJlXVbb/fhm8zvkVUQBTCA8LxU5ufih+qV55TWWcsT5lAn9yCKh+0Sk9tozrP7HdACg55eIAECisjBZIUhEIKSGlRJ6Qg8vZCf93adfqed5mXFF5SuFVGCkOzVeGPC37EsMuH6U6mJZgkwRdv5nGqyec3C3hZd9IPnhTc8t08AyuyLuU7yV/ZPvIe6Y9O1rdZ+Mu6K49dpcHX8kA+r/RJIcFIWce+kBZ20ppPAnzeBJ5PF2YlwI5sp+reHlRbmRUR08k83vy57OocF2+nvK1/GQxW/+TR/dL3x8ITCzE9bTqKHEV6/OvNXzdyV04q8GZl/mTjsk++ypbty75ZlUCfcJ9jCpGvLjjkvCNllty26+1DOOwCfd5wqHOBtPqTFnwS5JN++fzp4PETaN6wmo/YrGEfr1IXcWoV39yn/B8v6pLDR45JYY2mjSuvV552VH1MVcD096vL5IJcWgfWBOlPsG6vPd/4Uv4z0GevKoE+sWTJEn29I+TaSu7u8Rfzuk+CfGaS6wj5a17Xyl+hz8eqXDGvJcwHCpmpsuu+04k8TOiVRU6c2bxIP8ynpuW58vDqsVeRlJ+E8Y3Go0Owd4HcU1lntFPm1l2zE08G+ojqF89Kg2B5QPUdjwuqrXzZN6sa6DNZg+e+BM6rGugjIqLy+VL+M9Bnr6qBPqLTRbX76COiusGu0kBU3/G4oNrKl31TAn2nCgN9RET+5Uv5z0CfPQb6qK5joI+INAY0iMricUG1FfdNIqL6yddAH9ljoI/qMgb6iEjjRSNRWTwuqLbivklEVD+x/CeiyjjmzZvHQB8REREREREREdFpji36iOi0lpycbAwRnd7i4uKMISIiIiIioqphiz4iOq2cf/75xpCbBPo6depkvCI6PSUkJDDQR0RERERE1aYDfW3btjVeEhHVXnv27GGgj+okBvqIiIiIiMgfAoy/REREREREREREdBpjoI+IiIiIiIiIiKgO4K27RHTa4K27dDIdff8NHPvoPbjyco0xFXMEh6DRbXej8V33G2O8x1t3iYiIiIjIHxjoI6JK/eHWPxpDpX3y8f+MoZODgT46mbYP6Immf7gVjqBAY0zFXAX5OPzxJ+i8dL0xxnsM9BERERERkT+c3rfuJk3FDTdMRZLxkohqvyVLl+Kll/6N/PwCYwzUcD5e+vfL+O2334wxRKeetOSTIF9++gavkiMwyOvWf0RERERERDWhbKBPgmedOqHT00uMEW5LnlbjKgqq+RJ0M5dhSR6LI6JaRlrvWVNVbd2yFevWr8crk17RwT4J8r388n+wbt06rFm71shVC+ychH79JmGn8bLWmTMODodDp3Fz1Ova/nl9VVPfpxrzdUY1NoZK2I0jIiIiIiI6Vexb9PW6ETdufxNTzahd0lS8ub0XehkvbcWPxrRpoxFvvKxUrycxPyFB366UMP9JbL+bwT6i2kZu2TVv2zWHy7uN11tjx96NCy/sh/XrN+A/r/wHL730MjZu2oT+/ftjzJ13GrlOM/4ISlnnUen85mDc8I14ZYcLrh2vYONzHnlrKkhWjzmjmiD2DxMROfBmYwz0sIyTaURERERERLVBObfutsclw4HZi9yRviXvP4/Ow9UIQ9LUGyyt8W5wBwTNFn3G36nSAtDb1noSJJRg35tGi8BSLf6eRsnbl+Dp4vFqvr8ao8WSp9U447MQUa0VEBCAe8aNQ9++F2DDho3YvGUzLrzwIoy9+y497bTUYTyWLRuPDsbLKvFlHju3YyN6oLNk9seyqVKF6UeQvWEhws6+VAf4Ii4apYdztvykpxEREREREdUG5V5Vtxl9Hzo//z6W6NZ8T+KuwcYEJX70NHdLPEnvdcbz73tE8tY9j12XmNNvxBdmAK8i8W3Red0uJEowb+jz6Pye+/3zn9yOu3WkMAlTb7gbMMZLeu4891t1YFBPmobRXjcpJCJv2N2yW91WfYWFhcjMyDReARkZaWpckfGqZu2c1K/4lleHtHrzbP1W6vVWvNTPyOvoh0nFmeZgnDkPlcZNMd5jvHfSOBk/TuWqIK+eppjLK17uTky6bQKWL5+Ajip/v5KFGtT8OqrpmIzhMs/eI9HbOj+798u8jeUXfw/bz+rB7n3G9yn+XDqPe1qpdVtqOeMwzliP4+aoz1c8XHZ68Xgr289RVpltq8d6rH/jdDVLf29jnO2XL+vELzOQtep7HeAL7zMc2Wt/QOaSz4ypREREREREp14FzWcG4pIbv8DdEnS7z+OWXGuLu7u/ALbvKR3I6/Uk7hpoDLdpX/Etv56S9mC75f3xg4ej1xc/YknSIsyGZb6mdc9j6NBduC/hOfWJiehksAb9fGX2yWfertuvX1/dss/ss69G7ZyE2yb0wGyXCy6VZvfYih3GJFvLN6LrR+68O14BJtxmBOL6SZNn93hJ71oLn+UTsHWEjH8XwyrLa6sDxn/0Cvr2fQU7VP5l4z3b6g3Du+rDmNNd0wYi1Jji5vn+HRjXcSueNpbv2nEDpunvoZT6rJ4koGj3PvfyMeEllUOCitNww45lkI/ZYfyy4u/pmt1DZTEiaOZ6nD0Wk4ffBpjD5i3HlvXszmMNPJb3OTzYbtty1n/x91bJ+jm84XAYAybP10RERERERKdOhffJDbzrSfTCjbjEemEqQb6hszF8vtGybr7k8QMd4GuPNsZLr/V6Eu8Vt/ojotqsqKgIL//nleIgn9yu+6d77inus2/Sq68aOWtIh87ooVvCuQNJw961C3BZ9L0BVxpxtg5X3oC+y7dix85ZmIZX8Ofy3tjXMq2yvF6ytlQr28KvEvo2X6P1nyRpDSjfQ6ZZP6tSajl//bn893UYj49e2aimdcS0Gz7SQT7N2vJu+GRg43Z3AM1cjx27oq91WKYJy3rGsBEYq5a83fz1qKLPb2W3bctb/9bvbf0clZDbdc2WfGbLvsiBN6kpDPYREREREVHtUHGHWNJ3nl1LuV7DMdho4pe0aDbWuQerwbhdV1oO6lt4n4d5N7Ce/42XYGD8YAxHyXirNqOn4T3cjRvYQR+R31kfwlHdW3alD77evc8uDvLJa7PPvosuuggX9vM25FJVw/Cubtk1Al/rwFE5t6zWMtaWcmVb+HnBbP1XnOwDnKWWM7pJhe/r0LmHMWSQIF9Had1n5JVWh8akavPq89fstpUHboT1GFx8u67cxivDod3688m7RERERERUa/je8338aNzX+XkMNW7d/fOuzlVr0Se33Jq3/3Z6E+3nJ+A5HVEciOeMp/DKtKHPd8Z7ekI8Rr9UMl6S9WEcA597D52fH8pgH5EfWfvms6bquHToUNwzbmypB2/I8J/uGYd+/foZY2rIzkkYp1vESVBoB17pa7Qcs7QQ2zlrGpYbw1Z6/NgRGNbhStyACTDvSq1QeXm9WJ41T5UUt77rjB7Lvfy8VhW+bw7G6TtiZ6PHhNtK+syztMwr93tVZs7XmCzzMfuLqOhz6BaERkDPbtvCh21VCXngRsonz5Tqk0+GZRwfxkFERERERLVF2UCftOKb5tEnn7CMH/hcyQMxpj33nHu8Od3z/Xbzk3HG+93J4yEapaZbWhR6vO+5UdZ5D8Rzatw0Po2DiMrToTMwoaP7FlDzttMh5m2o7ltDb9vao6Ql2nL3Ay1kfMdpN2DHu9KOzN0H3sbh7vGSzAc8lGWTd0cFyzN1GI+nx7pvV/X5Vl1R6v0dIX3qWT9DyYMqKuLui6/s++ThFhLlk1Z1Ko/0xddxHObIMnuUrC/b71Uey3rWsy71FOHyPocHu23bwZdtVbnC9KPGUAm7cURERERERKeKY968ea62bdsaL4mIaq89e/bg/PPPN165JScn6xa+dJqSVnnyfI5Swb3aYfuAnmh66x/gCAwyxlTMVZCPwx9/gs5L1xtjvCc/XsXFxRmviIiIiIiIqoaBPiI6bTDQVwfV4kDf0Slv4tiHk+HKyzXGVMwRHIJGo8eh8Z33GmO8x0AfERERERH5gw70GcNERLUeA31UFzHQR0RERERE/uBITU1loI+ITlsM9FFdwEAfERERERH5g+9P3SUiIiIiIiIiIqJax+8t+qR1DRGRv5XX2okt+qguYIs+IiIiIiLyhxoJ9PGim4j8qaIgCMscqgtkHyciIiIiIqqu4kCfP1vi8aKbiPyJgT4iIiIiIiKiypUK9PnjtiFedBORv3kT6HvuxVeNMURERERERET1EwN9RFTreRvoe/qRkcbY0lrEX4ADSSuMV+VjPnvMZ4/57DGfPeazx3z2mM8e89ljPnvMZ4/57DGfPeazV9vzMdBHRLVedQN9RERERERERPVBgPGXiIiIiIiIiIiITmMM9BEREREREREREdUBDPQRERERERERERHVAQz0ERERERERERER1QEM9BEREREREREREdUBDPQRERERERERERHVAY7U1FSXDCQnJyMuLk6PrA6ZT6dOnYxXFXvqqaeMIaLT0z//+U9jqLSvvvrKGKLyXHvttcZQ5RISEsotn8wy57kXX8XTj4w0xhIRERERERHVP14G+nbjraG9kfBYKiYNdQ8/uQo49/k1mH9vOyOPm6+BvvICJUS1XUX7rwT6+vTpY7wiT6tXr2agj4iIiIiIiMjPvLx1dxcSVo3GFUPV4PzX8GT36UhNnY7uT76G+e4MRES1Vov4C4yhijGfPeazx3z2mM8e89ljPnvMZ4/57DGfPeazx3z2mM8e89mr7fm8bNE3H+NjvscVqZOgBvB/naQlH/DW0HHAu/NhbdTHFn1UX7BFX9WxRR8RERERERGR/3nZom8oJk0HRsXEYNTU0XhMInvSsg8jcXnpO3eJiIiIiIiIiIjoFPD+qbtDJyE1NVWlSZA7ePXr+feCcT4iIiIiIiIiIqJTz8tAn9y6O96jPz55KIfnuNPA0aV4662lOGq8JKpTEqdg5MgpSDReEhEREREREVH94X2LPlubsWO3MVhdEoB79lk8a6S3ltaCUNzWL4s/j05fbjUmnGYY3KybFj2B+Pj4kvTEImMCEREREREREdVHlQT6pNVeDGJiRmGq+id99MUUp954svtjpR7EUXVb8eUbm3Dm/WZQ7UbEHTliTDs1ji59C89+AdxoCfTdiC3qkxKdeolTRiJ+NDA1KQlJRpqKH8BQHxEREREREVH95eVTd71XtafubsWXz25Bt2evQ1f3pBLSGu2NhTisXzTFxfffiwGN3YG4Nxa6xxaPh8o7DTgzbiEWbuyBG/X8ZN5fYKORs8elFyN5nZnHGHfjs7iu1IKPYqnM6Ab3ssoo9ZmM5ci4aUcQp5a0UU3oceP9aLLoDchH1PNvUnq6fqe53HLnV87ntFsnpb67nmDkl+/i/hyi6cX34wZMK1l3TS/G/fcOgN3XpIqduqfuJmLKyAnAKzMxpo0xyiS37upJY9BGhgdOxBo9oTeeWeLOL0HCgRPdY4vHw/2+K7tMxMRPb8HUpBcw2MhRE/jUXSIiIiIiIiL/8/LWXXfLvvHWDvnmj0fM0LfUFH/oim49NuKLMrfHSku/Ixhstqq7/0xsmua+BbXxgHuLW9o9e2McFi4x3nd4IY50k/ES5JMgl26WV5z3OolBFueR9/bAxkUet7Ue3YJNh+PQxDb6JZ9pIeKMed5/cTK+MD/z4WQ0ucGY5xcSKPSYvzndXO4XX6q5VTQ/u89Z/jqxz98YA264GE0loKfG39ttC6YtjFOrxJ3vxrgjOLVtJ8lniQswa00XtPMM8pWyCE8M3IkHzRZ/S67ErAnuvvvajJlZ3AowaWoXTHzXaAe4ZiJ2XirjazbIR0REREREREQ1w8tA3y4krBqNK/Tjdg1DH8TzmIm5fuqjr+t1RoCq2xb3Xwl2HT2CZBgBQEnSiu2wEZiSVm3m+C82AslH3MGuphdjoNk6TwJ2sLw2WfM0aYKmxmApTZugiTFYinwmy/sbdzsTTTcat/Q2PRPdJDgo87QOyzRhjhNdu6GH+nZHtlc0P5vPWdE68eZ7NW6iWxV+8awEGWW927SipNqvdwe0NQZtJe7GNnyK0Wb/fdKyb81O7NHTpmCkOX70p8C23e6Hd/R+BuMY4SMiIiIiIiI6bXkZ6GuPTudOxffWFn2752Lmqu7o6Jc++iy6Xgfpo6+HJdglLdF0UEsn47ZWa59+919sH9SqKgmGHd6ELaWa+dUiduvEmFS5rrhOv6cbtui/7oAfnUbatEOXNbOwoLJH6/Z+BkvMlns6vYDB+nbeWbhyiTFuyTPobWSvy1rEX2AMVYz57DGfPeazx3z2mM8e89ljPnvMZ4/57DGfPeazx3z2mM9ebc/nZaCvHe6dPx0YZXkYR++ZGLlmEqyN/KpMAnfWW3Z1q7kmaKIDbgth3pVbiqV13NEtm4z+6jw07oYzUc77K9QVAy8GFr5ROgi29Uv12uMz6WX36OZ7q7itW7BRvkNnH+dX0TqpiKUl5Jf6icYS8LsfFzdNxpHaGtCkcgzGuGeAiQOfKPXwjUVPWF7rYOBEmHflltL7SgwxbvtNXDDL6MOvbjuQtMIYqhjz2WM+e8xnj/nsMZ895rPHfPaYzx7z2WM+e8xnj/nsMZ+92p7Py0CfGIpJqalILU7z/fTEXUUCcslflLRQk9Z6N8gDIrriuvsvRvIXxnhJby3F0cYDMDhuId4wxk07EldOiz53/3TW93+ZYEyqhPQBqPvLM94n6QtIAK70Z3pD+rsr/SSP8h0u+cz6ib76IRi+zq+cdWJMtSXry+gD8a0tgRLBNN77BjadeYP9A0eoVpN+9pY8s63k1lyVRuNSS996g/HCkmewbXTJ9PiRU5DYZgwe7DIRA41xE3Z2qRct+oiIiIiIiIjqA++furv7LQzt/SRW4Vw8v2Y+7t01HjH/1wlr5t8La7yvak/drQek1aJ+kC+fcFtXnLqn7p7++NRdIiIiIiIiIv/z/qm74+RW3VRMH22M8vPDOIiIiIiIiIiIiKjqfHjqbg08eKM+aTwA97I1HxERERERERER1RAvA31DccVoj6fuzn8NT2IkLmfwj4iIiIiIiIiI6JTzvo8+uX13aG88ucp4idGYnlr2qbu+9tFHdDpjH31Vwz76iIiIiIiIiPzPh0Cfd3wJ9BHVVRLoo4ox0EdERERERETkX5UE+uZjfMz3uCL1CnwfMwpTjbFljJ6O1Enutn0M9BGRvzHQR0RERERERFS5SvroG4pJxbfnyq26qUgtk6Zj9NTvYe2+j4ioNmkRf4ExVDHms8d89pjPHvPZYz57zGeP+ewxnz3ms8d89pjPHvPZYz57tT0fb90lolqPLfqIiIiIiIiIKuflU3eF3MYbg5jiNBRv7TYmERERERERERER0SnlZaBPnrg7CphuuWV3zUjM7D2et+wSERERERERERHVAl4G+nYhYdVoXOHurM+t3eUYee5m7GCrPiIiIiIiIiIiolPOyz76pEVfbyQ8lgrj4bpq1FsY2jsBjxU/rMPNlz76vvrqK2OIiOqja6+91hiqGPvoIyIiIiIiIqqcDw/jkD76RmGq8cr9FN7SQT7ha6CvT58+xisiqk9Wr17NQB8RERERERGRH/nwMI6hmGT2z6dT2SAfERERERERERERnRpeBvqkNR8fvEFERERERERERFRbeRnoG4oHn9+M7xnpIyIiIiIiIiIiqpW8btH32pOrMHVUDGJirImt/Iio9msRf4ExVDHms8d89pjPHvPZYz57zGeP+ewxnz3ms8d89pjPHvPZYz57tT2fDw/j8E61HsaROAUjJwCvzByDNsaok+pUL5+oHuHDOIiIiIiIiIj8q/IWfbvfwlC24Dv9SRBz5BQkGi+JiIiIiIiIiKhuqSTQtxtvjXsS3acbT9qdDowaz1AfEZW1YcMGY6isiqYRERERERERkX9UEujbhYRVo3HFUOPl0Csweur3Nd+qz7P1mfla/30CT4yMR3x8PJ5YlIgpxcNmvpLpxeOFTDPGxcePxBRz5tbxAydijTG6tEV4ovi9lmUVj3tC5TDG+eXzWec3BVOeqCy/8X3Kza8+xwT13dZMxEA1bqTKnDhlZHGeeLb0o2rKzMzE//73P/zwww/GmBIyTqZJHiIiIiIiIiKqOV4+jKMWWbMNHV5JQtLUW/DpaOlQzxh+zQhWmdOTzDwSNFuEJwbuxIMyTtKSKzFrguSX8RPRZao5/hn01guxkmDdaMDMo9ILg0u/b8kz2zDajMBV+fOVN7+J2HmpJb+eT3nfp7z8bTDmFfXdej+DJWr8zCELMGFiF/WV3PmmdtmJPXphRFUTGRmJv/3tb5g/f36pYJ8MyziZJnmIiIiIiIiIqOZ4EeibilHFffSNUq+sr09Bn329r8QQeVJG2w7obR3WExVznBh8KW7BNuz+ebf6/6cYbbZgk5Z7a3ZiT6Ia3/sZjBts5LeTuACz4JHH431thlyJ3p/+AB2aq+rnK3d+lmWb85Hl230fmWaX31Obduii3+9uOTj4hRdg/XpEVeEZ7GOQj4iIiIiIiOjkqiTQNxSTpG++ctMkleM00dvdmk23dNPpNA9uVev7DMYL+j2X4gcdLDRuFSaqJmuwj0E+IiIiIiIiopOr9t66a7ZQUxIXzCqn77xKLPoBn0oLuovaocuaiXjXM5olLdvWzMICo4M62+W0GYIr4fFe/b6Scfp9t1zqe+CwnM9X6fw8lu81c50mTsETulM/CfgtwTO9t2G3sQ6IqssM9jHIR0RERERERHRy1c5AX5sxeEX6qTNuTZ2ws4v9Lah21rgfOKFvaZWu9WaOQRsJaC15BttGG+Ml6QdQqPFTu2DiQPc4++W4+7ezvveJRaXnN1D6u3vByzCfF5+v8vmV930qoNbpg7e4b/cduSAS6ksb7x2IWVe+gjHm7cREfiABPgb5iIiIiIiIiE6u2hXoazMGM3XgSwZnFt+WOvOFF9zjLdOteUsNl7ql1XI7q+QpHq+SmX/wC8Xjipej32Dh8V4dgys1zlhOeZ/JOuzV57OZn/CcZ3F+lWR8RfmVwS+4884cc6Nx6675uvgdRHVSi/gLjKGKMZ895rPHfPaYzx7z2WM+e8xnj/nsMZ895rPHfPaYzx7z2avt+RypqakuGUhOTkZcXJweWR0yn06dOhmvKvbVV1+hT58+xis/SJyCkfKgW2uwqzap7Z+P6CRavXo1rr32WuNVxRISEsotn8wy57kXX8XTj4w0xhIRERERERHVP7W3j76q8GzRVtvU9s9HRERERERERESnrboV6CMiIiIiIiIiIqqnTvmtu0RUf/HWXSIiIiIiIiL/OaWBPiIibzDQR0RERERERFQ53rpLRERERERERERUBzDQR0REREREREREVAeUCvTJLXDVTURERERERERERHTylQr0SR9Y1U1ERERERERERER08p3Sh3FI5/lEVH89/fhDxlDFqvswjhbxF+BA0grjVfmYzx7z2WM+e8xnj/nsMZ895rPHfPaYzx7z2WM+e8xnj/ns1fZ8pzzQ5+2FPhHVLb4c/3zqLhEREREREVHl+DAOIvJZWlpatRIRERERERER+R8DfURERERERERERHUAA31ERERERERERER1AAN9REREREREREREdQADfURERERERERERHUAA31ERERERERERER1AAN9RORX48ePN4aIiIiIiIiI6GRioI+I/MYM8jHYR0RERERERHTyMdBHRH7hGdyrTcG+FvEXGEMVYz57zGeP+ewxnz3ms8d89pjPHvPZYz57zGeP+ewxnz3ms1fb8zlSU1NdMpCcnIy4uDg9sjpkPp06dTJeVey5F1/F048/ZLwiotNFWlqaMeRmDepNmjSpzGtP0dHRPh3/CQkJ5ZZPZpmj5/fISGMsERERERERUf3jZYu++RgfM17932o33hrqOY6I6jMzqGcX3CMiIiIiIiKimlXNW3c3Y8duY5CI6jXP4B6DfUREREREREQnVyWBPmm1F4OYmFGYqv6NipFhM/XGk90fw73tjKxEVG+VF9RjsI+IiIiIiIjo5Kkk0NcO985PRWpqOWnSUCMf0Wlm5yT06zcJO42XRERERERERESnO+9v3Z0/3tKaz0x1qI++OePgcDhK0rg5xoQaYg00MehUdbLuirfbONTwVuO2IiIiIiIiIqJay/uHcYzajOfXeLbqm4S60KZv56R+cAwHZrtccBlpNr6u2aBRh/FYtmw8OhgvqYpkPe54BX37voIdrncxzBhNRERERERERFTf+PAwju7oWCf749uJWdOAV3aUDhINe9f9WgcBi1uM9cMkacqlW3WNw7h+5ngHzAaAtvm1ORhXPF7ln2K2DNuJSbdNwPLlE9BRje8nb7BrpWa0JJs0zjKOyiq1nox1ba4s63rtqNa5Oc7aQq/Ua49tNofbioiIiIiIiIhqLy8DfUPx4POb8X2duU/XYucsTFveA53LaVrXYfyy4lZ+rtk9MOElI2yzfCO6fmSOH4vJw90BHfv8OzGpn24yWDzt3YF6LkoHjP/IbJHmwrLxOzCu4wT0MPLueGUjhpuRquUTsHWEjGfLtQoVryeVZNs8J4G7OaXWq0taARrZ7dlss2HcVkRERERERERUe3l96+5rT67C1FF1tI++vl3R0Rgsw9pia/hkYON2d2uvvjfgSjM4OGwExmIjtssEu/wSTMQr+LM3EZ+d27Gxb0neDlfegL6TjduILeOpAtb11LGrO6DnsV4r5c0247Y6bbSIv8AYqhjz2WM+e8xnj/nsMZ895rPHfPaYzx7z2WM+e8xnj/nsMZ+92p7P6xZ9k0r1zVeH+ujr0Bk9lk/DrOJ7Ny0kaNdxGm7YYbTqqqwVWJKP+YnopDiQtMIYqhjz2WM+e8xnj/nsMZ895rPHfPaYzx7z2WM+e8xnj/nsMZ+92p7P+z76dr+FoboV31C8tVu9lqfwDn0LMnh6G4Y/vwJM6Fi6L7U544zXlpZ7O2dNc/fr5mnO15gs+eLVsF3+DlfiBkyAedevreVbsUP+6sBjSV49j7EjePtndXkEdEttS3PdK15tM24rIiIiIiIiIqqFvAz07cZb42Zi5JpUTB9tjBr6IJ7HTMw9/SN9ul893b+aecutSsMxAsM6jMfTPdwPXpBxt23tUdJCb3nJeP3EXnmCbrn53X27bRxu5Fdp3BI9wU3eN3ayXn6/SR3x7o6SvB0n9MDsdxk6KpdudWk+IKOiB18Mw7vSZ2JHj22j1v1Hlm1f4TaTmXNbEREREREREVEt5UhNTXXJQHJyMuLi4vTIsuZjfMz3uCJ1EjB+KHY8OB/3ttuNt4aOA96VYSObIvPp1KmT8apiz734Kp5+/CHj1WlEgku3AR9JcM8YRVSfpKWlGUNVEx0d7dPxn5CQUG75ZJY5en6PjDTGEhEREREREdU/XvfRd8XoqaWfujv/NTyJkbjcEuQjIiIiIiIiIiKiU8PrPvqGTlqDTv8Xg1FTV+HJ3jGIGQVMn38v6mWcr8N4LGNrPiIiIiIiIiIiqkW8fxgH2uHe+XXsibtERERERERERER1hJeBPumjb7z6v5X00ec5joiIiIiIiIiIiE4FH1r02dmMHXXgqbtERERERERERESnu0oCfdJqLwYxMaMwVf0bFSPDZuqNJ7s/VuqJu0REtVGL+AuMoYoxnz3ms8d89pjPHvPZYz57zGeP+ewxnz3ms8d89pjPHvPZq+35HKmpqS4ZSE5ORlxcnB5ZHTKfTp06Ga8q9tyLr+Lpxx8yXhHR6SItLc0Yqpro6Gifjv+EhIRyyyezzNHze2SkMZaIiIiIiIio/vH+1t354y2t+czEPvqIiIiIiIiIiIhqA+8fxjFqM55fY33qLp+8S0REREREREREVFv48DCO7ujI/viIiIiIiIiIiIhqJS8DfUPx4POb8T3v0yUiIiIiIiIiIqqVvL5197UnV2HqKPbRR0REREREREREVBt53aJvUqm++dhHHxERERERERERUW3iQx998zG+VGu+oXhrtzGJiIiIiIiIiIiITikvA3278dbQUcB0S2u+NSMxszdv3SUiIiIiIiIiIqoNvAz07ULCqtG4wnqfbrvLMfLczdjBVn1EVMu1iL/AGKoY89ljPnvMZ4/57DGfPeazx3z2mM8e89ljPnvMZ4/57DGfvdqez5GamuqSgeTkZMTFxemRZUmLvt5IeCwVk8xg3+63MLR3Ah7z6KdP5tOpUyfjVcWee/FVPP34Q8YrIjpdpKWlGUNVEx0d7dPxn5CQUG75ZJY5en6PjDTGEhEREREREdU/Xrboa4d7508HrE/dtQnyERERERERERER0anhw8M4PJ+8yyAfERERERERERFRbVFpoG/3W0MRM/QteHbFN398DGLG81EcRERUnyzCuOB4ODzTvYuM6Z4SMWlAPPq9lmi8JiKiynlX1s65t2yecXONiURERPVUJYG+3Zg7E3j+3XvRzhhjGjppOkZP/Z5P3SUionqn77+XwJWXZKSpGPv+aHWB+QTmGNOLzX0XE1YYw0RE5JOKy9pEbN90C2YXT0/Cjn/3xuSrGewjIqL6rZJAnzxttzs6ekb5tPboxKfuEhFRvTcY7255Bn3xKZ4zW+7tnIJ+0rrk6k/dr4mIqJo8y9o2GL/0BQxzT9Q6PPggxqq/k78tr5U1ERFR3VdJoK+iYF5FQUAiIqJ6pEM79FB/lm/bY7weg2VmCxT3GCIiqi7PsraMtuh6gfqzaTd2ukcQERHVO5UE+trh3se648ne4z1u0Z2P8TGjsPn5B/lADiIiIiIiOvV2LsA06S7hzHbo4B5DRERU71T6MA4MnYTUNZ3wfzExiClOo4DpqZh/L5vzERERYe4PmKz+jL16sPs1ERH5XyVl7Zz/TMRy9ZdlMRER1WeVB/pEu3sxPzUVqZY0iU35iOg00SJe7uOpHPPZYz57xfmkPz7pi++CZ/Dny92jrD42/lbmtPm+lWA+e8xnj/nsMZ8NVdaGVFDWYu4TGP6++nvXVHw3rg58X4X57DGfPeazx3z2mM9eXcnnSE1NdclAcnIy4uLi9MjqkPl06tTJeFWx5158FU8//pDxqv557bWVSE3NQVhYIBwOhzEWKCgoQl5eIQYNaoMBA+KNsVSb1Pdtl5aWZgxVTXR0tE/Hf0JCQrnlk1nm6Pk9MtIYS1RTFmFc8GjdosRKngy57ME2xisrd/6N5U4nIqKyfCxr5QeXbhOx/IJnsGPpGN62S0RE9Zp3LfqoRvzf//2Cv/1tMR577Ef8+c/zi9MTTyzQ4xcvNp7eSLUOtx1R/SYXmy79sA13YhCPiMj/vCtrF2GcBPlwC2YzyEdERMRA36nUuHG4/vvOO1fiww9HFKe77+6txwcHO/Vfqn247YiIiIhONaPln7Tky3sBw4yxRERE9RkDfadQZGSw/nvzzWfittt64oYbuuu/F13UWo8PDOTmqa247YiIiIhOJUuQjy35iIiIijEaUUscO5aFfv2m4IUXfjLG0OmC246IypD+ooLj4TD6mFr+6EA1HI9+r/G2fiIiv9i5Gxvl74qJ6KjL29Jp3Fydi4iIqN5hoK+WOHgwE/v2peOppxbi/ffXGGOppr3++q+Ij59UnBISjhlT5AEQx0pNk7x2uO2I6pPBeNebPvk6jMEyS79SFfcvRUREpXlR1pZTzprpXbsn8xIREdUDDPSdQkVF+oHHSE/PRevW0fjqqxsRGxuGn35K0uNdLvd0qjmy7vfuTStO+flFxhToYes0yWvitiMiIiIiIiKi2oaBvlNIgkeiVatXEB39IgYM+ADHj2erMQ49fvv2ktZlVLtw2xERERERERFRbcNA3ynUpk0MWrZsgL59z8CFF7YqTj17xiEoyIn//nctXn99pZGbahNuOyIiIiIiIiKqbQKSk5MhSZjD1UnkvZ9/vhP79z+MZcvG6GEzrVt3D1atugtnn90cV17Z2chNtQm33emlRfwFxlDFmM8e89ljPnvMZ4/57DGfPeazx3z2mM8e89ljPnvMZ4/57NX2fI7t27e7OnXqZLw8uZ578VU8/fhDxqvabdOmwzpJ12tduzZGr17NjCllbdiQjC1bjujhbt2a4Kyz4vSwnXXrDmHr1qNwOIAzz2yqE508//znT/jrXxcar2Q734vu3Zvo4c2bj6jt8ZYeFv/4x8V46qn+xqv6LS3NfetyVUVHR/t0/CckJCAuzv44kh8YpAzT83tkpDGWiIiIiIiIqP7hrbuVWLw4EWef/S569HgbN9/8JW655Uv9ulu3NzF37k4jl9uPP+7GWWe9jZ4939F5JcmwjJNpVnPm7NDzkHnJPCWvLENeL1nifqADERHVNoswLjgeDpXGzTVGFXNP6/daovG6tkrEpAGnw+ckovrr9C1r59zr/tzWVPY7EBER1RwG+iowefJvuOSSj3RLvhEjuuCf/7wYzz9/Ma6/vit27UrBFVd8iv/8Z7nO++abq3DZZR9j27ajuPbarirfEJ1kWMbJtDff/FXnlffIe2UeMi+Zp8xbliHLGjLkQ7z33hqdl4iIaqfJz09B6Z97ThNz38WEFcYwEVEtd3qVtYnYvukWzM5LgstIO/7dG5OvZrCPiIhOHgb6yvHTT3tx332z0bp1NNasGYuZM2/Ek0/2xxNP9Mf06Tdg48Y/oVOnRnj00R90evDBOWjfPhbr1/8JX355g8p3kU4yLOPatYtVeeYW5+/cubG+TVTmJfOUecsyZFmyzHvv/V5/BiIiqn363nUL+q6YiJdOpwu3nVPQT1qXXP2pMYKIqHY7/craNhi/9AUMM16JDg8+iLHq7+RvF7lHEBER1bD6E+g7cQL45RcgJcUYUbGHH54Hl8uFr7++CT16lO0bTIJ83313M4KDnXj55eVwOh345pubdf99nmTct9/erPNIXnmPvLdjx4ZGjhKyLFmmLPuRR+YZYytx/Lj7u8l3rIt83Hanlbq+7Yjqqi7j8PRdlbU0sbu9zHOc+XqRvp22+FavATJf9y225rhq36bWYQyW6RYmU/VFJxFRrXc6lrVltEVX6Tt90+7TqGUiERGdzupHoG/3buACdYZ94w2gf393YKUCCQnHsHr1AQwb1rHCB2l06NAQ113XTQ9fdVVn2yCfSaZJHiHvkfeWR5Z5+eUdsGrVAezYcdwYWw75LvKd5LvJd5TvWpf4uO1OK3V92xHVccMefsZvLU2WPzoaW580bvX69hZAzbdj8ATgv8a4Lc8Ajw7krV9EVO+c9mXtzgWYJt0lnNkOHdxjiIiIalT9CPT961/4ps8fELfwHMQdUH+HzEVc3L/LTeef/75+W0VP1jXJU3VFz57lBwRNZ53lfqKu+Z6KnH12c/33vPPes/2MxUm+y8Fb9XeT74j/+z/9vjrDx23na3rxxZ+NBVVO8trNo8qprm87orquwxh8pPteegJzjFFV1fffS/Du5caLyy/VLe76/vsVjDevCju0Qw/1Z2NCSUuTna+NLGmVYptGYhKbjxDR6e40L2vn/GcipEfvsVcPdo8gIiKqYeyjrxyBgQEIDXUar8ont+FK3qCgylelmVf+VkaWLXmJiKj2cve99Cme8/utXpXr8OBMdwuUctPMkotXIqLT2Glb1s59AsOl/cBdU0sCjERERDWsfkSS/vIXXLP6EyRf/BuSW6i/Cy5HcvKj5aaUlL8gP/9pPPXUAGMG5fvzn/vpvPJAjcpIHskr76mMLFvyymex+4zFSb6LfCf13eQ74rHHjDnUET5uO1/T449fZCyocpLXbh5VTnV92xHVC4Px53/3xvJH3612SxMiIirPaVjWygOQ5OFHFzyDHW+xNR8REZ089SPQ164dsGIFcP/98jhd4MILjQl1gHwX+U7y3eQ7ynetS7jtyA9axEsv2JVjPnvMZ8/MV9LSxL6fzd8mXm8MVczX5VZ+O1lHr27dran1Uhnms8d89pjPXn3KJ2VteAVlrVWL+IeNoYp9bPytiC+37pZ8j0UY101u2b0Fs5eOKdM3X21ez4L57DGfPeazx3z2mM+ev/PVn3tDIyLcgZXYWGNEHSLfSb6bfMe6iNuOqulAkvSCXTnms8d89krymS1NJmKyMcbqnGdmGEMV83W5ld9OtsOrW3drbr1UjPnsMZ895rNXv/INxvoKylqrA0n/MYYqdqvxtyK+3Lrr/h7yhN/RmCwt+fJewDD3pFJq93pmvvIwnz3ms8d89pjPnr/zsRM4IiKianK36vM0GCPuApbPWAB3Y49ETBqgLv70MBER+ar2l7WWIJ9NSz4iIqKTgYE+IiKianO36vM07K2pGLtiIjrq27smAP9Vr41pJ530F6U/h/sCePmjA/VtZ/1OQef2RERVU8vL2p27sVH+Fn+W0mncXJ2LiIioRjm2b9/u6tSpk/Hy5HruxVfx9OMPGa+ITr5//vMn/PWvC41XwKZN96J79yZ6ePPmIzjzzLf0sPjHPy7GU09V/tCV+iAtLc0Yqpro6Gifjv+EhATExcUZr0pLTk6GlGF6fo+MNMYSERERERER1T9etOjbiUn9HBinH3HlHnY4HOjnTQ/fREREREREREREdFJ4Eejbga3Lx2KE9CQ75yVM6DEbLtds9Jjw0unzeHsiIiIiIiIiIqI6zqc++uZ8PRl9u3ZUQx3Rte9GbGejPiIiIiIiIiIiolrBi0DfMLw7GxjucGD45LF4Wp4fLy37cAOu5KOkiIiIiIiIiIiIagXvWvQNexcul0uldyF38OrXy8bzkfF02ouKCkHr1tHFKSio5JCQYes0yUtEREREREREVFt5Eeibg3GOcR798clDOTzHEZ1+HnjgPCQljS9OnTo1MqZAD1unSV46PbWIv8AYqhjz2WM+e8xnj/nsMZ895rPHfPaYzx7z2WM+e8xnj/nsMZ+92p7PsX37dlenTp2Ml3Yk0Pc1Rpit+TQJ9N0GfLQMcidvVT334qt4+vGHjFdEdLpIS0szhqrm/9u7E/ioqruN409kE0EGUYyiNmgWBUzrXogLLmBJRAUXtNgibsS6kRRt0Rar8hapWBNcUKgLYusCLoiYUJfiGlDaqEVFkqhQ16BiQBZZ8865c4YsnExmkkkymfy+/dzOOec+c2e5Sar/nnuPz+eL6Pe/pKREiYmJtldTeXm5zN8w73jjhttRAAAAAADanhAz+kwxL0EJCVma4f+PuUdfwo4tVbnpExpV5AMAAEDdtm2r1B57/8PbTLs+TZ0HAABA7AtR6EtRTpG5L18d2/Sq+X0AALQFGzdu06TJ7+mIY57V7j3+7m2mbcbMPiCani/8TBUVm72tYMHndrRuTZ0HYhF/lwEAqCm8xTgKs6vN5gtu3KMPANB2vPPuah3Vf57+cGOx1163bou3mbYZM/vefW+1TQONd+fdH9pWzXZdmjoPxBr+LgMAsLPwFuPIWqq80tqz+qrfsw8AgPhl/qWx/3HP6cNlFRp62gEqfG6wvvrf+d5m2mbM7Pv5sc/xL5WIig8+rNDL//pKnTu397aXXv7S+xmrS1PngVjD32UAANzCm9GndB3M/fgAAG2QufTrVxe+qs2bt+vuqQM07+lBGvKL/bXPPp29zbTN2F35/b2Myf74I5eLoXHunrbMe7zw1yneZtx1T2DMpanzaLznCz5XQSGXSEcDf5cBAKhbGIW+TF2Xt1RzuU4XANAG5U19f8eMkSsuP0QJCXZHNWbsyt/08TJmplTe1A/sHiBy33+/WbP+Xua1r76yj666oo/XNmPmfnq1NXUejVP2yTp12/PvOvu8l3XWiH957RUr19u9aAj+LgMAULewLt2dkrtIM7K4Rx8AoO158ukV3uOVdfzLZJD3L5X+jDHnqU+9x3AkdHyoxob40pDz++DMUm3YsFWDTumlvn26q1/f7jrl5H29sQdnlthUlabOR6IhnzfeHXH0XP3wwxZt2rTdv23z2j878hm7t21r6M9LU/9dBgCgNUtYvnx5ZVpamu02r4mTp2rC+LG2B6C1WLNmjW01jM/ni+j3v6SkRImJibZXU3l5uczfMO9444bbUSB6zAqO5ubu5r5P5pKwUL7+eqP2/cnjtgc0zrxnBun00w4ItOf/T2ee9bIO7N1VpcvOUbt2gerGtm2VSjnkSa1Yua7J8u07z/TaQKyJ5O9y164d9MPqX9lRAADiV3j36CvLV4Y3iy9D+eZKD7MKb0a+Ahd9AEBs65XU37ZCI+dGzi3cHNBQWUP2ty3ptMwD1Dupqz5dsU4FCz7f8fP3fOFnXtHOFOhC5YPqyl9+5fl15oHWJtb/d4GcGzk3cm7k3Mi5tbVcGDP6ypSfMUqaVaSDp2Ro+XVFykmpGstpxCIdzOgDWidm9KEtOeKYZ73VHc0qjuYG76Es+Ofnyjz9RR1+WA8Vv32mHQ2t9uVqlZsvsi3Eg2ie37/mfaBrf/+2d8nti4W/8MYGDVngrZ7719uO1m9zDvXGgpo678LP887MPfnM5brV+bp1VMW3F9he29XQn5em/rsMAEBrFsaMvlItW8SquwCAtumcs3p7j/fc95EqK72mk9l3972BVUvPPftA7zEc5l9sq2+IL9E8vxePTtVuu7XXSy9/6S1EYBYYMEU4M3bx6J3/T9umzrtE8/PGi/8WD1e33TvaXqDI9993htte29bQn5em/rsMAEBrFtaqu8PGzKi56m7hFOVqhIZS/AMAxLncsYd6CxbMf/4z3eP/F0bXv1SaMbPv+YLPvYUNcsf2s3uA6Nljj44a9avAP3zddc8y3T0tUMAwY927VxWSgpo6j/D0TuqiNd9Vzd4zM/l+csButoeG4O8yAAB1C+sefZnTS9VnYoKyZixSbmqCErKkgqIcUecDAMS7zp3b6R+zBqpjx110dc5inXHWS96lYOYG72YzbTNm9pnM3x8eqF13bWefDUTXVVf08R4ffqTM24yrrwyMuTR1HmgJ/F0GAKBu4S3GoRTlFFWqsjK4TVem3QMAQLw77Gc9tPiN03fMIDH3ezKrOJrNtM2YmTHy1pune1mgqZifs1NO3lcbN271NnM/PfNzWZemzgMthb/LAAC4hVfoM6vseqvuVt+yVf1qXgAA4pm5kft/3jpDkyYe6bW7du3gbaZtxv69+Az+ZRLN4pqr+tpWzXZdmjoPtBT+LgMAsLMwCn2Fys5aqrzS6jP6mNUHAGh7zKVf1//+p97KjT+s/pW3mbYZ47IwNJfTMg/w7plntqwhoVccNZo6D7Qk/i4DAFBTmJfusuouAABALGjXLkHfr7rA20y7Pk2dBwAAQOwIo9CXqevyltZcdRcAAAAAAABATAnr0t0puYs0I4t79AFonXol9bet0Mi5kXMj50bOjZxbW8uFK14+Lzk3cm7k3Mi5kXMj59bWcgnLly+vTEtLs93mNXHyVE0YP9b2ALQWa9assa2G8fl8Ef3+l5SUKDEx0fZqKi8vl/kb5h1v3HA7CgBAbEno+JD3WLn5Iu8RAACgKYR5j75CZdeYzZeh/DK7CwAAAAAAAECLC6PQV6b8jCypoNqKu6UjNDuVS3cBAAAAAACAWBFGoa9UyxaN0bBM2zVShmrEgKVazqw+AAAAAAAAICaEUehLVZ8BM2quuls2X7MXpevgFNtvrcrylZGRr1ZTr2xt7xc74xwCAAAAAIAmEkahL0U5RQVS9VV3U5dpQuV0VZ/k16JM8WTH/QOb4ZLipi7WVD9+A1+rLD+j6nz5t4xYvKliYXaN95iQ3cRnLgrfa9jayjkEAAAAAAAxI8zFODI1PXh/Pm+LoSKfkZKjotI8DRiQp9JYe28NYT5PUY4aOmHSFIhSZ4/wfxfB81Wg9NzUmCoUeUUs79aPVT9XBZrbtEXaRn6vEWkD5xAAAAAAAMSW8Ap9ZkZStZlFzTJrrjHsDKr87Kr3vGOyWPXPkpqrRcGx6jOuavRrrjicXVim/FH+5y3KVaq/7xVeanw/9rup8R5qfV/Vj+89N7jfLHzib+/YX+u1Zn7jpea7PtcOhZqSK+XNql5kytT00jxp9nz7mVpamebP9r/H0ppF2czpgX7NmWx2hWfvO8lWdsbOn92Z99Q6dw/U8b1yDgEAAAAAQBwIo9AXKFSkV19111zJGyxyxKpFuVo2LPh+x2jGRPN+C5WdWu2zmFmANu5mijY1VxyenpminFnB2YOVKsoprXHM0rylygpWbna8h1qzDFMOVvqiZSr1N8vmz1b6GNl7IJZqmfoo1TQ9tV5rdM86Plc1Zcu1dMAIDa09lazaa7a4eu7xmJJTtOP7rixIV+6U4Pe5VH1mVfvsWYHimjvvOHcDvaP4cQ4BAC1tobI7Jilhp+36mv/HUg0rlH9CkjLuXGH7AAAAQE1hFPocq+5mXqc8zdb8WK70DcjTdcH3nNonUNDzCijVxutjClL+TxoyX+uYKUNHaMAMewlqna+VqWFjAqsWly5L17Dr+mipqRKZY6UfXG0Wl4Prc7VGA6oXw2qpPrsua4a0dHmgEFa9+JU5TGNkV3525cM5d0Gcw7jXK6m/bYVGzo2cGzk3cm515Qbc/qoqN6+026vq1vFRZdVV7FswXbmLA83W+nlra2u5cMXL5yXnRs6NnBs5N3Ju5NzaWi6MQl9VQaOKKf7Fwaq7LSi1j7SstFBzl/ZRaspQjVg6V4Wly5Reo6LaAN6sL0cR1itmhSiuNae63qNhinapszWi1M54q2/W5coI81HUps9hK/PlSvtvxvUg50bOjZwbObfwcr215t0b/f879qgmVp+1V/aAMsxsvzMetQPx8nnbXi5c8fJ5ybmRcyPnRs6NnBs5t7aWC6PQV6i5MxYpN9XOmPK2LM3w/yfLa9e6d1ksq1VAMZdcevfoM6pdErlj3BRvlKvglaM1BPPeMasy3nPHDKt5maeDmTWmiRO1dMRQpfj/Y7pz50p9XFWciC7XzNR1eVLuqOqXg9pLlic000IU9bLvMbXmz05htu1Xm7lX4xxVVzhXM0wuyd925UOduyDOIQCgNUi5REXejL+ZGmOHAAAAAJewZvTVXHG39hYDq9x6s8CCCx6EKjz6P4u5h5stWo5alh6Y/ZWSo1nmvmy2kLljXIH7qy3NChY47cIJ/vyEMYFCZ0Z+qswiCcFMam66CqaH8Y2kHCxTkRphK1SmO2NpH8d92aq9ll3IoT7mnnWlI2Z7iz8E3nfgXnXhvK3m4r3Hat+52bI0TJnm86YHFq4wY1Xnws87vzZvPpJZ1bbOvOPcvertCOAcAgBiUVmZ939Ypaf1DvQBAACACCQsX768Mi0tzXbdzKqmqbm151WNUUEji3wTJ0/VhPFjbQ9NwhRBR0mzTFHMDrVK8fI5GiIGP/uaNWtsq2F8Pl9Ev/8lJSVKTEy0vZrKy8tl/oZ5xxs33I4CQKwzi3GM1tLbX1XRNcGiXmBsxqUzVTntJDtWnes5aC0SOj7kPVZuvsh7BAAAaAphXbo7xcxwisWZfKhfjRlvGcp33RcPsY1zCABxa9G1A6utuHun+ny4so4iHwAAAFC/Bi7GgdYkc3qwOFuknNY6HS4lR0VtcTafFRfnEACwkx2r7n5oFuEoVu4dC+0eAAAAIHJhFPoCq4vWXIzDbK1oEQ4AAIBYZhbcmDdSun+0MqqvuAsAAABEgEt3AQAAYsGQW1VwaeBy3uwFdgwAAACIAJfuAgAAxIjMaa8qr78044zruXICAAAAEQtrRt/cGYu4dBdAq9Uryf9vzWEg50bOjZwbObfwc+cr50Fzv75HldVxeGABprIHlOEt1jFaM/zd4AIe4VziGz/fS3zkwhUvn5ecGzk3cm7k3Mi5kXNra7mE5cuXV6alpdlu85o4eaomjB9rewBaizVr1thWw/h8voh+/0tKSpSYmGh7NZWXl8v8DfOON264HQUAILYkdHzIe6zcfJH3CAAA0BTCWozDzOrLrjGbLyPw/zADAAAAAAAAiAlhFPrKlJ+RJRVUW4ijdIRmp3LpLgAAAAAAABArwij0lWrZojEaVn2J3ZShGjGABToAAAAAAACAWBFGoS9VfQbM0Nzq0/fK5mv2onQdnGL7AAAAAAAAAFpUGIW+FOUUFUhZ1e7Rl7pMEyqnq/okPwAAALRWC5Ud5kq+4Yn28QAAABCOMBfjyNT04P35vI0iHwAAQMMFCmEJO23XR/EeyCuUf0ITFNsWXL/T+6agBwAAEBtCFvrK8jOUkJGv2rfiK8xOUEI2S3EAAAA0xoDbX1Xl5pV2e1V5/R9VVrSKfQumK3exbUdJ4RVJSjjjUY2ZF3zPZpup9GsHKuGEB3b6Z0YAAAA0rxCFvjLNny3lzcpR7VvxZU4v0JgZc1l1FwAAIGp6K+fBGzVAj2piY2bIlT2gDDPT7oxH7UCULLheWffLK/JNH2LHPCdp+uaZGrP4FqVesdCOAQAAoCWEKPSZ1XbrWnDDLNDBqrsAWodeSf1tKzRybuTcyLmRcws7NzDftkILebyUS1RkZ9rtZofq0yvpt7ZVpezO4YFLc73i3QrlT3pU6thN19Uo8gWdpOtuP0K6/wXv/wiuOt6n3uXD7kt8F6qLN7awRiYwMzBw2XFwrNNeR9nnhBbr5zdcsf45yLmRcyPnRs6NnBs5N3JuCcuXL69MS0uz3erKlJ8xSppVpJydin2Fyk6Yq2GNvFffxMlTNWH8WNsDQqislB58UFq8WDr/fOmUU+yOVubll6XHH5f6+39BL77Y/xuYYHe0LmvWrLGthvH5fBH9/peUlCgxMdH2aiovL5f5G+Ydb9xwOwoAsc7co2+0lt7+qoqu6W3H/Mz97+ylsTVnzTVEHa/hVCu70/sI41g1nhPIz/AP7ziGt/8j5X34jP1ny7oyZibiEVU5M0Ox7y1Kj8p30nISOj7kPVZuvsh7BAAAaAohCn1+hdlKyJIKahT0TJEvS0vzSlW0cwUwIhT6ELYHHtA7s17QawedJM2fL+XmSl262J3hW7t2kw45pKfOPbevHYnMnDkf6qOPvlG3bp3sSATWr5fy8qShQ3XCJwt1+KhTpUsusTtbFwp9ANBYrsKZLXxdOlOV0/z/e2eZmXWp1xbbnku1olgNYRTndqiWTZu+c7HRFtsU6lg1CnJ1f76qsXAydY21PhT6AABAcwhd6DPK8pWRmqtFtmuMKajU9Cgsu0uhD2G77DJN3XqkcmaW24GGGzo0Vc89N9L2InP66Y9q/vxS22u4/NGJGtv+P9Lf/mZHWhcKfQDQWIHilZnNVqWugl1DRVIgs9lL/f/7eP9HGlH7fVDoazQKfQAAoDmEXHXXk5KjospKVVbbolHkAyJy/vn65X8f1ZLRm7Wk35ta8vJ5WrLksoi2oqKLvUP16NHZe2yI4HPNsVyvEXIz79m8d/9nON//WbxLkAEAbdqOVXc/NItwFCv3jpZdzGLR/Y9qkf99zC6otRhIykFKt806lZXV+D+GAQAA0PzqL/QBseCUU7T3w9N01AkpOuqlWTrq5EN01FG9ItqOPLKXd6gOHdp5jw0RfK45lus1Qm7mPZv37v8Mif7P0mrvMwgAiD6zgMY8M5tudK0FK1S1KEad23DlR2mBNK/w+OGN0rUDlb3ADnoOVJ/+0qInX1ZdL1VW8pH/v0dqWCu+jx4AAEBrR6EPrcehh0oXXSTts48daIXMezefwXwWAACqG3KrCi6VFtUqsqVc80xg1l+dWzQv9/VLuUSzbj9CM86oXkDsrZwbRkqLb9GUGgXAoIWaYu4jeOmpjVqoDQAAAI1DoQ8AACBGZE57VXn9pRlnXK9CO9YSTHGx4NJi5fat9j5sIXLGGUm1ZvsF7qE3o/+NKq22iAgAAACaH4U+AACAmNFbOQ+a+/U9qqyGXpJrFsXwLukNLPZhZgiaS3xrXxJcn8xpMzWm1vvInLZSlfNGesW+qkuHAwtlVL52iaI5sRAAAACRq3/V3SbEqrtoTps3b1OnTv+nSy45XPfff4Ydjcyll87TAw+8o02b/qiOHRt+r7/WjlV3AQCIDKvuAgCA5sCMPgAR+/jjjxu8tYReSf1tKzRybuTcyLmRcyPn1tZy4YqXz0vOjZwbOTdybuTcyLm1tRwz+tBmhDOjb86cD73Hc8/t6z3Wxoy+gOLiYtuKXHJyMjP6AABtDjP6AABAc2BGH+LO7373O73yyiu2V2Xr1u3e47vvfq0FC8q0bVugX913323wttpM1jzHPNcIHst47LHHdMMNN+iiiy7StGnT7CgAAAAAAEDzotDXVFatki67LLCZNppFQUGBlixZYns1bd9e6T3+5z9fKTPzHzr88OlaurTcGwvFZEzWPMc81wgey/jlL3+pSZMmeUW+Rx55RNu2bbN7AAAAAAAAmg+FvqYyfrz+vMuJ3mbaaB5ZWVk68UT/d+7QtWtHffHFb/XRR1fpnnuy9M03G3TccQ/p/ffrLsSafSZjsuY55rnmGOZYtb333nv+8a5q167tXtILAAAAAABaDoW+prJli4reX+Nt2rrVDqKl9eq1uw4+eE9dccXRWrToEnXq1E4XXjhXlXaC3mmnpXqbYWbtjRr1jJdZvPhS7znmueYYta1du1bXXXed7rjjDjsCAAAAAADQvCj0NZVbb5U+/1z64otAGzGnd+/uuv7641Rc/JVef32lN/bKKyu9zXjjjf/pnXe+9jJJST5vzGXz5s269NJLdfPNNys9Pd2OAgAAAAAANC+v0GdWtIzmBr/995cOPVTq10/abz87iKZm7tFnFuJ4+OGHtWLFCjtat8GDk73HRYs+9x7Xr9/sbUZR0Wfe46mnpniPdZkwYYI2bNig119/3Sv2ffPNN3YPAAAAAABA89klMTFRZjOC7cZsQEsy9+hbuHChHnroIfXu3duO1m233Tp4jz/+uMV7rO7HHwOXXHfu3N57rMtf/vIXzZ8/X3/605+8rWfPnnYPAACAlNDxIduq2QYAAIi2hIqKCu/uZOXl5VEp1JnjpKWl2V5oEydP1YTxY22v5axZ86OOP/4h7bnnbs5FFhrq7be/8B6POSZ6M/rWrdus774zs8cuks+3qx1FQz311DKdc85szZ59rs49t6/uu+/f3vjllx/lH/tA5533pJ58coTOPruPN46A4uJi24pccnKy/2fXF9Hvv5kpXNffp+DfHO9444bbUQAAYkft4l7l5otsCwAAILq4R5/ftm2VWrp0lVav3uhvb4/aVllZ6W2ufQ3dzHs079W8ZzTOli3b9Je/vKG99tpNmZmBy3NNQS9Y1MvKSvX23Xbbm14WrVevpP62FRo5N3Ju5NzIuZFza2u5cMXL5yXnRs6NnBs5N3Ju5NzaWo4ZfX7mnmxdu96qhx46U6NHH2ZHG27z5m3q2LGdTjvtUa///PMjd4w11syZ7+qii57VunXXq0uX6M0+bGs++2yNfvOb5/3nplSzZg3Tr3/9M2/8b38LzFS77LIjvMdHHnlPo0bN9Vbivffe03TAAXUvytGWMKMPAIDwMaMPAAA0F2b0Rdmf//yaBg9+ROvXV93zzVxuO2jQLN166+t2BC3B3HMvOflOJSXl68ADp+qFFz7WXXdl7ijyGcGZk0Fm3513DvGy5jnmueYYwfv3AQAA1Kd6YY8iHwAAaEoU+qLshBN6q7j4K2Vl/UObNm31NtN+992vdfzxSTaFlrB9e6U3k++LL9Z6lz7vvnsnHXTQHnZv3ZKTe3hZ8xzzXHMMcywAAAAAAIBYQqEvDF9/vc62dvbpp99r48aq2XvHH/8TFRRc4BX7XnllhbeZIp8ZO+64n9iUtGHDFu+5Lua+fqFeEw1jVtjdvHmCt7388ijtv383DRv2uL/9iU3szOwzGZM1zwk+P7haLwAAAAAAQKyg0FePDz/8Rmlpd+nCC+fakSpfffWDjjvuIWVm/kNbt1Zd7mmKfXPmnOvNADObWdG1epHPLOwwZMjfvZV+axf0TJHPvJZ5TfPaiL5ddknQyScf6K1cnJTUXZdd9px3D0VjxIh+3maYMbPPZEzWPMc8FwAAAAAAIBZR6AuhrGy1fvGLv3uzt8yiDFddVWD3mAUA1nn33TOX5hYVfabzz39yR7HP3JNv0qTXveeZ7dZb3/DGDFPkO++8J/XWW19o48at3v38Vq1a7+0zRb6rrirU3//+X+955rXNe0DT6Natk2644Xh9+mmFXnopMKtv9uwPvM0wY2bfDTcc52UBAAAAAABiWdsp9C1fLk2aJP3nP3YgNFNgO+mkh9WpUzstWXKZ7rorS9OmLfGKfWYW3sknP6zvvtuo1167SI89drbmzVvuFfu+/37jjnvyvfDCr7Vgwa+8y3jNCrxmnynymZVeH3/8bO+5psh3yimzvMKhKfLde+8S3X13lvea5rXNewi72Gc+m/mM5rMiLMcee4D3+M47X3uP1ZnzZhx7bNVsTAAAAAAAgFjVNgp9a9dK48bp390O0ZTTJ+u2P7+iKVOKdmz5+W95scLCMq8/efIbO4p8CxdeqAMO8OnKK4/eUew75JC7vSLfv/51ofr27amzz+67o9jXu/dUr8hXWPgrr4hU/Z59Zt/8+SVekW/48D7q16+ndwxT7Dv44Lt3FPmuuOJo7zXNaweLfeY9mfdm3qNh3nP1z+B9Jv9nM5/RfFbvMwMAACB+LbheCR2Tam3DlR/4x8VqVij/hCRl3LnC9gEAQLwKs9D3iaYN7q6cF6va3bt31+BpdS9iEFO++ko6+GAt1v666dtDdfP/vaGbbnplx2YuszWefXa517/55lfVtWvHHUW+IFPsmzDhBO9y3fnzR3pFviBT7LvvvqFav36zd0++4EwxwxT7zJjZN2PG6V6RL8gU+8yxNm3apj/96USvyBcULPaZ92Lek3lv5j0a5j1X/wzeZ/J/NvMZzWf1PjPq9eabn3mPhx++j/dY3RFH7Os9BjMAAACxovCKJCWc8ajGzFupys3VtnmHKPfiB1Sj1rdgunIX2zYAAIhrYRb6PlbJktE6bbC/+eKduqHfHFVUzFG/G+6UV/uLdabwZe5/99Ikrb9ghdavu17r19+wY1u16lovdt99p3n9jRv/oGXLrlRCwg86++yzdemll+rrrwOXdt5880kqLb1GRx3Vy+tXd/HFh+vTT8dqyJAUO1IlMzPF2zd69GF2pMrRR/fyH/Nq/elPA/Xhhx/qoosu0lVXXaUVK1Z4xT7zXsx7Mu/NvEfDvOfqn8H7TP7PZj6jx3xmhLR27SavYHrggd01aNBB3lj1xTjMmNlnMiaL1qtXUn/bCo2cGzk3cm7k3Mi5tbVcuOo93oLrlXW/tFuPfTV9iB0LGnKrKl+7RN4/jZY9oAwzy++MR71d9Yn174+cGzk3cm7k3Mi5kXOL9VxCRUVFpWmUl5crMTHRG9zZi8rp/rxOq8iXv6Hb0or14hXStMHZ0vQXdUWgRuIxx0lLS7O90CZOnqoJ48faXjOo9H/UhJ1XTTUz7bp2vVUPPXRmjULc559/rrFjx6pnz5669dZbtccee9g9TeuVV17R3nvvrb59+9qRKjNnvquLLnpW69Zdry5dOtrRaur4jKiyfXul/zteodzcf2rZsm9UWHiBTjkl8EN8333/9h4vv/wo7/Hllz/xVlXu06en8vJ+oRNP7M3Ku37FxcW2Fbnk5GT5fL6Ifv9LSkrq/PsU/JvjHW/ccDsKAEBsSej4kPdYufki77HhzGW4A5WrG1UaLOjVa6GyO47W0ttfVdE1ve0YAACIR2HO6Bus/DnSud2769yZo/U7U9kzM/s0XEOqFfliXgMKYFlZWbrkkkv00ksv2ZEYR5GvThs2bFHHjhO9zSyA8vnnazV37vk7inwuZp/JmKx5TvD55lgAAADNruxlzV4sDTjnlDCLfAAAoC0JfzGOwfmqqKjwb/kyV/B6/RevUGuq80WqW7du+uqrr/Tyyy/rzDPPtKNNr3fv3t4sQkSXmYlnLoXeb79uatcuQT/8sEkff1z/isYmY7LmOfvv7/OOwaw+AAAAAAAQa8Iv9H0yTYO7m0U4Bstbg+PFHHUfPE2tZDmOBjGFvj/+8Y8aP368OnZ0XCbbRCj0NY1dd22vjz++RitX5mjFihydemqyrrlmgR555D2bkNq128Xbgh555L9exmTNc1asGOsdwxwLAAAAAAAgloR5jz6z0m7gfnypdw5W6TXmvnxVY63mHn11MAst+HyTdfnlR+qEE5LsaGx67bWVuu++/2jNmvHq1q2THUVDbNmyTcce+6A+/bTCWyjFrG78zTfrvX09e3bRunWbdeCBU3XQQXvojTcuUocO7bx94B59AABEKmr36DMLbPS9RYrofnvcow8AgLaiAYtxxF+hzxR39t77dttrHcyqu6YYhcZ56qllOuec2Zo9+1yde27fGotxzJ79gc4770k9+eQInX12H28cART6AACIDItxAACA5hBmoc9cqdtdz59WodOet4W+j3PU/bY0Fde6T19rLPSZhWpXrPheu+3WUR06hH81c0vYsmW7NmzYrN6992DdjSj45JPvlZx8p266aaD+9KcTaxT6brrpFd1886vepbpmVh+qUOgDACAy0Sv0SWV3DlfqtcUaM2+lpg+xgyFR6AMAoK0Iu6o1OL9YabeZVXeX6IYjuqv7udKcOFmMwxTMDjxwDyUmdlGPHp1jejPv0bxXinzREVw9d9ddO3iP1XXuHBjbuHGr9wgAABALUq55RgWXSjPOSFL2AjsYtOB6JZzwgMpsFwAAtC0RTF87SFe8aFbdDW529V2gFXvxxcByMgMG7O89dunS0duM4NgLL/CPygAAILZkTlupynkjvWJfQsdq2xkfKe9Be0mvuZ+fNz5aM/zdRdcO9DIZd64wewEAQByqp9Bn7s2X4/9v82hW3K29mX1A67RiRYVuvfV1HXHEvjr++MAiLCeemORtxnHH/USHH76PP/OGl0Xr1Supv22FRs6NnBs5N3Ju5NzaWi5cYb9u9kJVbl5Za3tGOcEb96VcoiL/2L777lsjU9flu7H+/ZFzI+dGzo2cGzk3cm6xngv7Hn3hao336EPb8eWXP3irLP/rX59q4sTXtHHjFr3xxsU69NC9vf3V79FnvP/+Km9l3t1266AJE07QyScf6K123KvX7t7+top79AEAEJlo3qMPAACgLmFeuhuc2Qe0XuvWbdZ++92hPn3u0ZVXFmjvvbvo9dcv2lHkczH73njjIvXsuZv3HPNccwxzLAAAAAAAgFgSZqFvsK6Z9IGep9KHVmyXXQIrmBx55L4qLLxAxcVjlJ5e/yxWk3nnnWzvOea5RvBYAAAAAAAAsSLsGX133rBEM8/lHn1ovdq3D/y4H3bYPhoyJEXt2u3847/nnrt5W20ma55jnmsEjwUAANomcyluJFuQa1+oDQAAIBJhz+jL37HaLivvIn6de25fbwMAAAAAAGhtwp6W9Mm0wbVm8zGjDwAAAGgxC65XQsekWttw5ZfZ/Q22QvknJCnjzhW231gLlb3T+7TbCQ+o0W8XAADsEGahz1y6209zKoo16ejR/scKVRRP0tGjT2NGHwAAANDMCq9IUsIZj2rMvJWq3Fxtm3eIci9uZPFswXTlLrbtKBpw+6s136vZXrtEKXY/AABovAhvNHaQUvsFm0M0/IPbNO0T2wcAAADaiMrNFzXL5rTgemXdL6/IN32IHQsacmvDi2dlDyjDzLI741E7AAAAWpswC33JSjv6A5V+4m+lBVff/VglS/op9SAvAAAAAKDJrVD+pEel/jfqutpFvsZKuURF3ky7mRpjh+oXuCw3486F3uW+wUtyo3fZLwAAiESYhb6DdMWLL+qKg/ytK17Uac+b+/PdprRiFuNAM3r/femhh6Svv7YDrZB57+YzmM+CZtMrqb9thUbOjZwbOTdybuTcyLmFzJW9rNmLpQHnnKITYuj9Lbp2tJbdYC/HnTfS38+Vb7/YeX8u5NzIuZFzI+dGzo2cW7RzCRUVFZWmUV5ersTERG+wMcxx0tLSbC+0iZOnasL4sbYHhPDyy1r1u5v1v58eLy1ZIt15p9Stm90Zni1btikj40GNGvVTPfzwcDsamQsvfEazZv1XRUUXq0OHdnY0TGvXSldfLR1zjH7y39e1921/kk45xe5sXYqLi20rcsnJyfL5fBH9/peUlNT59yn4N8c73riGnVcAAFoNc3lt31uk219V0TW97aBb2Z3DlXptqP/NPkJ5Hz6jnJ2u8zWz9EZraRiv4c7WHgv0ZwR21nTpTFVOO8l2AABAY4VZ6HtROd2f12kV9c/go9CHJnHZZZq69UjlzCy3Aw03dGiqnntupO1F5vTTH9X8+aW213D5oxM1tv1/pL/9zY60LhT6AABtXULHh2yrae10n74ICn0N1zSFvvCOBwAAGiPsGX2fTBusO1NfVH49lT4KfWgSDzygd2a9oNcOOkmaP1/KzZW6dLE7w7d27SYdckhPnXtuXzsSmTlzPtRHH32jbt062ZEIrF8v5eWZSqNO+GShDh91qnTJJXZn60KhDwDQ1lHoC6LQBwBALIlgRt+5mml7VUZrTq1ZfhT60CQq/T+mDz4oLV4snX9+q73k1VyCrMcfl/r3ly6+2P8bmGB3tC4U+gAAbV2LFfrMYhwnDFSublRpPavrxtqluxT6AABoemEuxjFY+RUVqthpYzEONBNTEDOz38ylrq21yGeY924+g/ksrbTIBwAAWlJvDT3nCGnxLZqywA7VIeWaZwKLY9S5uYp8AACgNQuz0Of3yTQN7m5W2w1uOXrR7gIAAADaEjPTLpItyLUv1OZiCngFl0ozzkhSdu1i34LrlXDCAyqzXQAA0LaEWej7RNOyb1C/OdVm882Rzh08zb8HAAAAQHPKnLZSlfNGesW+hI7VtjM+Ut6DoS/prZO5/593nMAKuYuuHegdM+POFYH9AAAg5oVZ6PtYJUtG67Tq1+kOvkaT9IwWUOkDAAAAmt+QWxXVy3FTLlHRTsdbWc999U7S9J0ytcdcGQAA0BTCvkffaaNn6vka1+qa4l8/pR5kuwAAAAAAAABaTIhCn1lpt+qefOfOlGaeW/0efa5VeAEg9vRK6m9boZFzI+dGzo2cGzm3tpYLV7x8XnJu5NzIuZFzI+dGzq2t5RIqKioqTaO8vFyJiYneYGOY46SlpdleaBMnT9WE8WNtD0BrUVxcbFuRS05Ols/ni+j3v6SkpM6/T8G/Od7xxg23owAAxJaEjg95j3UtsAEAABAN9Vy6a2b1mdV1a87uq9pYeRcAAAAAAACIBfUU+gYrvyLf/9/msdqKuzs2sw8AAAAAAABASwtzMQ6X4Gw/AAAAAAAAAC2tEYU+oBUpy1dGRr7KbLdRonksAAAAAACAKInPQp8pxCQkKGHHlq1Cu6tOjS3eVH9+UxaCWnuRKXhusmuekcJs/1h9nyvanz34XsL9GWms1n7uAAAAAABATAtjMQ7XIhxmO1czbSomDchTaWWlKs1WIGU1Z4ElJUdFRTlKsV3UMmCMxiydqPzgCSnL18SlAzTAdpuNOU+leRrg/axMV6YdBgAAAAAAaI3CWIzDtQhHcGsli3FkDtOYRctUatrOWVxlyh+Vq0WLcpXqH88wFagauYxAUcrOyMo3s8/svsDEtFrP/+MfqmZuuV7PO062sjOCx/A/f0fbBGxmx/Ps6zfofTbDTLWI9dGwEdLs+d6HUuGUXKWP8A8Y9r0H9vjt6If4jo1qzyvLz7DfR/XvLgw1vrfA5jwfqf73ERyr4z34P5Wyg3nvOPWdu+o/GzXPXY3PU/31AAAAAAAAqmkT9+gry5+oGQP6KNUUX1JzlV4QmOlXmrdUWV4lJ0U5s4IzuypVlFPqzy3ThOCMwNIRmj3KFlgW5WrZsOBMwTGaMdGM13r+6J4m6VfX6/ktWqo+s+wxskZJwbZ3PPM81+s35H3G5ky11JwJSs+dosIyM5svT9cNtTvqVNd3vLOUnKLA92G2gnTlTglW68LgPL81z2OlmQVo426mcJslBfP+bXqm69zV9bNR7dz5v59Ruen+QwVyBem2YA0AAAAAAFBL/Bb67MwpMwsqdfYIlZpLacuWa+mAPF1nK18pQ0dowIy53qypGkxOM5QVnEVlZnAFZwRWe75S+4Qu+IR6vQEjNNRc22uOUb1t9oV6/erCfZ8xKVPDxvjfuyl2TYjyZc7VZ8plzZCWLg8UP8PhOr+1zmO9yuZrturJh/zZqPbclIOV7p3jwOy+zOlcYtwQvZL621Zo5NzIuZFzI+dGzq2t5cIVL5+XnBs5N3Ju5NzIuZFza2u5+C30DQjMnPJmVDXkfnnVn+9tzVxgCff1W/p9NkLmdWZm3BgNi+YbNkW+1NkaUWq/j3pn38W6TE33zuswzfWKl7F4KXbs+3LlYtsKjZwbOTdybuTcyLm1tVy44uXzknMj50bOjZwbOTdybm0t1yYu3d3BzI5alKvglZxl82dr0ZhhVYWx4Gy4Wrmw1Z51V9/r1aW+12/s+4wVZjEMV2Gy2vfofWe27an+HdeVC86Q9Nvp+Q3hfc+zZW8pWPOYrveQMlQjVMd5qePcec91/WyU5Svbu8mgKfiVKm/AUi0Pe3oiAAAAAABoS9pWoc8US0rztDQrcFlnqrn32XRbWknJ0QRzKal/PCM/tUbO2+pbBKH682d+YwdDvF5INZ9X4/Ub+z5jnf/zzTL3q7OfZ9Sy9KoZedU/+/yh7pzJpFddtl3j+bV5s/+CC2SEminnPx/mXn+pO7+W+70G7sdX/bwEbgVZ97mr82cj5WD5X9geJ1WzR8xSTlSvcwYAAAAAAPEioaKiotI0ysvLlZiY6A02hjlOWlqa7YU2cfJUTRg/1vYAtBbFxcW2Fbnk5GT5fL6Ifv9LSkrq/PsU/JvjHW/ccDsKAEBsSej4kPdYufki7xEAAKAptLEZfQAAAAAAAEB8otAHAAAAAAAAxIEahT5zCVxjNwAAAAAAAADNb0ehz9z/KhobAAAAgCrB+/MZ1dsAAADRxqW7AAAAAAAAQByg0Acg7vVK6m9boZFzI+dGzo2cGzm3tpYLV7x8XnJu5NzIuZFzI+dGzq2t5RIqKioqbTsqzH360tLSbC+0iZOnasL4sbYHoLUoLi62rcglJyfL5/NF9PtfUlJS560Bgn9zvOONG25HAQCIHbUv163cfJFtAQAARBcz+gAAAIAmVL2wR5EPAAA0JQp9AAAAAAAAQByg0AcAAAAAAADEAQp9AAAAAAAAQByg0AcAAAAAAADEAQp9AAAAAAAAQByg0BeJDz6QvvnGdtBq/Pvf0ujR0rhx0rff2sEGMOf+t78NHMscEwAAAAAAIIZQ6AvXqlW6+/dP6YT+0zVw4Ezndthh92nmzHftExATVq7Ulgsv0hPtf6aXv+kqnXGG3dEAZ56pl7/d3TuWOaY5NgAAAAAAQKyg0BeuvffWZRceqoKZg/X88yOd24gR/dShA19pTFm4UBsHZer8B9bqT58kSZs3N2xW5qpV3nPNMcyxzDH1yit2J2Jdr6T+thUaOTdybuTcyLmRc2truXDFy+cl50bOjZwbOTdybuTc2louoaKiotK2o6K8vFxpaWm2F9rEyVM1YfxY22v9br+9SL167a6RI9PtCFrcBx9o7a8uke/dTGWkdtKbuz4qvfee/yc/wQbCVOn/NfnZz3TsjyNVVLpJaw4rVLe/PyD162cDbUtxcbFtRS45OVk+ny+i3/+SkhIlJibaXk3Bvzne8cYNt6MAAMSWhI4PeY+Vmy/yHgEAAJoC088Q3/r1U+Xvfhdor1kjzZkTeZHPMM8xzzXHMH7/+zZb5AMAAAAAALGJQh/iXsJppwUeU1Olgw/22g3if653DCMrK/AIAAAAAAAQIyj0RcGHH37oPW7evE033fSKHn/8fa///fcb/duPXhsAAAAAAABoShT6Gmnt2rWaPn26177hhuP1zjuXa9685d72ySffexsAAAAAAADQ1Cj0NVK3bt10/PHH257UpUsH/eUvgzRt2hJvYQ6zAQAAAAAAAE2NQl8jmRl9H3300Y7Ld40ff9ymTp3a2x4AAAAAAADQ9Cj0NZKZ0ffHP/5Rffv21caNW7Rs2Te68srn9bvfZejLL3/wNgAAAAAAAKCpUeiLohkz/qNjj31QPXt28T/+hEt3AQAAAAAA0Gwo9EXR2LH99d13v9N+++2u++8vtqNoTt98840KCgpsL2DLlu3eY0XFj/r887Veu6HWrdvsPb7//irvEa1Dr6T+thUaOTdybuTcyLmRc2truXDFy+cl50bOjZwbOTdybuTc2louoaKiotK2o6K8vFxpaWm2F9rEyVM1YfxY24sf5eXrNHLk07rttkH+XoKOPHLfwA40qVdffVVTpkxR7969dffdd9tR6Ysv1mr//fO8dkKCNGjQQcrLG6J+/Xp6Y5HYf/87/McLXI6dmtpDkycP0lln9fH6bUlxccML2cnJyfL5fBH9/peUlCgxMdH2agr+zfGON264HQUAILYkdHzIe6zcfJH3CAAA0BSY0dcEvvxynfbaazcu3W0BPXvuXLzz+XbVzTefqOuvP04nnJCkF1/8RD//+d9UWFhqE+G77roM3XjjQI0Y0c+bHXj22bP1hz/8y+4FAAAAAABoORT6oujjj1friSc+0FVXFXiFJTSvgQMH6sILL7S9Kl27dvSKc5MmnaJXXhmtl176tbcq8nnnPamystU2FR5zebY5t088cY6WL79KRx3Vy3/c1zVz5rs2AQAAAAAA0DIo9EXRW299ofz8xdp3365KSekR+aq7W7dKqyMrPCFyp5xykGbOPFM//LBZN9zwsh2N3AEH+FRQcIF69Ois3//+JW/VZQAAAAAAgJZCoS+KRo5M16JFl2jgwN76618X7XTp7ssvf6Krry7Ub3/7T/c2JE/PXjONYl8zOP30g7179M2bt1xr126yo5Hr2XM3XXzx4Vq1ar3++c+P7SgAAAAAAEDzo9DXBH75y0Od93/77LO12rp1m84442DndvppKep3SA9zUzn7DETi5ptv1kknnaR77rnHe6zPMcfsp02btqm0tHGF1aOP7uU9shIvAAAAAABoSRT6moAp+CQn73zpbseO7bzxE0/s7dxOyh2ulD9eIbVrZ5+BSPzpT39SZWWlty1cuNCO1m2XXRK8x+3bt3uPDWVW8jX8LwsAAAAAANBiKPRF0b///aVuu+1N775vEyeexKq7Me4///lKHTrsotTUPe1Iw7zzztfeY9++O6/4CwAAkNDxIduq2QYAAIg2Cn1R9OKLH3sr7xYWXkCBL8a99NInevfdr5WZmaru3Xe1o5H7/vuNeuCBd7THHrvqF79ItqMAAAAAAADNj0JfFHXo0M5biMPnCxSOql+6ay7nnTnzXW3atFUPP/ywxo4dq23btnn70LzM6si/+tXT6ty5vSZNOtmORu6bb9brzDMf9xbiMDM4u3btaPcg1vRK6m9boZFzI+dGzo2cGzm3tpYLV7x8XnJu5NzIuZFzI+dGzq2t5RIqKiqiemex8vJypaWl2V5oEydP1YTxY22v9bv99iJvJp9Zfdf46itT5EvQ11//oLFjF+imm070Lu9s126jpkyZottuu83LoWmtX79ZU6e+pW3btmvJki/1/POl3iW7//jH2Tr77D42FZ57712i1as3asWKCs2Z86HWrNmkK688WnffnWUTbUNxcbFtRS45OVk+ny+i3/+SkhIlJibaXk3Bvzne8cYNt6MAAMSO2pfrVm6+yLYAAACiixl9kdi40TYi83//97ruvXeoTj75QO2zT1fNmTNH7du3Z0ZfMzHFuD/84V+68cZX9NxzJdq+vVJTp2ZGXOQzzLn84x8X6v773/GOe+aZB7e5Ih8AAIhM9cIeRT4AANCUKPSFa+1aLbziNt1+wT3ezD3X9uqrK7Ru3Wb7hKpLd9eu3aQeParuA3fFFVdo0qRJasfqus2iW7dOuuWWE3XjjSdo8OCDvFVyc3MXeEW/SF1//XG6+eYT9etf/1RdunTQs88u17XXvmD3AgAAAAAAtBwKfeHq0EG+bp3U64DuO1bTrb2dfvrBOuaY/ewTtGP8oosO0y23vKatW7fbPWhO5t55EyYM1M03n6QXXvi1Xn31InXp0lG//OWT+uijb20qPFdddYxuvHGgZs0artLSa9S//376618X6W9/a/ilrAAAAAAAANFAoS9cnTvriPzfa+TkC7x78Lm2MWOO1GGH7WOfUMXsW7PmR3XtOklTprxpR9FSjj/+J5o1a5jWr9/iXdLbUPvu21Xz54/UXnvtphtueFkbNmyxewAAAAAAAJofhb5ImGs+IxC8dPfFFz/2ikorV+bquuuOtXvRkjIzU/XTnyZq/vwSrwjbUHvuuZsuueRwffvtBv3znx/bUQAAAAAAgOZHoa8JBS/dzc9/S1OnDlFiYhe7B7HgqKN6afPmbSotXW1HGubII3t5jx98sMp7BAAAAAAAaAkJFRUVlbYdFeXl5UpLS7O90CZOnqoJ48faXvz56qsf/P+doEsvnad77slS797dAzsQEy65ZJ4efPAdLVlymVf0a6g5cz7UiBFzNHHiSfrjH0+wo/GtuLjh9yRMTk6Wz+eL6Pe/pKREiYmJtldT8G+Od7xxw+0oAABN69XXvtYrr35te/W7aeI7gccJh3uP4Thx4D4aeMLOt4UBAACoC4W+JvSf/3zp/+8ErV69QXffvUQzZpzOrL4Y8rOf3ectxrFq1bXy+apWRY7U+PEv6S9/eVNPP32ehg8/xI7GNwp9AIC27uaJ7+4o3jUVUxT804TDbA8AAKB+XLobicrIaqLBS3cHD05Wly4dlJSUx2IcMaKwsFT//W+5hg5Na1SR77vvNuiBB97xFuT4xS+S7ShiTa+k/rYVGjk3cm7k3Mi5kXOLl1xLiZfvj5wbOTdybuTcyLmRc4uXHDP6wrVxo4p/n6+POh9gpoLZwZrWrdusY47Zb8fKu8FLdxcu/FSvv/4/3XVXptq3p7ba0sy5OOusJ/yndIv+/e8xOuSQveyeyHz11Tr/cR7X4sVfeLM1L7vsCLsn/jGjDwDQ1kV66W5DcOkuAACIFIW+cK1dq1fG5unfW3pKh7kvoXj11RU6/fSDNWbMkV4/eOmuubRz1qxh2nff3b1xNC9TgM3LW6StW7dr0aLP9dJLn2jXXdvriSfO9Z+v8H5Wg+6++22tXr1RZWWr9fTTy7zVlMeNG6Dbbz/VJtoGCn0AAAAAAMQeppeFq1s3nTjtd7r271fo2msznNvAgb3VtWtH+wTtuHS3W7dOWr36RzuK5rZ27SbdeOMruuWW1/Tii594V2Dn5Q2JuMhn3HrrG/rTn17RI4/81yvynXnmwW2uyAcAAAAAAGJTu/Hjx99k21Gxfv167bnnnrYX2mtvvKWBx4V3jXFM6NDBNtyKij7T7rt3Unp6YOaRmUlmZvQdccQ+uuqqAiUldVfnzh1qFAPR9HbZJUFdunTUiScmed+9mY33wgsfq0+fnurbt6dNhWe33dprwID9lZzcQx9/vFrvvVeub7/doKysVJtoG7766ivbilyPHj206667RvT7/9133/nPXVfbqyn4N8c7XkYfOwoAQPMyl/I+PKvMe2zolpAg9U5y/+8dAABAOLh0N4puv73Im8E3cmS61w9eunvkkfvq/fdX6be//acGDkzSH/5wgrcfLeOtt77QmWc+5s30W7LkMvXrt7fdE5lvvlmvs8+e7d3z7+67M3XllcfYPfGPS3cBAKgpGqvwssouAABoLC7dbaSHH35Yc+bM8dpbtmzz7tO3Zk3gMt3gpbvGoYfurdGjD1OnTu29PlrOz3++n/7+97O0ceNW3XDDv+xo5Hr27KJnnz1fe+/dRRMmLLQzOAEAAAAAAFoGhb5GuvDCC/X9999r27ZtGjw42bukc8iQv+vLL82Ku4hVgwYd5K2OXFhYqoqKht8/cY89OuuSSw73/wz8qH/+82M7CgAA2hqzQq6ZkdeYzRwDAACgMbh0t5GWLFmiDRs2aODAgXZEeuWVFd5iDVdccZS/F7h013j00aVeAdAs3IGWd+ml8/TAA+/o7bcv1dFH72dHIzdnzgcaMeJJ3XLLSZowoW1cls2luwAAAAAAxB5m9DXShx9+qEWLFmnz5qrLNs1lumahhuqX7hqbN2/zxk0h0LUtvONplU28R9q2zT4DTWn79kCNe5ddGvdrYFbxNcyiHwAAAAAAAC2FQl8jmUt3x48fr44dq1bSfeyx95WZufMqrAcc0E3t27fTvHnLndtzBR/rg49WS2vX2megKb399hfq1KmdUlN72JGGWbLELLoi9esX2Qq+aD69ksJb3ZecGzk3cm7k3Mi5xXPOrKJrFuiovnXb86oafZNxaY2f14WcGzk3cm7k3Mi5kXNrazku3Y0ic2nunXe+pf32211PPHGu3nvP/MNb1aW79TIz+UyRb4897ACaynPPleiMMx7Tuef21ezZ59rRyH3zzQYdcsjdat9+F61YMVadO3ewe+Ibl+4CABCaKeTVtwqvuS8fq+wCAIBoYkZfFJnVXHNz++vrr9errGznS3fr1a4dRb5m8PLLn+rCC5/R7rt31KRJp9jRyH322RplZf1Dq1dv1F/+MqjNFPkAAAAAAEBsYkZfE3jnna81efIbys//hb+XoH337RrYgRaxbt1m3XHHIv3441a9+eZneu21lerSpYPmzDnXeYl1KFOnLtbq1T/qo4++1XPPLdfGjVt1ww3H689/Ptkm2gZm9AEAEJq5LPeVV92X5gaZVXYHnsBKuwAAIHoo9DWB8vJ1Gjnyad122yB/L4JLd9EkvvhirfbfP89rJyRIgwYdpLy8X6hfv729sUjsv/8d/uP94LXNvf0mTx6ks87q4/XbEgp9AAAAAADEHi7djbLKykr99a+LNHJkeuSX7qJJ7Lpr4JJas1jG//6Xqxde+HWDinzGXnvt5j2++ebFKim5uk0W+QAAAAAAQGyi0BdF5rLOPfe8zZvxdcklh9tRtLQOHQI/5t2776r99+/mtRuqa9fA6sqHHtqwQiEAAAAAAEBTodAXRWPGHKmiokv0zTfr9eab/9OXX/7gbQAAAAAAAEBTo9AXRWbV1UMO2Uv33HOabrutiEt3AQAAAAAA0Gwo9DWBXXdtp02bttoeAAAAAAAA0PQo9EXZ+vVb9Pvfv6QrrjiaS3eBGNErqb9thUbOjZwbOTdybuTcyLmRcyPnRs6NnBs5N3Ju5NxiPZdQUVFRadtRUV5errS0NNsLbeLkqZowfqzttX6TJr2umTPf1S23nKTzzz9U33+/0RvfY4/O3iNaxtq1m+TzTdaxxx6gN9642I42zHHHPag33/xMa9aMV7dunexo21NcXGxbkUtOTvafD19Ev/8lJSVKTEy0vZqCf3O8440bbkcBAAAAAGh7mNEXRR07ttNNN53oFfkMU+CjyAcAAAAAAIDmQKEPca/y+ecDj6Wl0kcfee0G8T/XO4ZRUBB4BAAAAAAAiBEU+hDfPvhACbfdFmj7fNKIEVJlA65WN88xzzXHMP7yF+/YAAAAAAAAsYJCXwQ2zXlaP7y2WOvWbXZumzdvU2VDikhoOkuWSCec4DUT9t7bXF8tffut14/IN994z/WOYZhj/vvfgTYAAAAAAEAMoNAXrlWr9LeH39dpF72k00571LnNnv2BtmzZbp+AmHDSSer8UqEev6Sbbj5oZaDQ17On3RkBWyQ0xzDHMsfUiSfanQAAAAAAAC2PQl+49t5bV912jl5763K9+upo5/buu5dr9OjD7BMQE5KS1OHhh3Te1vd0Ss910rx5dkcD+J9rjmGOZY5pjg0AAAAAABArKPRFom9faa+9bAetxlFHSTNnSn/9a+POn3muOYY5ljkmAAAAAABADKHQBwAAAAAAAMQBCn0A4l6vpP62FRo5N3Ju5NzIuZFzI+dGzo2cGzk3cm7k3Mi5kXOL9VxCRUVFVJeJLS8vV1pamu2FNnHyVE0YP9b2ALQWxcXFthW55ORk+Xy+iH7/S0pKlJiYaHs1Bf/meMcbN9yOAgAAAADQ9jCjDwAAAAAAAIgDFPoAAAAAAACAOEChDwAAAAAAAIgDFPqioSxfGRn5KrPdRonmsRAa5w0AAAAAAMSRVlboK1R2QoISglt2oR23TLHFMV6Y7R+rrwgT7UJN8L14W7b/nTexWCw02e8gI7/au3K9z+B3xXkDAAAAAABosNZV6CucKxVUqrLSbKXKWzpR1WtIngFjNKb6eFm+Ji4doAG222xSclRUmqcBA/JUWjldmXa4zfGfj/TZo3Y+T7Vx3gAAAAAAABqldRX6Mqdr+o7KS6mWLUrXwSm2u0MfDRshzZ4fqBgVTslV+gj/gFF79tSOfpnyR+Vq0aJcpZoZaH/8Qx0508yws73MllF/ASvIHiPfzFKzz98xgc3sCx4z1f8+gmN1vIfaMxuzC2u9f/Omqh8zODOtxnsIjNX4PNVfL2r66LoJ6cqdUt/cOM5bbJ03AAAAAADQ2rTCe/SVKT/DFDjmalgdM65ScyYoPXeKCsvMrLA8XTfU7qhTinJmBWdxVapodE87vrOUnCI7o9C/FYRTwKpmUa6WDQs+d4xmTDQFmkJlp+YqPThT0cwms3E38/mzqs1srNT0zFrvP6e0xjFL85YqK1id2vEe/N+d//sZlZvuP1QgV5C+TKWBVHRlTleBsqoKZHXgvMXYeQMAAAAAAK1KKyz0pSinyBQ4hmlunTOzMjVszAxlmaLJhBz/M6LIzK4KzqTKmiEtXa6wZ1MNyNN1wcpkap9AYahsuZZWH69P2XzNVj35WsdMGTpCA2bMDcwOq/5aKQcrXf7vyc4Sy5zedJeqZl6Xp6VegSwUzlusnbd40Supv22FRs6NnBs5N3Ju5NzIuZFzI+dGzo2cGzk3cm7k3GI91woLfUGmKLRIy+qYymQKSwM0RsOiWQExxaLU2RpRGphJVf8srliXqenerDBTNDVFMHupaFNIydGsEbM1Zb7t14HzFo5mPG9x4suVi20rNHJu5NzIuZFzI+dGzo2cGzk3cm7k3Mi5kXMj5xbruVZV6CvLz642g69Qc2cMUJ9U263NLKrgurR3UdVljmXzZwfuqxZUbV+duQEjNNRONdvp+Q1hZmctmi17a7qax3S9h5ShGqFcOa88Dea9Y1ZlvOeOGbbzd1GWr2zvCzWFo1LlDViq5WFPc4tcSs4EKdfey64unLeYO28AAAAAAKB1aFWFvpSDpdxUe/llgrnfWZFyIrm+08wqM/c9s5dwjlqWXjWzy79vgrls1D+eMX+oO2cy6YGFE3Z6fm3eLLLgQguhZlxlarq5Z5z9XNVfy/1eA/d1W5oVGDebdxu36u8/P1XTS6syqeZ+blWrmFQJfKH2OKmaPWJWZN9nxMxnHWPbEeC81dTs5w0AAAAAALQGCRUVFZW2HRXl5eVKS0uzvdAmTp6qCePH2h6A1qK4uNi2IpecnCyfzxfR739JSYkSExNtr6bg3xzveOOG21EAAAAAANqeVnyPPgAAAAAAAABBFPoAAAAAAACAOEChDwAAAAAAAIgDFPoAAAAAAACAOEChDwAAAAAAAIgDFPoAxL1eSf1tKzRybuTcyLmRcyPnRs6NnBs5N3Ju5NzIuZFzI+cW67mEioqKStuOivLycqWlpdleaBMnT9WE8WNtD0BrUVxcbFuRS05Ols/ni+j3v6SkRImJibZXU/Bvjne8ccPtKAAAAAAAbQ8z+gAAAAAAAIA4QKEPAAAAAAAAiAMU+gAAAAAAAIA4QKEPAAAAAAAAiAMU+gAAAAAAAIA4QKEPAAAAAAAAiAMU+gAAAAAAAIA4QKEPAAAAAAAAiAMU+gDEvV5J/W0rNHJu5NzIuZFzI+dGzo2cGzk3cm7k3Mi5kXMj5xbruYSKiopK246K8vJypaWl2V5oEydP1YTxY20PQGtRXFxsW5FLTk6Wz+eL6Pe/pKREiYmJtldT8G+Od7xxw+0oAAAAAABtDzP6AAAAAAAAgDhAoQ8AAAAAAACIAxT6AAAAAAAAgDhAoQ8AAAAAAACIAxT6AAAAAAAAgDhAoQ8AAAAAAACIAxT6AAAAAAAAgDhAoQ8AAAAAAACIAxT6AMS9Xkn9bSs0cm7k3Mi5kXMj50bOjZwbOTdybuTcyLmRcyPnFuu5hIqKikrbjory8nKlpaXZXmgTJ0/VhPFjbQ9Aa1FcXGxbkUtOTpbP54vo97+kpESJiYm2V1Pwb453vHHD7SgAAAAAAG0PM/oAAAAAAACAOEChDwAAAAAAAIgDFPoAAAAAAACAOEChDwAAAAAAAIgDFPrQpm3ftk1v3XWXt5U895wdrWLGgvtNFgAAAAAAIFZR6EObtn3rVi245hpvW3LvvXa0ihkL7jdZAAAAAACAWJVQUVFRadtRUV5errS0NNsLbeLkqZowfqztxZZ5F1+sH9esUcIuu6hzjx52tHltXL1aldu3a1efT2c8+KAdRTRt3bRJf951V6+dkpmpCwoKvHbQP7KyVFZY6LX/8OOPat+pk9du64qLi20rcsnJyfL5f6Yj+f0vKSlRYmKi7dUU/JvjHW/ccDsKAAAAAEDbQ6GvDpO7d9emNWtsr2V18vk0vqLC9hBNFPoahkIfAAAAAACxh0t3AcS9Xkn9bSs0cm7k3Mi5kXMj50bOjZwbOTdybuTcyLmRcyPnFus5ZvTV4Z4+ffTtRx+p85576tLFi+1o87q/f39t/O477XXIIbpy2TI7imhiRl/DMKMPAAAAAIDYw4y+OuzSvn3gsV079UhJaZHNvLb3Hux7AQAAAAAAAOpCoQ8AAAAAAACIAxT6AAAAAAAAgDjQtgp969dLb74pff+9HYgjq1cHPpv5jPGG8wYAAAAAAFCvtlPo++QTqX9/6e67peOPDxRX4oX5LOYzmc9mPqP5rPGC8wYAAAAAABCWtrPqbna2nt18oMYUtJe2bJE2bJB8PrtzZxtXr9b2rVuVtfeHml0+3442rxGJQ1Wwqq+3GEfnHj3sqMOaNdJuu0kdOmhG1lad2WmFdN99dmcrF+F5a4j1q1Z5j3/IXKvrC2p+b7dmXa4/F3bz2l323tt7jJpWfN5YdRcAAAAAgNjDPfoAAAAAAACAONB2ZvSZyyLPPFM69FBp6VJp+nTp2GPtzp3dm56uVe+/783iutb/mVrC7YmJ3myzvf3v+TfmPdfFXAKanS3537P871nPPisddJDd2cpFeN4itXXTJv151129dkpmpi4oKPDaQf/IylJZYaHX/sOPP6p9p05eOypa8XljRh8AAAAAALGn7czoMwWUxYulq66SXn89qsWiFmc+i/lM5rOZzxgvRT6D84Yo6JXU37ZCI+dGzo2cGzk3cm7k3Mi5kXMj50bOjZwbOTdybrGeazsz+iLUqmb0ocFadEZfK8aMPgAAAAAAYg/36AMAAAAAAADiAIU+AAAAAAAAIA5Q6KvD9q1bA4/btml1WVmLbOa1vfdg3wsAAAAAAABQF+7RV4fJ3btr05o1tteyOvl8Gl9RYXuIJu7R1zDcow8AAAAAgNjDjD4AAAAAAAAgDjCjrw7PXnyxNq1d6/+GErTbnnva0ea14bvvpMpKderWTWc++KAdRTQxo69hmNEHAAAAAEDsodCHNo1CX8NQ6AMAAAAAIPZw6S7atF3at9eQO+/0tqN/8xs7WsWMBfebLAAAAAAAQKyi0Ic2bZd27fTzq6/2trTTT7ejVcxYcL/JonXqldTftkIj50bOjZwbOTdybuTcyLmRcyPnRs6NnBs5N3JusZ7j0l0AEePSXQAAAAAAYg8z+gAAAAAAAIA4QKEPAAAAAAAAiAMU+gAAAAAAAIA4QKEPAAAAAAAAiAMU+gAAAAAAAIA4QKEPAAAAAAAAiAMU+gAAAAAAAIA4QKEPAAAAAAAAiAMU+gDEvV5J/W0rNHJu5NzIuZFzI+dGzo2cGzk3cm7k3Mi5kXMj5xbruYSKiopK246K8vJypaWl2V5oEydP1YTxY20PQGtRXFxsW5FLTk6Wz+eL6Pe/pKREiYmJtldT8G+Od7xxw+0oAAAAAABtDzP6AAAAAAAAgDhAoQ8AAAAAAACIAxT6AAAAAAAAgDhAoQ8AAAAAAACIAxT6AAAAAAAAgDhAoQ8AAAAAAACIAxT6AAAAAAAAgDhAoQ8AAAAAAACIAxT6AMS9Xkn9bSs0cm7k3Mi5kXMj50bOjZwbOTdybuTcyLmRcyPnFuu5hIqKikrbjory8nKlpaXZXmgTJ0/VhPFjbQ9Aa1FcXGxbkUtOTpbP54vo97+kpESJiYm2V1Pwb453vHHD7SgAAAAAAG0PM/oAAAAAAACAOEChDwAAAAAAAIgDFPoAAAAAAACAOEChDwAAAAAAAIgDFPrK8pWRkKCEHVuG8svsvurCzdXHHCcjX3U+tb79bVlhdrXv379lF9odtYSbi5bq54zzBwAAAAAAWgiFPmNAnkorK1VpttIRmp2aLWdpKNxcKCk5KirKUYrtIjxl+RlKyJIKgt+/fyvQ3J2+/3BzUcU5BQAAAAAAMYBCX20pByvdNkOqnasx469qtp9XeAqOm5le1WZ87bTP/5/8UblatChXqf6xDHOQGse1hUV7jPzsamNxrUzzZ0t5pdOVaUeMzOk1+/XlanzfwXPkfZfZys4IjicoOAHQmfcUKnvHuD//QPCccv4AAAAAAEDLodBXW+FczRjQR6m2W6cauUJlpy7ThOAsMjPbb1SgqDcqN33H7LKC9GUq9fJ+zn0pypmVpwF25mBRTqn/uLlKLwhkSvOWKitYhVqUq2XDzHjtYlccKpuv2YvSdXB9U+bqyaXkFAXOj9kK0pU7JfhdLlWfWcHxMZqRFSi+ufNlys/wpgzu2Dd9oHcUP84fAAAAAABoORT6DDsDy5t1NbGPSuu6DLOuXNlyLdUMZQX3pZpZXctU6s36M+OBwlGNGWih9gWZ4w7I03V2R8rQERoww16GWm28TQin+GqEylWfXZc1Q1q6XN4kvQEjNDR4wjOHaYz/bC4PzvarnTfFRIX53XP+YkavpP62FRo5N3Ju5NzIuZFzI+dGzo2cGzk3cm7k3Mi5kXOL9RyFPsPOwKoszdMAU6CzwzsJlQvu27GZwl2mpnvtYZrrFYyqX6YZah9qMEXRRbM1f8els3UIlTNFu9TZGlFqz485h3aX08oI84hpX65cbFuhkXMj50bOjZwbOTdybuTcyLmRcyPnRs6NnBs5t1jPUeirziyqUKAds+zqVDvnFZhyFbwSdIeyfGV7N3YzRb1S5Q1YquUrA7uc+4IFqmARsdZxy+bP1qIxw/zPaGsydV2elFtr8ZPC7NrnqZ5ctZl73ncZaNbkXZLtzyX52658ylCNkONcV8f5AwAAAAAALYBCX22Z0wP3Uqux+IJDjVymppfmaWmWvczTbGZxhpSDTdXJjqVq9ohZyjEFJMO1zxSVUnI0YUzgMuCM/NQax0019/Sb3jbLROZ+eYHv236//i1LOxfN6syZ7zW96tLrUcvSq2boVb8k29x+z1ySXWc+cB++6uc6+1VvRwDnDwAAAAAAtJCEioqKStuOivLycqWlpdleaBMnT9WE8WNtD2gB5pLeUdKsuu7LCKfi4mLbilxycrJ8Pl9Ev/8lJSVKTEy0vZqCf3O8440bbkcBAAAAAGh7mNEHAAAAAAAAxAEKfWjbzP0Wmc0HAAAAAADiAIU+AAAAAAAAIA5Q6AMAAAAAAADiAIU+AAAAAAAAIA5Q6AMQ93ol9bet0Mi5kXMj50bOjZwbOTdybuTcyLmRcyPnRs6NnFus5xIqKioqbTsqysvLlZaWZnuhTZw8VRPGj7U9AK1FcXGxbUUuOTlZPp8vot//kpISJSYm2l5Nwb853vHGDbejAAAAAAC0PczoAwAAAAAAAOIAhT4AAAAAAAAgDlDoAwAAAAAAAOIAhT4AAAAAAAAgDlDoAwAAAAAAAOIAhT4AAAAAAAAgDlDoa0qffCJlZwc20wYAAAAAAACaCIW+prJ+vXTmmXp284HeZtreGAAAAAAAANAEKPQ1lXfflQ49VGMK2nubaXtjAJpdr6T+thUaOTdybuTcyLmRcyPnRs6NnBs5N3Ju5NzIuZFzi/VcQkVFRaVtR0V5ebnS0tJsL7SJk6dqwvixthdnvv9eOv54JX55gdct7/UP6fXXpT328PpAa1ZcXGxbkUtOTpbP54vo97+kpESJiYm2V1Pwb453vHHD7SgAAAAAAG0PM/qaiinoTZ8ubdgQ2EybIh8AAAAAAACaCIW+pnTssZLPF9hMGwAAAAAAAGgiFPoAAAAAAACAOEChDwAAAAAAAIgDFPoAAAAAAACAOEChDwAAAAAAAIgDFPoAAAAAAACAOEChDwAAAAAAAIgDFPqayMcvvKB5l16qsyvu0fmr/6qPnn3W7gHQ3Hol9bet0Mi5kXMj50bOjZwbOTdybuTcyLmRcyPnRs6NnFus5xIqKioqbTsqysvLlZaWZnuhTZw8VRPGj7W9+PDDV1/p6Qsu0IqFC+1IwJkPPaTDRo+2PaB1Ky4utq3IJScny+fzRfT7X1JSosTERNurKfg3xzveuOF2FAAAAACAtocZfVFkinwPDBhQo8jXoUsXddl7b3Xo3NmOAAAAAAAAANFHoS+Knh45UmtWrvTahwwfrt8sXaob1q3TteXl6nfeed44AAAAAAAA0BQo9EVJaUGBVrzyitfuc/bZOu/pp7X3oYd6fQAAAAAAAKCpUeiLkvcff9y2pFMmTbItAAAAAAAAoHlQ6IuSbz780HvcdY89tGeYi5EAAAAAAAAA0UKhL0oqt2/3HhN24SsFAAAAAABA86MqFSV7HXKI97jxu+/0/SefeG3Elg3ffquXxo/X9q1b7UjDbduyxTvWBv/5BgAAAAAAiAUU+qKk34gRtiW9ctNNtoVYYYp8swYN0pt/+YuePP/8RhX7TJHvyfPO8471iP+YFPsAAAAAAEAsoNAXJQefeab2+/nPvfZ/H3lEc0eP1pr//c/ro2UFi3zl773n9Zc99VSDi33BIt9Hzzzj9b9+98FY8kEAACbLSURBVF2Kfa1Ar6T+thUaOTdybuTcyLmRcyPnRs6NnBs5N3Ju5NzIuZFzi/VcQkVFRaVtR0V5ebnSwlyMYuLkqZowfqzttX5rVq7U/f37a93XXwcGEhLUoXNnr3nKrbfq59dc47XRfGoX+ao77vrrI14h2Vyua2by1bbPYYfp1y+9pN323NOOxLfi4mLbilxycrJ8Pl9Ev/8lJSVKTEy0vZqCf3O8440bbkcBAAAAAGh7mNEXRb6kJJ07Z44SEhICA5WV2rJhg7dt3bgxMIZmY4p8D59yirPIt8/hhyvj2mttL3wZ112nxMMOs70qZmbfLP9rmXs0AgAAAAAAtAQKfVG09vPPvUtCKyurJkm269hR7Tp18jY0n2CRb9V//2tHqpgi36iXXlLnHj3sSPjMjD3zXFexzxQUzWtS7AMAAAAAAC2BQl8UPfXLX+qHL77w2oeef76uLi3VHzdt0h9//FH9c3K8cTQ9s+qxmV0X7SJfUDjFvu8//dSOAAAAAAAANA/u0RclJfPn67HTT/fapsh39mOPeW00L1Pkm3nSSVrrWAilQ5cuOuGPf2xUka86swDH63/+s7asX29HqpjLuC9cuFB7HHigHYkv3KMPAAAAAIDYQ6EvSp7+1a+09B//8NpmJl+PlBSvjeYTqsjXEuK52EehDwAAAACA2MOlu1Hy7bJl3qOZLUaRr/nFWpHPMKswP+x/T1zGCwAAAAAAmgOFPsSHhISq1Y5jiHlPsfi+AAAAAABA/KHQFyV79enjPW5cvVqry8q8NpqPuTzWXCZrLpeNFb7evb331N3/CAAAAAAA0NQo9EWJWYAjaOGECbaF5lRfsc8sxnHypEk6fcaMqGwn//nP3jFdTHFvNEW+mNErqb9thUbOjZwbOTdybuTcyLmRcyPnRs6NnBs5N3Ju5NxiPcdiHFH00PHH639vvOG1TeHvpIkTuV9fCzD3xHti+HCVv/eeHamyz2GH6dcvvaTd9tzTjjTMhm+/1axBg+p8jfOeeSaui3wsxgEAAAAAQOxhRl8Unf3YY9p9v/289vuPP667UlP1f5066f923VWL8/O9cTQ9b2bfyy8r8Wc/syNVvn73XT0yaJA2fPedHYlcyCLf4Yd7hURm8gEAAAAAgOZGoS+Kuu2/v855/HFvYYigbZs3a9umTd6G5tN5zz2bpNhXb5HvxRcbPVsQAAAAAACgISj0RdGalSs159xzpcrA1dBmtdUOu+3mbe07d/bG0HxMsW/Uyy97l9LWZop9i/76V9sLX9Htt9dZ5BsVhUuCAQAAAAAAGopCX5RUVlZqznnnad3XX3v9n114ocauWKEb1q/3tp9fc403juZlCm/mUtraxb6+556rk265xfbCd/L//Z/6nH227QUEi3yde/SwIwAAAAAAAM2PQl+ULH/2WX3x1lte+6e//rWGzZwp309+4vXRsmoX+0yR7+xHH9Uu7dt7/UiY55jLs4PFPop8AAAAAAAgVlDoi5IPZs+2LenEm26yLcSKYLHvuOuvb3CRLyhY7DPHosgHAAAAAABiBYW+ENZ+8YXevusubzPtUL796CPv0dwXbo+DDvLaiC2m2HfKpEmNKvIFmWOYY1HkAwAAAAAAsYJCXx0+mjtX0/r1U+E113ibaZuxuiTsEvgqK7dv9x4BAAAAAACA5kShz+G7khI9fcEF2rRmjR2R1376V7/y9rn07NvXe/zx++/rzABoGb2S+ttWaOTcyLmRcyPnRs6NnBs5N3Ju5NzIuZFzI+dGzi3WcwkVFRWVth0V5eXlSktLs73QJk6eqgnjx9pe7FiQk6O3pk712kPs44Kxgff5c//jkPx8r11daUGBHj3tNK9tFmoY8eSTXhuIR8XFxbYVueTkZPl8voh+/0tKSpSYmGh7NQX/5njHGzfcjgIAAAAA0PYwo8+h+ky+5F/8wtuCqu+rLjUrS71POslrL3vqKT1x1lla9f77Xh8AAAAAAABoahT6HNLOOMO2pOmHH+5tQQefeaZt7eysf/xDvqQkr/3RM8/o3vR0TerSRbcnJuqDJ57wxgEAAAAAAICmQKHPoc/w4Tr84ou99taNG73NOPySS3TIsGFe22X3fffVpYsX75jZZ2zZsEHrV63SFnsMAAAAAAAAoClQ6KvDGQ88oDPuv18HZGR4m2mbrT5d99lHF/7rX/rVP//pFQbLO/bW6vb7aNc99rAJAAAAAAAAIPoo9IVgCnUXv/mmt5l2JJJPPdUrDD7V/Uo93mOcDglxyS8AAAAAAADQWBT6AAAAAAAAgDhAoQ8AAAAAAACIAxT6AAAAAAAAgDhAoQ9A3OuV1N+2QiPnRs6NnBs5N3Ju5NzIuZFzI+dGzo2cGzk3cm6xnkuoqKiotO2oKC8vV1pamu2FNnHyVE0YP9b24lNi4u3eY3n5td4jEA+Ki4ttK3LJycny+XwR/f6XlJT4f5cSba+m4N8c73jjhttRAAAAAADaHmb0AQAAAAAAAHGAQl9TevNNac2awGbaAAAAAAAAQBOh0NdUvv9eGjNG2m23wJadHRgDAAAAAAAAmgCFvqby4YfST38qdegQ2NLTA2MAAAAAAABAE6DQ11QOO0x6/33NyNrqbabtjQEAAAAAAABNgEJfU+nSRXr2WZ3Z8VOd2WmF1/bGAAAAAAAAgCZAoa8pHXSQNH26dN99gTYAAAAAAADQRCj0AQAAAAAAAHGAQh+AuNcrqb9thUbOjZwbOTdybuTcyLmRcyPnRs6NnBs5N3Ju5NxiPZdQUVFRadtRUV5errS0NNsLbeLkqZowfqztAWgtiouLbStyycnJ8vl8Ef3+l5SUKDEx0fZqCv7N8Y43brgdBQAAAACg7WFGHwAAAAAAABAHKPQBAAAAAAAAcYBCHwAAAAAAABAHKPRFW1m+MjLyVWa7iEOcYwAAAAAAEIPabqGvvmKN2Z+QoARvy1ahHW4yFI/CV/u7Ksz2zlN2k5+kWjhnAAAAAAAghjCjry4pOSoqzdOAAXkqrZyuTDuMGGOKbVlLlVdaqenNfZLMz0hRjlJsFwAAAAAAoCVR6AuXnb2Vnx2c5VdtBpnZF5z9l5qrRcGx6rO9avQLlR3Me8cpU/4o//MW5SrV38/I96eqHzM4o7DGe2iGWYaxznwfqbM1orRIOc5qW+3v2T8U4nvd6Vx5j9nKzqh1jKAauTB+NsxW/XUAAAAAAACiiEJfJBblatmwSlVW+reCMZox0RRtCpWdmqv0AjtuZgHauFuZ8jOypGDev03PTFHOrODswUoV5ZTWOGZp3lJlBStHO95DW59lOFujQhb5XN9zzXNV43uty6Kl6jPLHsOc86w6CqxR+dkAAAAAAABoOAp9kRiQp+uC1bXUPoGiTdlyLa0+Xp+y+ZqtevK1jpkydIQGzJgbKDBF8lrxbJE0Ii9duaPqmCHn+p5Dfa91GTBCQ4OFxMxhGqOlWr7S9quLxs8GmkyvpP62FRo5N3Ju5NzIuZFzI+dGzo2cGzk3cm7k3Mi5kXOL9RyFPrROpgCXM12lI2Yrtb5ZeS2ldFngMm60uC9XLrat0Mi5kXMj50bOjZwbOTdybuTcyLmRcyPnRs6NnFus5yj0NVbKwUpfNFvz7bSysvmzq4o7i5ap1DZ3jKcM1QjlaoqrNhXMe8esynjPHTOMBUEcUnJmKW9pVuC+htW5vudQ36vrXNVWOFczTIExyfbrY2YAVvvZAAAAAAAAaEptu9C3KLD4RWChhFr3XjOLKJiFNbxMqIUvMjW9IF25qYHjjFqWHrhsMyVHs8w94Ozxd4wrcD++pVnB17ULN/jzE8bM8PIZ+amaXlqVSc1NV0GzLynbWvi/z6ICpeem1ir2ub5n/7lyfa91niu/6j8j5pZ/Ea2yW/NnY8dCLQAAAAAAAE0goaKiotK2o6K8vFxpaWm2F9rEyVM1YfxY2wNijCn2jpJmRVTcC6EwWwlzh6kyDoq2xcXFthW55ORk+Xy+iH7/S0pKlJiYaHs1Bf/meMcbN9yOAgAAAADQ9nDpLtCECrPtbL7gjEBmZgIAAAAAgCZCoQ+oS0qOiho5my9zeqUqK4PbdO6zCAAAAAAAmgyFPgAAAAAAACAOUOgDAAAAAAAA4gCFPgAAAAAAACAOUOgDEPd6JfW3rdDIuZFzI+dGzo2cGzk3cm7k3Mi5kXMj50bOjZxbrOcSKioqKm07KsrLy5WWlmZ7oU2cPFUTxo+1PQCtRXFxsW1FLjk5WT6fL6Lf/5KSEiUmJtpeTcG/Od7xxg23owAAAAAAtD3M6AMAAAAAAADiAIU+AAAAAAAAIA5Q6AMAAAAAAADiAIU+AAAAAAAAIA5Q6AMAAAAAAADiAIU+AAAAAAAAIA5Q6AMAAAAAAADiAIU+AAAAAAAAIA5Q6AMQ93ol9bet0Mi5kXMj50bOjZwbOTdybuTcyLmRcyPnRs6NnFus5xIqKioqbTsqysvLlZaWZnuhTZw8VRPGj7U9AK1FcXGxbUUuOTlZPp8vot//kpISJSYm2l5Nwb853vHGDbejAAAAAAC0PczoAwAAAAAAAOIAhT4AAAAAAAAgDlDoAwAAAAAAAOIAhT4AAAAAAAAgDlDoAwAAAAAAAOIAhT4AAAAAAAAgDlDoAwAAAAAAAOIAhT4AAAAAAAAgDlDoAxD3eiX1t63QyLmRcyPnRs6NnBs5N3Ju5NzIuZFzI+dGzo2cW6znEioqKiptOyrKy8uVlpZme6FNnDxVE8aPtT0ArUVxcbFtRS45OVk+ny+i3/+SkhIlJibaXk3Bvzne8cYNt6MAAAAAALQ9zOgDAAAAAAAA4gCFvqby3nvS1KmBzbQBAAAAAACAJkShL9o2bJBGjpQOO0zKyQlspm3GzD4AAAAAAACgCVDoi7Zf/1p67DHpxBOl6dMDm2mbMbMPUfXjj1v15Zc/6JtvNmj79qjebhIAAAAAAKBVodAXTa+/Lj39tDRkiC5LztXgOZ297bLkHG/M22cyaJTFiz/XuHH/VFraXdpttz9rv/3u0N57T1GXLpN08skP6+6739bXX6+zaQAAAAAAgLaBQl80/fOfgcfLLtPit77QSy994m2L3/rSG/MEM4jYu+9+rUGDZmnAgAd0xx2LVVq6WpXVJvGZ2X0LF67Q1VcX6qCDpuqPf/yXfvhhk90LAAAAAAAQ3yj0RdPmzYHHTp0Cj9UFx4IZROSOOxbpqKNm6OWXP7UjoW3cuFV//vPr+tnP7tP776+yowAAAAAAAPGLQl80ZWQEHp95JvBYXXAsmEHYfvOb5zVu3Avatq1q+l737p103nn9dOutp+iBB87QPfdk6YYbjvd/vQeoXbsEm5I+/bRCxx77oF55ZYUdAQAAAAAAiE8U+qLp9NOlo46SHnxQWlGtsGTaZszsMxmEbdKk13Xfff+2PalHj87Kz/+Fvv76Wj3++DkaP/44XXzx4briiqP15z+frDffvFjLl1+lX/7yUPsMae3aTTrrrCdUUvKdHUFb0yupv22FRs6NnBs5N3Ju5NzIuZFzI+dGzo2cGzk3cm7k3GI9l1BRURHVpUrLy8uVlpZme6FNnDxVE8aPtb048cUX0mmnKf29Y/W+9vaGDtUqLf3Zm9Lzz0v77eeNoX7mfnvmnnzB1XT79NlLzz33SyUn9/D69XnwwXd0+eXztWXLdq/ft29Pvftutjp0aOf10XDFxcW2Fbnk5GT5fL6Ifv9LSkqUmJhoezUF/+Z4xxs33I4CAAAAAND2MKMv2kwhb8kSqXdvO+Bn2maMIl/YTHEvN3fBjiJfYmIXLVjwq7CLfIaZ6ZeXN8T2pA8//Eb33ls1OxAAAAAAACCeUOhrCh06SF272o6faZsxhG3OnA/03nvltidNnZqpn/zEZ3vhu/LKozVo0EG2J91yy6vavHmb7UXJJ59Izz4rLV5sKpR2EAAAAAAAoHlR6ENMeuKJD2wrcMnuiBH9bC9yN954gm1J3323US+99IntNdKaNdK550opKdKwYdKAAebNSm+9ZQMAAAAAAADNh0IfYs7GjVu1YEGZ7UnDh/dRQtVCuhE77rifaJ99qmZYPvPMR7bVCNu2BRZWeeqpQLHvrruk3/9eWrVKGjxY+igKrwEAAAAAABABCn2IOR9+uMor9gVlZBxgWw2TkJCgI47Y1/akJ5/8UKee+kjjtgHTdOrrvXVqz9/q1O+H6tR5Pp1a3E8F182QNmyQbrjBvhoAAAAAAEDzoNCHmFNevt62AqrPxmuovfbqbFtSRcWPevHFTxq3LVmtF5WsF1ftXmP8i57J0hFHSC+9ZF8NAAAAAACgeVDoAwAAAAAAAOIAhT7EnMTELrYV8PXX62yr4b79dqNtSd2776rBgw9q3HZ0Dw3Wxxq89w81xvf75mOpuFgaNMi+GgAAAAAAQPOg0IeY07fv3tpttw62JxUVfWZbDVNZaWpvX9medM45ffXCC79u3LboCr1w/Aq98M0demGP+XrhjDV64YgPlDVljPxvXpo0yb4aYkGvpP62FRo5N3Ju5NzIuZFzI+dGzo2cGzk3cm7k3Mi5kXOL9VxCRUVFpW1HRXl5udLS0mwvtImTp2rC+LG2F1/S0+/V+++v8tqHHrq3li79jddGeM4664kdq+P26bOXPvjgygavvPv66yt1wgkzbU96/vmRyspKtb1GWLNGuvTSwMq7pppomJ/9WbOkn/880I9TxWbWYgMlJyfL5/NF9PtfUlKixMRE26sp+DfHO9644XYUAAAAAIC2hxl9iEnnndfPtqRly77V7Nkf2F7kbrnlNduS9tyzswYNOsj2Gsnnk+bMkcrKpLlzpUWLzJuN+yIfAAAAAACITczo83v22Y/0ww+bbS86rr/+ZX3++Vqvvf/+3XTrrad47WjZffeOOvPMQ2wv/mzfXqkjjpiu994r9/rmvn1vv32ZfvITn9cP1z33LNFVVxXYnjR16hBdcw2FuMZiRh8AAAAAALGHQp9fWtpdKi1dbXutQ2pqD5WUXG178WnhwhUaNGiWV/QzzCW8zz33SyUn9/D69XnwwXd0+eXztWXLdq/ft29Pvftutjp0aOf10XAU+gAAAAAAiD1cuouYddJJvTVx4km2F7iE95hj7tfUqW9p06ZtdnRnH3+8WiNHPqVLLpm3o8i3xx676plnzqPIBwAAAAAA4haFPsS0G244XpdffpTtSatXb1ROzgLts8/tOv/8JzV58hvezL1p05boD3/4lzIyHtDBB9+txx573z5D6tatk55++jylpe1pRwAAAAAAAOIPhT7EvHvvPU1//eupateuatndioof9cQTH3j3QjQz9668skCTJr2uRYs+17ZtVVejH3hgdxUVXaITT+xtRwAAAAAAAOIThT60Cr/97QD9+99jdMopB9qR0Dp3bq8//OF4vffe5erXr6cdBQAAAAAAiF8sxuH35Zc/aOvWwL3cWov27XdRr167217bsnjx53ryyQ81b95ylZWtVqX9Cd511/YaMGB/nX12X//WR/vs0zWwA1HHYhwAAAAAAMQeZvT5mYLZT37ia1VbWy3yGf3776/bbz/VW3V4w4Y/6IsvfqtVq67T+vU36F//ulBXXnk0RT7U0Cupv22FRs6NnBs5N3Ju5NzIuZFzI+dGzo2cGzk3cm7k3GI9x4w+ABFjRh8AAAAAALGHGX0AAAAAAABAHKDQBwAAAAAAAMQBLt2tx9tvf6H//rfc9prXT3+aqGOO2c/2gNjBpbsAAAAAAMQeCn31+N3vXtSUKUW217yuuy5Dt9022PaA2EGhDwAAAACA2MOluwAAAAAAAEAcoNAHAAAAAAAAxAEKfQAAAAAAAEAcoNAHAAAAAAAAxAEKffW48caB+vrra1tkM68NoPF6JfW3rdDIuZFzI+dGzo2cGzk3cm7k3Mi5kXMj50bOjZxbrOdYdRdAxFh1FwAAAACA2MOMPgAAAAAAACAOUOgDAAAAAAAA4gCFPgAAAAAAACAOcI++Rvj663V66qkPba9hzj67r/bZp6vtAa0D9+gDAAAAACD2UOhrhKKiz3TssQ/aXsO8+ebFysg4wPaA1oFCHwAAAAAAsYdLdwEAAAAAAIA4QKEPAAAAAAAAiAMU+gAAAAAAAIA4QKGvEcy99Sor/9SojfvzAU2vV1J/2wqNnBs5N3Ju5NzIuZFzI+dGzo2cGzk3cm7k3Mi5xXqOxTgARIzFOAAAAAAAiD3M6AMAAAAAAADiAIU+AAAAAAAAIA5Q6AMAAAAAAADiAIW+WFWWr4yMfJXZLmrh+wEAAAAAAKiBQl8IZfkZSkhI2LFl5FNWalKmeNcU33c0ioLVj1HX8Wq9/4SEbBXaXWGLxnsFAAAAAABtEoW+OpgiX+rsESqtrFSlt5VqxLL5FGCaTKGyU2drRGnw+y5Q+rJSu6+RUnJUVJSjFNttkHCPMSCv6memQMqiaAcAAAAAAJoJhT6nQk3JlfJmVS/spChnur9vZ1zlZ1ebsVVjJle1sepFnmC/xvMDW3Zw2lf146TmapEdbjvSdfCOLzxT06dn1v09ep1lmpIR/B4zVDUBsFDZwe/Rv2U/4Prug7Pt6sh6+/yCr7fjdcuUP8p/bhblKtWfDznrMHOYxixaJq9caZ6/43Vq/oxUvZ8Ijg0AAAAAAFALhT6XsuVaOmCEhtY1fWtRrpYNM7O2pivTFIpSc5VeEJjFVZq3VFk7Knd12PF8M+trjGZMNAWkmsepLM3TABtvGzI1bMwMZZlCWH3fX9CipeozK/i9S7mjbCEuI0sKfo/+bfpAmzdqnLt6sk4pypnlPzd25l5RTt1z/MryJ2rGgD5KDfUzUuP9hH9sAAAAAACA2ij01csUg+xMrOBMrwF5ui7T22mLglX9lKEjNGDG3MCMrbpUf35qn0BBr9Zx2qLM6bbgNmxu4Puur+BXrRjrfe9m9lzZfM1WiO+xxrmrJ9sQdjaeef/epd/mct9QPyNt/Jw3l15J/W0rNHJu5NzIuZFzI+dGzo2cGzk3cm7k3Mi5kXMj5xbrOQp9LikHK33RbM33qnopyimqbIMz7FpQ5nSZe/SNqa9gGosGVLtHX2PvC4io+XLlYtsKjZwbOTdybuTcyLmRcyPnRs6NnBs5N3Ju5NzIucV6jkKfU6au23EpaD28omCuptiKVNn82Vo0Zpj/CH7B+7P5eeO27VSjuBhGPt6Y+9VVn8HnzYIzl736hfE97vjeU4ZqhKrOR0h1ZcM5b9Uy9Qr1M+ISybEBAAAAAAAsCn11SMkpUumI2TsuwzSLY2jEUMcMrUxNL83T0ix7uWZuugrMIhIpOZpl7sVmnz9qWXo9MwL9xylIV25quPk4Y4puS7MC37XZzAq8ZjGUUN9j7ctkzfdu73MXPB9my341EN+ZI1saxnnzv6cJ9n6C4S2YUcfPiEvExwYAAAAAAAhIqKioqLTtqCgvL1daWprthTZx8lRNGD/W9gC0FsXFxbYVueTkZPl8voh+/0tKSpSYmGh7NQX/5njHGzfcjgIAAAAA0PYwow8AAAAAAACIAxT6AAAAAAAAgDhAoQ8AAAAAAACIAxT6AAAAAAAAgDhAoQ8AAAAAAACIAxT6AMS9Xkn9bSs0cm7k3Mi5kXMj50bOjZwbOTdybuTcyLmRcyPnFuu5hIqKikrbjory8nKlpaXZXmgTJ0/VhPFjbQ9Aa1FcXGxbkUtOTpbP54vo97+kpESJiYm2V1Pwb453vHHD7SgAAAAAAG0PM/oAAAAAAACAOEChDwAAAAAAAIgDFPoAAAAAAACAOEChDwAAAAAAAIgDFPoAAAAAAACAOEChDwAAAAAAAIgDFPoAAAAAAACAOEChDwAAAAAAAIgDFPrQqo0YMUdJSfk65pi/aeDAmTG1mfdk3pt5j2hZvZL621Zo5NzIuZFzI+dGzo2cGzk3cm7k3Mi5kXMj50bOLdZzCRUVFZW2HRXl5eVKS0uzvdAmTp6qCePH2h4QuZ///H69/fYXthebjjlmP7311qW2Fx+Ki4ttK3LJycny+XwR/f6XlJQoMTHR9moK/s3xjjduuB0FAAAAAKDtodCHVu2MMx7Tc8+VKC/vFzr22J/Y0djw5pv/U27uP3X66WmaN++XdjQ+UOgDAAAAACD2UOhDq3bOObP11FPL9PzzI5WVlWpHY0NBQalOO+1RnX12Hz355Ag7Gh8o9AEAAAAAEHso9NXyyisrdOGFc9W1a0fttddudrRlffvtBq1bt1mzZg3XwIFJdhRG7UJfRsYD+uijb5WY2FWdOrWzqeaxadM2/8//Oh1yyF4qKrqEQl8dKPQBAAAAANA0KPTV8swzH+mss56wvdjy9NPnafjwQ2wPRu1CX0rKnfr44+/t3paRnLyHysquodBXBwp9AAAAAAA0DQp9tSxZ8oWOOeZ+/fKXh+ruu7PsaMu66qoCPfbY+/73dpmOOqqXHYVRu9B34okz9eqrK/X44+fo8MP3sSlpzZof5fPtantN4513vtb55z/pzbp85ZXRFPrqQKEPAAAAAICmsYt9hLXLLgneY8eO7dSjR2dt2rRVn3++Vj/8sNm7NLM5NvNa5jXNa5v3YN6LEXxvqFv79oEf6QMO6Ka0tD29x0mTXtfZZ89Wr167e2NNtZnXMoLvAQAAAAAAoDlRkajHpElv6Gc/u0+9e+erV6+/NstmXsu8pnltNE7nzh20cuUaffbZWk2c+JodlbZu3a433/xMt932pkaNekbHHfeg+vWbpoMOmqq+fe/x+r/+9TP6y1/e0Btv/M/LAwAAAAAAxDIKffVo1y7wFR1xxL469dTkZtnMaxnB10bj3HVXpjp02EX5+Yv15JMfasyY57TPPrd7xbzf//4lPfLIf72i34cffqNPP63QsmXfev2///2/Gj/+ZR1//ENe/tJL5+nf//7SHhUAAAAAACC2UEmqR8eOga/oz38+Wf/856+87frrj9NVVx2zox/tzbyWEXxtNM6hh+6tkSPTtXnzNp177hz97W/F+v77H/Xzn++n3/3uWO9+fm+/fZk+/vgaffnlb/XJJ2P9/Uv942fr978/Vv377+/lH3jgHR199N908skPa/Hiz+3R0Rr0SupvW6GRcyPnRs6NnBs5N3Ju5NzIuZFzI+dGzo2cGzm3WM+xGEct//nPlzrqqL/pwgt/ppkzh+l3v3tRU6YUqbDwAg0ZkuLdOy85+U7tsceuWr78qhoLPGzZss2bDVZWtlrffrtBGzdu0a67tteee+6mgw7aQ/369VSnTu1tum4LFpQpM/Mfuu66DN1222CNHj1XDz/8nv+9jdkx2w8BtRfjGDRoll5++VO9+ebFysg4QD/8sMl/Dl/SjBn/0fbtgR/1YcMO0T33ZMncsy9cX321Tg899I6mTVuiL774QQkJ0qWXHqHbbz9V3bp18jJFRZ/p2GMf1CmnHKiXXhrFYhx1YDEOAAAAAACaBlPGIrT//t105ZVHq7x8vW688RWvoHfPPW/r1FMfUffuf/HurWcWfsjOnq+cnH/q8suf92aRHXnkDG//wIEP6Y47FunLL3+wR0RTef/9VV7R9r77/u0VXM8/v583bi6/DRbnwrXvvl11ww3Hq7T0ak2ePEi77dbBmxl45JHT9d//ltsUAAAAAABAy6HQ1wA33XSi9tmnq+6++23tv/8duuqqQr344ifae+8uOu+8fvrDH47X1KlD9Le/na477xyiG28cqAsuSPdWZX399f9p3LgXvAU3Ro58Sh999K09KqLJrFx80kkPq6TkO+8S3aVLf6PHHjtHJ57Y25uVWX1hjkiYxT3M5bzmeAMG7K+ysu+911m7dpNNAAAAAAAAtAwKfREy93n761+LtHr1Ru9SULOZwp+5jPfTT8d693v7v/87Wddc83Pv0s6rr/65br75RP3972eppORq7/5vf/nLIG9m4GOPva/09HuVm7tA69dvtq+AaNh99466445f6LLLjtBrr13kXTpt3H131o6FOZYt+8Yba4gDD9xDr746WpdffpT/56Hq8l0AAAAAAICWQqEvAmZF1gEDHtAtt7ymLl06eIs8bNmyXQce2F1paXvaVGi9e3f3FoAwl4A+9NCZ6tlzN+Xnv+Vd2msuNUX0/PrXP9WMGaerY8d2dkTefRKvvvoYr2B79dWFdrRhOnRop3vvPU2jRx9mRwAAAAAAAFoOhb4wrV+/RRkZD6i4+Cvv8s/33rtcjz12tjc7zCzYsWZNZJdutmu3i1cgMsc544yDtXz5d95CDqtWrbcJNJWbbjrJW4jDLNrxxBPv21EAAAAAAIDWjUJfmMwMvokTT/Iuw3355VE64ACfN6PvqquOsQtzLLTJyPTs2UXPPnu+dy+/G244zrvPH5qWuax3ypTBXvvaa1/UunVcNg0AAAAAAFo/Cn0RMPfcMwtr7LJLgh0JLMxhVmSdNm2J3nuv4auvmnv5/f73x9kemtrIkek7Fua45ZZX7SgAAAAAAEDrRaGvkcwiDFOmnKqtW7frqqsKVFlZafcg1gUX5pg69S0tW8bqxwAAAAAAoHWj0BcFF1yQroEDk/TGG//TrFnv2VHEOrMwh1kdObAwR4EdRTzqldTftkIj50bOjZwbOTdybuTcyLmRcyPnRs6NnBs5N3JusZ5LqKioiOoUtPLycqWlpdleaBMnT9WE8WNtLzb85z9f6qij/qYLL/yZZs4c5i20MWVKkQoLL9CQISk2tbOlS8u9lXN79Ois5cuvls/Xye6J3IIFZcrM/Ieuuy5Dt902WKNHz9XDD7/nf29jdMQR+9oUjHPOma2nnlqm558fqaysVJ100sN65ZUVmjfvlzr66F42Vbe1azfpuOMe1DffbND995+h005LtXsit2TJlzrjjMe8S4IXLrxQBQWl/uM9qrPP7qMnnxxhU/GhuLjYtiKXnJzs//3wRfT7X1JSosTERNurKfg3xzveuOF2FAAAAACAtocZfVGSnp64Y2GOCRP+ZUfR3D77bI33aApu++7713q3gw++2yvyGZdeOs+ZCXczr2kE3wMAAAAAAEBzotAXRcGFOe6999+NWpgDDWfumdi5c3vtt9/uOvDA7mFvZiXePfbY1bkv3M28pnlt8x4AAAAAAACaG5fu1lL70t2cnAXeYg0nn3ygevXa3abq9t57X2vp0lVKTt5DAwYcYEcj8+WXP+hf//pUY8f+XPn5Q7h0N4Tal+421Jo1P8rn29X2ooNLd924dBcAAAAAgKbBjL56bNsWqIOawtvf//7fejdT5DM+/vh75/5wNvNaRvC10fSiXeQDAAAAAABoXtL/Aw4KVCAVTTArAAAAAElFTkSuQmCC;" vertex="1" parent="1">
          <mxGeometry x="8" y="97.99999999999999" width="1084" height="653.46" as="geometry" />
        </mxCell>
        <mxCell id="X7lgUItijejAONc3UzzH-2" value="" style="rounded=0;whiteSpace=wrap;html=1;fillColor=none;strokeWidth=3;strokeColor=#FF0000;" vertex="1" parent="1">
          <mxGeometry x="130" y="650" width="90" height="80" as="geometry" />
        </mxCell>
        <mxCell id="X7lgUItijejAONc3UzzH-3" value="" style="rounded=0;whiteSpace=wrap;html=1;fillColor=none;strokeWidth=3;strokeColor=#FF0000;" vertex="1" parent="1">
          <mxGeometry x="830" y="130" width="40" height="40" as="geometry" />
        </mxCell>
        <mxCell id="X7lgUItijejAONc3UzzH-4" value="You can place the &lt;i&gt;Subcircuit Port &lt;/i&gt;via the &lt;i&gt;Components&lt;/i&gt;&amp;nbsp;tab." style="shape=callout;whiteSpace=wrap;html=1;perimeter=calloutPerimeter;fillColor=#f8cecc;strokeColor=#b85450;direction=south;fontSize=18;spacing=5;size=60;position=0.42;position2=0.58;" vertex="1" parent="1">
          <mxGeometry x="220" y="620" width="340" height="120" as="geometry" />
        </mxCell>
        <mxCell id="X7lgUItijejAONc3UzzH-5" value="You can also place the &lt;i&gt;Subcircuit Port &lt;/i&gt;via the quick-access toolbar at the top of the main window." style="shape=callout;whiteSpace=wrap;html=1;perimeter=calloutPerimeter;fillColor=#f8cecc;strokeColor=#b85450;direction=west;fontSize=18;spacing=5;size=40;position=0.72;position2=0.92;base=35;" vertex="1" parent="1">
          <mxGeometry x="820" y="170" width="250" height="140" as="geometry" />
        </mxCell>
        <mxCell id="X7lgUItijejAONc3UzzH-6" value="" style="ellipse;whiteSpace=wrap;html=1;aspect=fixed;fillColor=none;strokeWidth=3;strokeColor=#FF0000;" vertex="1" parent="1">
          <mxGeometry x="670" y="240" width="100" height="100" as="geometry" />
        </mxCell>
        <mxCell id="X7lgUItijejAONc3UzzH-10" value="Example &lt;i&gt;Subcircuit Port&lt;/i&gt;&amp;nbsp;in the circuit.&lt;div&gt;&lt;br&gt;&lt;/div&gt;&lt;div&gt;Note that the name (P2) is NOT visible outside the circuit, only the &lt;i&gt;Number&lt;/i&gt;&amp;nbsp;property (2) is passed &quot;up&quot; to the parent circuit.&lt;/div&gt;" style="shape=callout;whiteSpace=wrap;html=1;perimeter=calloutPerimeter;fillColor=#f8cecc;strokeColor=#b85450;direction=west;fontSize=18;spacing=8;size=60;position=0.68;position2=0.88;base=35;" vertex="1" parent="1">
          <mxGeometry x="690" y="340" width="370" height="210" as="geometry" />
        </mxCell>
      </root>
    </mxGraphModel>
  </diagram>
</mxfile>
